{
.appVersion = "3343";
.formatVersion = 3;
DisplayStrings = (
"̃",
"̶",
"̵",
"̸",
"̷",
"͟",
"¯",
"ﬂ"
);
axes = (
{
name = Weight;
tag = wght;
}
);
customParameters = (
{
name = vendorID;
value = dmol;
},
{
name = fsType;
value = (
);
},
{
name = unicodeRanges;
value = (
0,
1,
2,
3,
6,
7,
29,
31,
32,
33,
35,
36,
37
);
},
{
name = "Keep Kerning in one Lookup";
value = 1;
}
);
date = "2025-03-15 20:59:26 +0000";
familyName = "Gyrotrope Text";
fontMaster = (
{
axesValues = (
400
);
id = m01;
metricValues = (
{
over = 30;
pos = 1536;
},
{
over = -30;
},
{
over = -30;
pos = -480;
},
{
over = 30;
pos = 1408;
},
{
over = 20;
pos = 1072;
},
{
},
{
over = 20;
pos = 536;
},
{
pos = 704;
},
{
}
);
name = Regular;
stemValues = (
176,
144,
160,
128,
128,
112,
112,
96
);
userData = {
GSCornerRadius = 60;
};
visible = 1;
},
{
axesValues = (
900
);
iconName = Bold;
id = m002;
metricValues = (
{
over = 30;
pos = 1536;
},
{
over = -30;
},
{
over = -30;
pos = -480;
},
{
over = 30;
pos = 1408;
},
{
over = 20;
pos = 1072;
},
{
},
{
over = 20;
pos = 536;
},
{
pos = 704;
},
{
}
);
name = Black;
stemValues = (
396,
324,
360,
288,
288,
252,
252,
216
);
userData = {
GSCornerRadius = 80;
};
visible = 1;
}
);
glyphs = (
{
glyphname = A;
kernLeft = A;
kernRight = A;
lastChange = "2025-03-15 20:26:20 +0000";
layers = (
{
anchors = (
{
name = bottom;
pos = (988,0);
},
{
name = ogonek;
pos = (1831,10);
},
{
name = top;
pos = (988,1408);
}
);
layerId = m01;
shapes = (
{
closed = 1;
nodes = (
(165,0,ls),
(206,0,o),
(234,15,o),
(255,51,cs),
(455,392,l),
(1536,392,l),
(1737,51,ls),
(1758,15,o),
(1785,0,o),
(1826,0,cs),
(1868,0,ls),
(1926,0,o),
(1949,37,o),
(1919,89,cs),
(1175,1357,ls),
(1154,1393,o),
(1127,1408,o),
(1086,1408,cs),
(906,1408,ls),
(865,1408,o),
(838,1393,o),
(817,1357,cs),
(73,89,ls),
(43,37,o),
(66,0,o),
(125,0,cs)
);
},
{
closed = 1;
nodes = (
(966,1264,l),
(1026,1264,l),
(1451,536,l),
(540,536,l)
);
}
);
width = 1992;
},
{
anchors = (
{
name = bottom;
pos = (997,0);
},
{
name = ogonek;
pos = (1794,10);
},
{
name = top;
pos = (997,1408);
}
);
layerId = m002;
shapes = (
{
closed = 1;
nodes = (
(365,0,ls),
(406,0,o),
(435,14,o),
(454,51,cs),
(534,212,l),
(1459,212,l),
(1539,51,ls),
(1558,14,o),
(1588,0,o),
(1629,0,cs),
(1870,0,ls),
(1929,0,o),
(1949,37,o),
(1923,89,cs),
(1294,1357,ls),
(1276,1393,o),
(1246,1408,o),
(1205,1408,cs),
(789,1408,ls),
(748,1408,o),
(717,1393,o),
(699,1357,cs),
(71,89,ls),
(45,37,o),
(64,0,o),
(123,0,cs)
);
},
{
closed = 1;
nodes = (
(967,1084,l),
(1027,1084,l),
(1299,536,l),
(695,536,l)
);
}
);
width = 1993;
}
);
unicode = 65;
},
{
glyphname = AE;
kernLeft = A;
kernRight = E;
lastChange = "2025-03-10 13:13:11 +0000";
layers = (
{
anchors = (
{
name = bottom;
pos = (1083,0);
},
{
name = top;
pos = (1083,1408);
}
);
layerId = m01;
shapes = (
{
closed = 1;
nodes = (
(130,0,ls),
(171,0,o),
(199,15,o),
(220,50,cs),
(422,392,l),
(995,392,l),
(995,73,ls),
(995,26,o),
(1022,0,o),
(1070,0,cs),
(2060,0,ls),
(2109,0,o),
(2135,16,o),
(2135,64,cs),
(2135,80,ls),
(2135,128,o),
(2109,144,o),
(2060,144,cs),
(1171,144,l),
(1171,632,l),
(1884,632,ls),
(1933,632,o),
(1959,649,o),
(1959,697,cs),
(1959,711,ls),
(1959,759,o),
(1933,776,o),
(1884,776,cs),
(1171,776,l),
(1171,1264,l),
(2060,1264,ls),
(2109,1264,o),
(2135,1280,o),
(2135,1328,cs),
(2135,1344,ls),
(2135,1392,o),
(2109,1408,o),
(2060,1408,cs),
(883,1408,ls),
(842,1408,o),
(813,1393,o),
(793,1358,cs),
(43,88,ls),
(13,37,o),
(36,0,o),
(95,0,cs)
);
},
{
closed = 1;
nodes = (
(937,1264,l),
(995,1264,l),
(995,536,l),
(507,536,l)
);
}
);
width = 2195;
},
{
anchors = (
{
name = bottom;
pos = (1193,0);
},
{
name = top;
pos = (1193,1429);
}
);
layerId = m002;
shapes = (
{
closed = 1;
nodes = (
(332,0,ls),
(373,0,o),
(403,13,o),
(421,51,cs),
(497,212,l),
(995,212,l),
(995,72,ls),
(995,25,o),
(1021,0,o),
(1070,0,cs),
(2059,0,ls),
(2107,0,o),
(2133,25,o),
(2133,72,cs),
(2133,251,ls),
(2133,298,o),
(2107,324,o),
(2059,324,cs),
(1391,324,l),
(1391,536,l),
(1884,536,ls),
(1932,536,o),
(1958,561,o),
(1958,610,cs),
(1958,786,ls),
(1958,835,o),
(1932,860,o),
(1884,860,cs),
(1391,860,l),
(1391,1084,l),
(2059,1084,ls),
(2107,1084,o),
(2133,1110,o),
(2133,1157,cs),
(2133,1335,ls),
(2133,1382,o),
(2107,1408,o),
(2059,1408,cs),
(724,1408,ls),
(683,1408,o),
(652,1394,o),
(635,1357,cs),
(41,87,ls),
(16,33,o),
(34,0,o),
(93,0,cs)
);
},
{
closed = 1;
nodes = (
(905,1084,l),
(995,1084,l),
(995,536,l),
(648,536,l)
);
}
);
width = 2193;
}
);
unicode = 198;
},
{
glyphname = B;
kernLeft = H;
kernRight = H;
lastChange = "2025-03-13 21:00:52 +0000";
layers = (
{
anchors = (
{
name = bottom;
pos = (1028,0);
},
{
name = center;
pos = (514,352);
},
{
name = top;
pos = (1028,1408);
}
);
layerId = m01;
shapes = (
{
closed = 1;
nodes = (
(1453,0,ls),
(1789,0,o),
(1936,113,o),
(1936,373,cs),
(1936,403,ls),
(1936,574,o),
(1861,666,o),
(1690,705,c),
(1820,749,o),
(1877,840,o),
(1877,1005,cs),
(1877,1035,ls),
(1877,1295,o),
(1730,1408,o),
(1393,1408,cs),
(254,1408,ls),
(206,1408,o),
(180,1382,o),
(180,1334,cs),
(180,74,ls),
(180,26,o),
(206,0,o),
(254,0,cs)
);
},
{
closed = 1;
nodes = (
(356,632,l),
(1442,632,ls),
(1681,632,o),
(1760,574,o),
(1760,400,cs),
(1760,376,ls),
(1760,202,o),
(1681,144,o),
(1442,144,cs),
(356,144,l)
);
},
{
closed = 1;
nodes = (
(356,1264,l),
(1383,1264,ls),
(1622,1264,o),
(1701,1206,o),
(1701,1032,cs),
(1701,1008,ls),
(1701,834,o),
(1622,776,o),
(1383,776,cs),
(356,776,l)
);
}
);
width = 2056;
},
{
anchors = (
{
name = bottom;
pos = (1028,0);
},
{
name = center;
pos = (514,352);
},
{
name = top;
pos = (1028,1408);
}
);
layerId = m002;
shapes = (
{
closed = 1;
nodes = (
(1453,0,ls),
(1789,0,o),
(1936,113,o),
(1936,373,cs),
(1936,403,ls),
(1936,564,o),
(1844,656,o),
(1633,704,c),
(1802,761,o),
(1876,853,o),
(1876,1005,cs),
(1876,1035,ls),
(1876,1295,o),
(1729,1408,o),
(1393,1408,cs),
(254,1408,ls),
(206,1408,o),
(180,1382,o),
(180,1334,cs),
(180,73,ls),
(180,25,o),
(206,0,o),
(254,0,cs)
);
},
{
closed = 1;
nodes = (
(576,542,l),
(1222,542,ls),
(1461,542,o),
(1540,518,o),
(1540,444,cs),
(1540,422,ls),
(1540,349,o),
(1461,324,o),
(1222,324,cs),
(576,324,l)
);
},
{
closed = 1;
nodes = (
(576,1084,l),
(1162,1084,ls),
(1401,1084,o),
(1480,1060,o),
(1480,986,cs),
(1480,964,ls),
(1480,891,o),
(1401,866,o),
(1162,866,cs),
(576,866,l)
);
}
);
width = 2056;
}
);
unicode = 66;
},
{
glyphname = C;
kernLeft = O;
kernRight = O;
lastChange = "2025-03-06 02:03:34 +0000";
layers = (
{
anchors = (
{
name = bottom;
pos = (997,0);
},
{
name = top;
pos = (997,1408);
}
);
layerId = m01;
shapes = (
{
closed = 1;
nodes = (
(1150,-30,ls),
(1575,-30,o),
(1789,98,o),
(1851,392,cs),
(1861,441,o),
(1827,469,o),
(1779,469,cs),
(1747,469,ls),
(1699,469,o),
(1684,443,o),
(1670,396,cs),
(1607,185,o),
(1473,114,o),
(1131,114,cs),
(865,114,ls),
(438,114,o),
(296,257,o),
(296,686,cs),
(296,722,ls),
(296,1151,o),
(438,1294,o),
(865,1294,cs),
(1131,1294,ls),
(1473,1294,o),
(1608,1224,o),
(1670,1012,cs),
(1684,965,o),
(1699,939,o),
(1747,939,cs),
(1779,939,ls),
(1827,939,o),
(1862,965,o),
(1851,1016,cs),
(1788,1310,o),
(1575,1438,o),
(1150,1438,cs),
(846,1438,ls),
(341,1438,o),
(120,1222,o),
(120,727,cs),
(120,681,ls),
(120,186,o),
(341,-30,o),
(846,-30,cs)
);
}
);
width = 1973;
},
{
anchors = (
{
name = bottom;
pos = (998,0);
},
{
name = top;
pos = (998,1459);
}
);
layerId = m002;
shapes = (
{
closed = 1;
nodes = (
(1150,-30,ls),
(1616,-30,o),
(1831,130,o),
(1858,496,cs),
(1862,545,o),
(1834,572,o),
(1786,572,cs),
(1538,572,ls),
(1491,572,o),
(1469,547,o),
(1462,500,cs),
(1440,346,o),
(1357,294,o),
(1131,294,cs),
(865,294,ls),
(603,294,o),
(516,392,o),
(516,686,cs),
(516,722,ls),
(516,1016,o),
(603,1114,o),
(865,1114,cs),
(1131,1114,ls),
(1357,1114,o),
(1440,1062,o),
(1462,907,cs),
(1469,861,o),
(1491,836,o),
(1538,836,cs),
(1786,836,ls),
(1834,836,o),
(1862,863,o),
(1858,911,cs),
(1831,1278,o),
(1616,1438,o),
(1150,1438,cs),
(846,1438,ls),
(341,1438,o),
(120,1221,o),
(120,726,cs),
(120,681,ls),
(120,186,o),
(341,-30,o),
(846,-30,cs)
);
}
);
width = 1978;
}
);
unicode = 67;
},
{
glyphname = D;
kernLeft = H;
kernRight = O;
lastChange = "2025-03-12 15:54:03 +0000";
layers = (
{
anchors = (
{
name = bottom;
pos = (1028,0);
},
{
name = center;
pos = (356,704);
},
{
name = top;
pos = (1028,1408);
}
);
layerId = m01;
shapes = (
{
closed = 1;
nodes = (
(180,74,ls),
(180,26,o),
(206,0,o),
(254,0,cs),
(1229,0,ls),
(1721,0,o),
(1936,185,o),
(1936,608,cs),
(1936,799,ls),
(1936,1223,o),
(1721,1408,o),
(1229,1408,cs),
(254,1408,ls),
(206,1408,o),
(180,1382,o),
(180,1334,cs)
);
},
{
closed = 1;
nodes = (
(1216,1264,ls),
(1623,1264,o),
(1758,1147,o),
(1758,797,cs),
(1758,611,ls),
(1758,261,o),
(1623,144,o),
(1216,144,cs),
(358,144,l),
(358,1264,l)
);
}
);
width = 2056;
},
{
anchors = (
{
name = bottom;
pos = (1028,0);
},
{
name = center;
pos = (378,704);
},
{
name = top;
pos = (1028,1408);
}
);
layerId = m002;
shapes = (
{
closed = 1;
nodes = (
(180,73,ls),
(180,25,o),
(206,0,o),
(254,0,cs),
(1229,0,ls),
(1721,0,o),
(1936,185,o),
(1936,608,cs),
(1936,799,ls),
(1936,1223,o),
(1721,1408,o),
(1229,1408,cs),
(254,1408,ls),
(206,1408,o),
(180,1382,o),
(180,1334,cs)
);
},
{
closed = 1;
nodes = (
(1216,1084,ls),
(1459,1084,o),
(1540,1012,o),
(1540,796,cs),
(1540,611,ls),
(1540,396,o),
(1459,324,o),
(1216,324,cs),
(576,324,l),
(576,1084,l)
);
}
);
width = 2056;
}
);
unicode = 68;
},
{
glyphname = E;
kernLeft = H;
kernRight = Z;
lastChange = "2025-03-12 16:25:39 +0000";
layers = (
{
anchors = (
{
name = bottom;
pos = (900,0);
},
{
name = ogonek;
pos = (1512,10);
},
{
name = top;
pos = (900,1408);
},
{
name = topleft;
pos = (20,1408);
}
);
layerId = m01;
shapes = (
{
closed = 1;
nodes = (
(1553,0,ls),
(1594,0,o),
(1620,23,o),
(1620,64,cs),
(1620,80,ls),
(1620,121,o),
(1594,144,o),
(1553,144,cs),
(358,144,l),
(358,632,l),
(1378,632,ls),
(1419,632,o),
(1445,655,o),
(1445,696,cs),
(1445,712,ls),
(1445,753,o),
(1419,776,o),
(1378,776,cs),
(358,776,l),
(358,1264,l),
(1553,1264,ls),
(1594,1264,o),
(1620,1287,o),
(1620,1328,cs),
(1620,1344,ls),
(1620,1385,o),
(1594,1408,o),
(1553,1408,cs),
(254,1408,ls),
(206,1408,o),
(180,1382,o),
(180,1337,cs),
(180,74,ls),
(180,26,o),
(206,0,o),
(254,0,cs)
);
}
);
width = 1680;
},
{
anchors = (
{
name = bottom;
pos = (900,0);
},
{
name = ogonek;
pos = (1512,10);
},
{
name = top;
pos = (900,1408);
},
{
name = topleft;
pos = (20,1408);
}
);
layerId = m002;
shapes = (
{
closed = 1;
nodes = (
(1553,0,ls),
(1594,0,o),
(1620,25,o),
(1620,66,cs),
(1620,264,ls),
(1620,304,o),
(1594,324,o),
(1553,324,cs),
(576,324,l),
(576,542,l),
(1377,542,ls),
(1418,542,o),
(1444,567,o),
(1444,608,cs),
(1444,800,ls),
(1444,840,o),
(1418,866,o),
(1377,866,cs),
(576,866,l),
(576,1084,l),
(1553,1084,ls),
(1594,1084,o),
(1620,1109,o),
(1620,1150,cs),
(1620,1342,ls),
(1620,1382,o),
(1594,1408,o),
(1553,1408,cs),
(255,1408,ls),
(206,1408,o),
(180,1382,o),
(180,1334,cs),
(180,73,ls),
(180,25,o),
(206,0,o),
(255,0,cs)
);
}
);
width = 1680;
}
);
unicode = 69;
},
{
glyphname = Schwa;
kernLeft = O;
kernRight = O;
lastChange = "2025-03-12 16:24:31 +0000";
layers = (
{
anchors = (
{
name = bottom;
pos = (1026,0);
},
{
name = top;
pos = (1026,1438);
}
);
layerId = m01;
shapes = (
{
closed = 1;
nodes = (
(1178,-30,ls),
(1684,-30,o),
(1905,186,o),
(1905,681,cs),
(1905,727,ls),
(1905,1222,o),
(1684,1438,o),
(1178,1438,cs),
(874,1438,ls),
(449,1438,o),
(236,1310,o),
(173,1016,cs),
(162,966,o),
(196,939,o),
(245,939,cs),
(277,939,ls),
(325,939,o),
(340,965,o),
(354,1012,cs),
(416,1224,o),
(551,1294,o),
(893,1294,cs),
(1159,1294,ls),
(1587,1294,o),
(1729,1147,o),
(1729,704,c),
(225,704,ls),
(176,704,o),
(148,677,o),
(150,626,cs),
(164,170,o),
(385,-30,o),
(874,-30,cs)
);
},
{
closed = 1;
nodes = (
(499,114,o),
(359,226,o),
(330,560,c),
(1724,560,l),
(1696,229,o),
(1542,114,o),
(1159,114,cs),
(893,114,ls)
);
}
);
width = 2025;
},
{
anchors = (
{
name = bottom;
pos = (1031,0);
},
{
name = top;
pos = (1030,1438);
}
);
layerId = m002;
shapes = (
{
closed = 1;
nodes = (
(1183,-30,ls),
(1687,-30,o),
(1908,187,o),
(1908,682,cs),
(1908,726,ls),
(1908,1221,o),
(1687,1438,o),
(1183,1438,cs),
(877,1438,ls),
(474,1438,o),
(229,1323,o),
(166,1029,cs),
(154,973,o),
(177,939,o),
(234,939,cs),
(487,939,ls),
(531,939,o),
(568,952,o),
(583,995,cs),
(614,1084,o),
(683,1114,o),
(897,1114,cs),
(1163,1114,ls),
(1397,1114,o),
(1491,1037,o),
(1509,811,c),
(236,811,ls),
(186,811,o),
(156,786,o),
(154,738,cs),
(119,197,o),
(316,-30,o),
(877,-30,cs)
);
},
{
closed = 1;
nodes = (
(683,294,o),
(586,318,o),
(557,487,c),
(1491,487,l),
(1452,347,o),
(1353,294,o),
(1163,294,cs),
(897,294,ls)
);
}
);
width = 2028;
}
);
unicode = 399;
},
{
glyphname = F;
kernLeft = H;
kernRight = V;
lastChange = "2025-03-06 02:06:32 +0000";
layers = (
{
anchors = (
{
name = bottom;
pos = (768,0);
},
{
name = top;
pos = (768,1408);
}
);
layerId = m01;
shapes = (
{
closed = 1;
nodes = (
(120,74,ls),
(120,26,o),
(146,0,o),
(194,0,cs),
(224,0,ls),
(272,0,o),
(298,26,o),
(298,74,cs),
(298,632,l),
(1238,632,ls),
(1279,632,o),
(1305,655,o),
(1305,696,cs),
(1305,712,ls),
(1305,753,o),
(1279,776,o),
(1238,776,cs),
(298,776,l),
(298,1264,l),
(1405,1264,ls),
(1453,1264,o),
(1480,1287,o),
(1480,1328,cs),
(1480,1344,ls),
(1480,1385,o),
(1453,1408,o),
(1405,1408,cs),
(194,1408,ls),
(146,1408,o),
(120,1382,o),
(120,1334,cs)
);
}
);
width = 1564;
},
{
anchors = (
{
name = bottom;
pos = (782,0);
},
{
name = top;
pos = (782,1408);
}
);
layerId = m002;
shapes = (
{
closed = 1;
nodes = (
(120,73,ls),
(120,25,o),
(146,0,o),
(194,0,cs),
(441,0,ls),
(490,0,o),
(516,25,o),
(516,73,cs),
(516,542,l),
(1238,542,ls),
(1279,542,o),
(1305,567,o),
(1305,608,cs),
(1305,800,ls),
(1305,840,o),
(1279,866,o),
(1238,866,cs),
(516,866,l),
(516,1084,l),
(1405,1084,ls),
(1453,1084,o),
(1480,1109,o),
(1480,1150,cs),
(1480,1342,ls),
(1480,1382,o),
(1453,1408,o),
(1405,1408,cs),
(194,1408,ls),
(146,1408,o),
(120,1382,o),
(120,1334,cs)
);
}
);
width = 1564;
}
);
unicode = 70;
},
{
glyphname = G;
kernLeft = O;
kernRight = O;
lastChange = "2025-03-12 16:23:54 +0000";
layers = (
{
anchors = (
{
name = bottom;
pos = (1012,0);
},
{
name = top;
pos = (1012,1408);
}
);
layerId = m01;
shapes = (
{
closed = 1;
nodes = (
(1151,-30,ls),
(1639,-30,o),
(1860,170,o),
(1874,626,cs),
(1876,677,o),
(1848,704,o),
(1799,704,cs),
(1066,704,ls),
(1025,704,o),
(999,681,o),
(999,640,cs),
(999,624,ls),
(999,583,o),
(1025,560,o),
(1066,560,cs),
(1694,560,l),
(1665,226,o),
(1525,114,o),
(1132,114,cs),
(866,114,ls),
(439,114,o),
(296,257,o),
(296,686,cs),
(296,722,ls),
(296,1151,o),
(439,1294,o),
(866,1294,cs),
(1132,1294,ls),
(1473,1294,o),
(1608,1224,o),
(1670,1012,cs),
(1684,965,o),
(1699,939,o),
(1747,939,cs),
(1779,939,ls),
(1828,939,o),
(1862,966,o),
(1851,1016,cs),
(1788,1310,o),
(1575,1438,o),
(1151,1438,cs),
(847,1438,ls),
(341,1438,o),
(120,1222,o),
(120,727,cs),
(120,681,ls),
(120,186,o),
(341,-30,o),
(847,-30,cs)
);
}
);
width = 2024;
},
{
anchors = (
{
name = bottom;
pos = (998,0);
},
{
name = top;
pos = (998,1438);
}
);
layerId = m002;
shapes = (
{
closed = 1;
nodes = (
(1151,-30,ls),
(1712,-30,o),
(1909,197,o),
(1874,738,cs),
(1872,786,o),
(1842,811,o),
(1792,811,cs),
(1078,811,ls),
(1026,811,o),
(998,783,o),
(998,731,cs),
(998,567,ls),
(998,515,o),
(1026,487,o),
(1078,487,cs),
(1471,487,l),
(1442,318,o),
(1345,294,o),
(1131,294,cs),
(865,294,ls),
(603,294,o),
(516,392,o),
(516,686,cs),
(516,722,ls),
(516,1016,o),
(603,1114,o),
(865,1114,cs),
(1131,1114,ls),
(1345,1114,o),
(1414,1084,o),
(1445,995,cs),
(1460,952,o),
(1497,939,o),
(1541,939,cs),
(1794,939,ls),
(1851,939,o),
(1874,973,o),
(1862,1029,cs),
(1799,1323,o),
(1554,1438,o),
(1151,1438,cs),
(845,1438,ls),
(341,1438,o),
(120,1221,o),
(120,726,cs),
(120,682,ls),
(120,187,o),
(341,-30,o),
(845,-30,cs)
);
}
);
width = 2028;
}
);
unicode = 71;
},
{
glyphname = H;
kernLeft = H;
kernRight = H;
lastChange = "2025-03-06 02:15:15 +0000";
layers = (
{
anchors = (
{
name = bottom;
pos = (1028,0);
},
{
name = center;
pos = (1028,1072);
},
{
name = top;
pos = (1028,1408);
},
{
name = topleft;
pos = (20,1408);
}
);
layerId = m01;
shapes = (
{
closed = 1;
nodes = (
(180,74,ls),
(180,26,o),
(206,0,o),
(254,0,cs),
(282,0,ls),
(330,0,o),
(356,26,o),
(356,74,cs),
(356,632,l),
(1700,632,l),
(1700,74,ls),
(1700,26,o),
(1726,0,o),
(1774,0,cs),
(1802,0,ls),
(1850,0,o),
(1876,26,o),
(1876,74,cs),
(1876,1334,ls),
(1876,1382,o),
(1850,1408,o),
(1802,1408,cs),
(1774,1408,ls),
(1726,1408,o),
(1700,1382,o),
(1700,1334,cs),
(1700,776,l),
(356,776,l),
(356,1334,ls),
(356,1382,o),
(330,1408,o),
(282,1408,cs),
(254,1408,ls),
(206,1408,o),
(180,1382,o),
(180,1334,cs)
);
}
);
width = 2056;
},
{
anchors = (
{
name = bottom;
pos = (1028,0);
},
{
name = center;
pos = (1028,1118);
},
{
name = top;
pos = (1028,1408);
},
{
name = topleft;
pos = (20,1408);
}
);
layerId = m002;
shapes = (
{
closed = 1;
nodes = (
(179,73,ls),
(179,25,o),
(205,0,o),
(253,0,cs),
(500,0,ls),
(549,0,o),
(575,25,o),
(575,73,cs),
(575,539,l),
(1479,539,l),
(1479,73,ls),
(1479,25,o),
(1505,0,o),
(1553,0,cs),
(1800,0,ls),
(1849,0,o),
(1875,25,o),
(1875,73,cs),
(1875,1334,ls),
(1875,1382,o),
(1849,1408,o),
(1800,1408,cs),
(1553,1408,ls),
(1505,1408,o),
(1479,1382,o),
(1479,1334,cs),
(1479,869,l),
(575,869,l),
(575,1334,ls),
(575,1382,o),
(549,1408,o),
(500,1408,cs),
(253,1408,ls),
(205,1408,o),
(179,1382,o),
(179,1334,cs)
);
}
);
width = 2055;
}
);
unicode = 72;
},
{
glyphname = J;
kernLeft = O;
kernRight = O;
lastChange = "2025-03-12 13:10:38 +0000";
layers = (
{
anchors = (
{
name = bottom;
pos = (855,0);
},
{
name = top;
pos = (855,1408);
}
);
layerId = m01;
shapes = (
{
closed = 1;
nodes = (
(867,-30,ls),
(1344,-30,o),
(1553,186,o),
(1553,681,cs),
(1553,1328,ls),
(1553,1380,o),
(1525,1408,o),
(1473,1408,cs),
(1457,1408,ls),
(1405,1408,o),
(1377,1380,o),
(1377,1328,cs),
(1377,686,ls),
(1377,257,o),
(1245,114,o),
(848,114,cs),
(811,114,ls),
(475,114,o),
(347,201,o),
(300,460,cs),
(290,510,o),
(263,536,o),
(214,536,cs),
(196,536,ls),
(142,536,o),
(113,505,o),
(121,450,cs),
(171,116,o),
(375,-30,o),
(792,-30,cs)
);
}
);
width = 1721;
},
{
anchors = (
{
name = bottom;
pos = (833,0);
},
{
name = top;
pos = (1358,1408);
}
);
layerId = m002;
shapes = (
{
closed = 1;
nodes = (
(881,-30,ls),
(1351,-30,o),
(1556,193,o),
(1556,704,cs),
(1556,1333,ls),
(1556,1381,o),
(1529,1408,o),
(1481,1408,cs),
(1235,1408,ls),
(1188,1408,o),
(1160,1380,o),
(1160,1333,cs),
(1160,704,ls),
(1160,397,o),
(1086,294,o),
(862,294,cs),
(811,294,ls),
(612,294,o),
(538,336,o),
(516,461,cs),
(508,509,o),
(488,536,o),
(441,536,cs),
(193,536,ls),
(144,536,o),
(116,509,o),
(120,459,cs),
(143,119,o),
(347,-30,o),
(792,-30,cs)
);
}
);
width = 1724;
}
);
unicode = 74;
},
{
glyphname = K;
kernLeft = H;
kernRight = Z;
lastChange = "2025-03-06 02:24:44 +0000";
layers = (
{
anchors = (
{
name = bottom;
pos = (920,0);
},
{
name = top;
pos = (920,1408);
}
);
layerId = m01;
shapes = (
{
closed = 1;
nodes = (
(1744,0,ls),
(1817,0,o),
(1833,49,o),
(1772,90,cs),
(843,704,l),
(1734,1317,ls),
(1790,1355,o),
(1774,1408,o),
(1703,1408,cs),
(1631,1408,ls),
(1594,1408,o),
(1568,1397,o),
(1539,1377,cs),
(666,776,l),
(356,776,l),
(356,1334,ls),
(356,1382,o),
(330,1408,o),
(282,1408,cs),
(254,1408,ls),
(206,1408,o),
(180,1382,o),
(180,1334,cs),
(180,74,ls),
(180,26,o),
(206,0,o),
(254,0,cs),
(282,0,ls),
(330,0,o),
(356,26,o),
(356,74,cs),
(356,632,l),
(662,632,l),
(1576,28,ls),
(1606,8,o),
(1632,0,o),
(1668,0,cs)
);
}
);
width = 1870;
},
{
anchors = (
{
name = bottom;
pos = (935,0);
},
{
name = top;
pos = (935,1408);
}
);
layerId = m002;
shapes = (
{
closed = 1;
nodes = (
(1748,0,ls),
(1820,0,o),
(1829,37,o),
(1776,88,cs),
(1129,704,l),
(1725,1318,ls),
(1774,1368,o),
(1765,1408,o),
(1695,1408,cs),
(1373,1408,ls),
(1337,1408,o),
(1307,1404,o),
(1281,1377,cs),
(785,866,l),
(576,866,l),
(576,1334,ls),
(576,1382,o),
(550,1408,o),
(501,1408,cs),
(254,1408,ls),
(206,1408,o),
(180,1382,o),
(180,1334,cs),
(180,73,ls),
(180,25,o),
(206,0,o),
(254,0,cs),
(501,0,ls),
(550,0,o),
(576,25,o),
(576,73,cs),
(576,542,l),
(776,542,l),
(1318,27,ls),
(1344,2,o),
(1374,0,o),
(1410,0,cs)
);
}
);
width = 1870;
}
);
unicode = 75;
},
{
glyphname = L;
kernLeft = H;
kernRight = A;
lastChange = "2025-03-12 15:53:37 +0000";
layers = (
{
anchors = (
{
name = bottom;
pos = (840,0);
},
{
name = center;
pos = (356,704);
},
{
name = top;
pos = (354,1408);
},
{
name = topright;
pos = (1203,1408);
}
);
layerId = m01;
shapes = (
{
closed = 1;
nodes = (
(1433,0,ls),
(1474,0,o),
(1500,23,o),
(1500,64,cs),
(1500,80,ls),
(1500,121,o),
(1474,144,o),
(1433,144,cs),
(356,144,l),
(356,1334,ls),
(356,1382,o),
(330,1408,o),
(282,1408,cs),
(254,1408,ls),
(206,1408,o),
(180,1382,o),
(180,1334,cs),
(180,74,ls),
(180,26,o),
(206,0,o),
(254,0,cs)
);
}
);
width = 1560;
},
{
anchors = (
{
name = bottom;
pos = (840,0);
},
{
name = center;
pos = (378,704);
},
{
name = top;
pos = (576,1408);
},
{
name = topright;
pos = (1072,1408);
}
);
layerId = m002;
shapes = (
{
closed = 1;
nodes = (
(1433,0,ls),
(1474,0,o),
(1500,26,o),
(1500,67,cs),
(1500,257,ls),
(1500,298,o),
(1474,324,o),
(1433,324,cs),
(576,324,l),
(576,1334,ls),
(576,1382,o),
(550,1408,o),
(501,1408,cs),
(254,1408,ls),
(206,1408,o),
(180,1382,o),
(180,1334,cs),
(180,74,ls),
(180,26,o),
(206,0,o),
(254,0,cs)
);
}
);
width = 1560;
}
);
unicode = 76;
},
{
glyphname = M;
kernLeft = H;
kernRight = H;
lastChange = "2025-03-12 22:21:10 +0000";
layers = (
{
anchors = (
{
name = bottom;
pos = (1266,0);
},
{
name = top;
pos = (1266,1408);
}
);
layerId = m01;
shapes = (
{
closed = 1;
nodes = (
(180,74,ls),
(180,26,o),
(206,0,o),
(254,0,cs),
(282,0,ls),
(330,0,o),
(356,26,o),
(356,74,cs),
(356,1264,l),
(396,1264,l),
(1139,50,ls),
(1161,15,o),
(1189,0,o),
(1229,0,cs),
(1303,0,ls),
(1343,0,o),
(1371,15,o),
(1393,50,cs),
(2136,1264,l),
(2176,1264,l),
(2176,74,ls),
(2176,26,o),
(2202,0,o),
(2250,0,cs),
(2278,0,ls),
(2326,0,o),
(2352,26,o),
(2352,74,cs),
(2352,1334,ls),
(2352,1382,o),
(2326,1408,o),
(2278,1408,cs),
(2095,1408,ls),
(2055,1408,o),
(2027,1392,o),
(2006,1358,cs),
(1266,149,l),
(526,1358,ls),
(505,1392,o),
(477,1408,o),
(437,1408,cs),
(254,1408,ls),
(206,1408,o),
(180,1382,o),
(180,1334,cs)
);
}
);
width = 2532;
},
{
anchors = (
{
name = bottom;
pos = (1266,0);
},
{
name = top;
pos = (1266,1429);
}
);
layerId = m002;
shapes = (
{
closed = 1;
nodes = (
(180,73,ls),
(180,25,o),
(206,0,o),
(254,0,cs),
(501,0,ls),
(550,0,o),
(576,25,o),
(576,73,cs),
(576,1084,l),
(580,1084,l),
(965,50,ls),
(978,14,o),
(1014,0,o),
(1054,0,cs),
(1478,0,ls),
(1518,0,o),
(1554,14,o),
(1567,50,cs),
(1952,1084,l),
(1956,1084,l),
(1956,73,ls),
(1956,25,o),
(1982,0,o),
(2031,0,cs),
(2278,0,ls),
(2326,0,o),
(2352,25,o),
(2352,73,cs),
(2352,1334,ls),
(2352,1382,o),
(2326,1408,o),
(2278,1408,cs),
(1740,1408,ls),
(1700,1408,o),
(1665,1396,o),
(1651,1358,cs),
(1266,324,l),
(881,1358,ls),
(867,1396,o),
(832,1408,o),
(792,1408,cs),
(254,1408,ls),
(206,1408,o),
(180,1382,o),
(180,1334,cs)
);
}
);
width = 2532;
}
);
unicode = 77;
},
{
glyphname = N;
kernLeft = H;
kernRight = H;
lastChange = "2025-03-06 02:34:12 +0000";
layers = (
{
anchors = (
{
name = bottom;
pos = (1016,0);
},
{
name = top;
pos = (1016,1408);
}
);
layerId = m01;
shapes = (
{
closed = 1;
nodes = (
(252,0,ls),
(300,0,o),
(326,26,o),
(326,74,cs),
(326,1264,l),
(366,1264,l),
(1546,38,ls),
(1572,11,o),
(1600,0,o),
(1638,0,cs),
(1808,0,ls),
(1856,0,o),
(1882,26,o),
(1882,74,cs),
(1882,1334,ls),
(1882,1382,o),
(1856,1408,o),
(1808,1408,cs),
(1780,1408,ls),
(1731,1408,o),
(1706,1382,o),
(1706,1334,cs),
(1706,144,l),
(1666,144,l),
(486,1370,ls),
(460,1397,o),
(432,1408,o),
(394,1408,cs),
(224,1408,ls),
(176,1408,o),
(150,1382,o),
(150,1334,cs),
(150,74,ls),
(150,26,o),
(176,0,o),
(224,0,cs)
);
}
);
width = 2032;
},
{
anchors = (
{
name = bottom;
pos = (1016,0);
},
{
name = top;
pos = (1016,1408);
}
);
layerId = m002;
shapes = (
{
closed = 1;
nodes = (
(471,0,ls),
(520,0,o),
(546,25,o),
(546,72,cs),
(546,1084,l),
(574,1084,l),
(1165,38,ls),
(1183,6,o),
(1219,0,o),
(1257,0,cs),
(1808,0,ls),
(1856,0,o),
(1882,25,o),
(1882,72,cs),
(1882,1335,ls),
(1882,1382,o),
(1856,1408,o),
(1808,1408,cs),
(1560,1408,ls),
(1512,1408,o),
(1486,1382,o),
(1486,1335,cs),
(1486,324,l),
(1458,324,l),
(867,1370,ls),
(848,1403,o),
(813,1408,o),
(775,1408,cs),
(224,1408,ls),
(176,1408,o),
(150,1382,o),
(150,1335,cs),
(150,72,ls),
(150,25,o),
(176,0,o),
(224,0,cs)
);
}
);
width = 2032;
}
);
unicode = 78;
},
{
glyphname = O;
kernLeft = O;
kernRight = O;
lastChange = "2025-03-12 13:12:28 +0000";
layers = (
{
anchors = (
{
name = bottom;
pos = (998,0);
},
{
name = center;
pos = (998,704);
},
{
name = ogonek;
pos = (1480,10);
},
{
name = top;
pos = (998,1408);
},
{
name = topleft;
pos = (120,1408);
},
{
name = topright;
pos = (1700,1408);
}
);
layerId = m01;
shapes = (
{
closed = 1;
nodes = (
(120,682,ls),
(120,187,o),
(341,-30,o),
(845,-30,cs),
(1151,-30,ls),
(1655,-30,o),
(1876,187,o),
(1876,682,cs),
(1876,726,ls),
(1876,1221,o),
(1655,1438,o),
(1151,1438,cs),
(845,1438,ls),
(341,1438,o),
(120,1221,o),
(120,726,cs)
);
},
{
closed = 1;
nodes = (
(296,1151,o),
(438,1294,o),
(865,1294,cs),
(1131,1294,ls),
(1558,1294,o),
(1700,1151,o),
(1700,722,cs),
(1700,686,ls),
(1700,257,o),
(1558,114,o),
(1131,114,cs),
(865,114,ls),
(438,114,o),
(296,257,o),
(296,686,cs),
(296,722,ls)
);
}
);
width = 1996;
},
{
anchors = (
{
name = bottom;
pos = (998,0);
},
{
name = center;
pos = (998,704);
},
{
name = ogonek;
pos = (1480,10);
},
{
name = top;
pos = (998,1438);
},
{
name = topleft;
pos = (120,1408);
},
{
name = topright;
pos = (1700,1408);
}
);
layerId = m002;
shapes = (
{
closed = 1;
nodes = (
(120,682,ls),
(120,187,o),
(341,-30,o),
(845,-30,cs),
(1151,-30,ls),
(1655,-30,o),
(1876,187,o),
(1876,682,cs),
(1876,726,ls),
(1876,1221,o),
(1655,1438,o),
(1151,1438,cs),
(845,1438,ls),
(341,1438,o),
(120,1221,o),
(120,726,cs)
);
},
{
closed = 1;
nodes = (
(516,1016,o),
(603,1114,o),
(865,1114,cs),
(1131,1114,ls),
(1393,1114,o),
(1480,1016,o),
(1480,722,cs),
(1480,686,ls),
(1480,392,o),
(1393,294,o),
(1131,294,cs),
(865,294,ls),
(603,294,o),
(516,392,o),
(516,686,cs),
(516,722,ls)
);
}
);
width = 1996;
}
);
unicode = 79;
},
{
glyphname = OE;
kernLeft = O;
kernRight = Z;
lastChange = "2025-03-12 13:23:55 +0000";
layers = (
{
anchors = (
{
name = bottom;
pos = (1221,0);
},
{
name = top;
pos = (1221,1408);
}
);
layerId = m01;
shapes = (
{
closed = 1;
nodes = (
(120,682,ls),
(120,187,o),
(284,-30,o),
(660,-30,cs),
(890,-30,ls),
(1265,-30,o),
(1429,187,o),
(1429,682,cs),
(1429,726,ls),
(1429,1221,o),
(1265,1438,o),
(890,1438,cs),
(660,1438,ls),
(284,1438,o),
(120,1221,o),
(120,726,cs)
);
},
{
closed = 1;
nodes = (
(296,1151,o),
(391,1294,o),
(676,1294,cs),
(872,1294,ls),
(1158,1294,o),
(1253,1151,o),
(1253,722,cs),
(1253,686,ls),
(1253,257,o),
(1158,114,o),
(872,114,cs),
(676,114,ls),
(391,114,o),
(296,257,o),
(296,686,cs),
(296,722,ls)
);
},
{
closed = 1;
nodes = (
(2315,0,ls),
(2356,0,o),
(2382,23,o),
(2382,64,cs),
(2382,80,ls),
(2382,121,o),
(2356,144,o),
(2315,144,cs),
(1429,144,l),
(1429,632,l),
(2140,632,ls),
(2181,632,o),
(2207,655,o),
(2207,696,cs),
(2207,712,ls),
(2207,753,o),
(2181,776,o),
(2140,776,cs),
(1429,776,l),
(1429,1264,l),
(2315,1264,ls),
(2356,1264,o),
(2382,1287,o),
(2382,1328,cs),
(2382,1344,ls),
(2382,1385,o),
(2356,1408,o),
(2315,1408,cs),
(1327,1408,ls),
(1279,1408,o),
(1253,1382,o),
(1253,1334,cs),
(1253,74,ls),
(1253,26,o),
(1279,0,o),
(1327,0,cs)
);
}
);
width = 2442;
},
{
anchors = (
{
name = bottom;
pos = (1232,0);
},
{
name = top;
pos = (1232,1438);
}
);
layerId = m002;
shapes = (
{
closed = 1;
nodes = (
(120,692,ls),
(120,190,o),
(267,-30,o),
(604,-30,cs),
(946,-30,ls),
(1283,-30,o),
(1430,190,o),
(1430,692,cs),
(1430,737,ls),
(1430,1225,o),
(1283,1438,o),
(946,1438,cs),
(604,1438,ls),
(267,1438,o),
(120,1225,o),
(120,737,cs)
);
},
{
closed = 1;
nodes = (
(516,1019,o),
(552,1114,o),
(660,1114,cs),
(889,1114,ls),
(998,1114,o),
(1034,1019,o),
(1034,733,cs),
(1034,697,ls),
(1034,395,o),
(998,294,o),
(889,294,cs),
(660,294,ls),
(552,294,o),
(516,395,o),
(516,697,cs),
(516,733,ls)
);
},
{
closed = 1;
nodes = (
(2320,0,ls),
(2361,0,o),
(2387,26,o),
(2387,67,cs),
(2387,257,ls),
(2387,298,o),
(2361,324,o),
(2320,324,cs),
(1628,324,l),
(1628,542,l),
(2145,542,ls),
(2186,542,o),
(2212,573,o),
(2212,614,cs),
(2212,815,ls),
(2212,856,o),
(2186,866,o),
(2145,866,cs),
(1628,866,l),
(1628,1084,l),
(2320,1084,ls),
(2361,1084,o),
(2387,1110,o),
(2387,1151,cs),
(2387,1362,ls),
(2387,1403,o),
(2361,1408,o),
(2320,1408,cs),
(1299,1408,ls),
(1258,1408,o),
(1232,1382,o),
(1232,1341,cs),
(1232,67,ls),
(1232,27,o),
(1258,0,o),
(1299,0,cs)
);
}
);
width = 2447;
}
);
unicode = 338;
},
{
glyphname = P;
kernLeft = H;
kernRight = O;
lastChange = "2025-03-12 13:12:54 +0000";
layers = (
{
anchors = (
{
name = bottom;
pos = (928,0);
},
{
name = top;
pos = (928,1408);
}
);
layerId = m01;
shapes = (
{
closed = 1;
nodes = (
(282,0,ls),
(330,0,o),
(356,26,o),
(356,74,cs),
(356,536,l),
(1304,536,ls),
(1641,536,o),
(1788,664,o),
(1788,957,cs),
(1788,987,ls),
(1788,1280,o),
(1641,1408,o),
(1304,1408,cs),
(254,1408,ls),
(206,1408,o),
(180,1382,o),
(180,1334,cs),
(180,74,ls),
(180,26,o),
(206,0,o),
(254,0,cs)
);
},
{
closed = 1;
nodes = (
(356,1264,l),
(1281,1264,ls),
(1529,1264,o),
(1612,1194,o),
(1612,985,cs),
(1612,959,ls),
(1612,750,o),
(1529,680,o),
(1281,680,cs),
(356,680,l)
);
}
);
width = 1856;
},
{
anchors = (
{
name = bottom;
pos = (928,0);
},
{
name = top;
pos = (928,1408);
}
);
layerId = m002;
shapes = (
{
closed = 1;
nodes = (
(501,0,ls),
(550,0,o),
(576,25,o),
(576,73,cs),
(576,436,l),
(1192,436,ls),
(1607,436,o),
(1788,582,o),
(1788,916,cs),
(1788,946,ls),
(1788,1267,o),
(1607,1408,o),
(1192,1408,cs),
(254,1408,ls),
(206,1408,o),
(180,1382,o),
(180,1334,cs),
(180,73,ls),
(180,25,o),
(206,0,o),
(254,0,cs)
);
},
{
closed = 1;
nodes = (
(576,1084,l),
(1067,1084,ls),
(1311,1084,o),
(1392,1047,o),
(1392,934,cs),
(1392,910,ls),
(1392,798,o),
(1311,760,o),
(1067,760,cs),
(576,760,l)
);
}
);
width = 1856;
}
);
unicode = 80;
},
{
glyphname = Thorn;
kernLeft = H;
kernRight = O;
lastChange = "2025-03-10 16:57:47 +0000";
layers = (
{
layerId = m01;
shapes = (
{
closed = 1;
nodes = (
(270,0,ls),
(318,0,o),
(344,26,o),
(344,74,cs),
(344,273,l),
(1304,273,ls),
(1641,273,o),
(1788,404,o),
(1788,705,cs),
(1788,725,ls),
(1788,1025,o),
(1641,1156,o),
(1304,1156,cs),
(344,1156,l),
(344,1355,ls),
(344,1403,o),
(318,1429,o),
(270,1429,cs),
(242,1429,ls),
(194,1429,o),
(168,1403,o),
(168,1355,cs),
(168,74,ls),
(168,26,o),
(194,0,o),
(242,0,cs)
);
},
{
closed = 1;
nodes = (
(344,1012,l),
(1294,1012,ls),
(1533,1012,o),
(1612,941,o),
(1612,727,cs),
(1612,703,ls),
(1612,489,o),
(1533,417,o),
(1294,417,cs),
(344,417,l)
);
}
);
width = 1872;
},
{
layerId = m002;
shapes = (
{
closed = 1;
nodes = (
(489,0,ls),
(538,0,o),
(564,25,o),
(564,72,cs),
(564,218,l),
(1304,218,ls),
(1641,218,o),
(1788,358,o),
(1788,678,cs),
(1788,708,ls),
(1788,1043,o),
(1641,1190,o),
(1304,1190,cs),
(564,1190,l),
(564,1335,ls),
(564,1382,o),
(538,1408,o),
(489,1408,cs),
(242,1408,ls),
(194,1408,o),
(168,1382,o),
(168,1335,cs),
(168,72,ls),
(168,25,o),
(194,0,o),
(242,0,cs)
);
},
{
closed = 1;
nodes = (
(564,866,l),
(1067,866,ls),
(1311,866,o),
(1392,826,o),
(1392,705,cs),
(1392,681,ls),
(1392,577,o),
(1311,542,o),
(1067,542,cs),
(564,542,l)
);
}
);
width = 1872;
}
);
unicode = 222;
},
{
glyphname = Q;
kernLeft = O;
kernRight = O;
lastChange = "2025-03-07 03:56:45 +0000";
layers = (
{
anchors = (
{
name = bottom;
pos = (975,0);
},
{
name = top;
pos = (975,1429);
}
);
layerId = m01;
shapes = (
{
ref = O;
},
{
closed = 1;
nodes = (
(1086,575,ls),
(1064,543,o),
(1069,514,o),
(1101,491,cs),
(1826,-16,ls),
(1858,-39,o),
(1887,-34,o),
(1910,-2,cs),
(1933,31,ls),
(1955,63,o),
(1950,92,o),
(1918,115,cs),
(1193,622,ls),
(1161,645,o),
(1132,640,o),
(1109,608,cs)
);
}
);
width = 1946;
},
{
anchors = (
{
name = bottom;
pos = (975,0);
},
{
name = top;
pos = (975,1429);
}
);
layerId = m002;
shapes = (
{
ref = O;
},
{
closed = 1;
nodes = (
(1041,539,ls),
(1011,497,o),
(1018,458,o),
(1060,428,cs),
(1752,-57,ls),
(1795,-87,o),
(1834,-80,o),
(1864,-37,cs),
(1978,127,ls),
(2008,169,o),
(2001,208,o),
(1959,238,cs),
(1267,723,ls),
(1224,753,o),
(1185,746,o),
(1155,703,cs)
);
}
);
width = 1996;
}
);
unicode = 81;
},
{
glyphname = R;
kernLeft = H;
kernRight = Z;
lastChange = "2025-03-12 13:14:18 +0000";
layers = (
{
anchors = (
{
name = bottom;
pos = (974,0);
},
{
name = top;
pos = (974,1408);
}
);
layerId = m01;
shapes = (
{
closed = 1;
nodes = (
(282,0,ls),
(330,0,o),
(356,26,o),
(356,74,cs),
(356,536,l),
(1200,536,l),
(1566,48,ls),
(1592,14,o),
(1620,0,o),
(1659,0,cs),
(1717,0,ls),
(1772,0,o),
(1787,41,o),
(1749,91,cs),
(1413,539,l),
(1674,572,o),
(1788,700,o),
(1788,957,cs),
(1788,987,ls),
(1788,1280,o),
(1641,1408,o),
(1304,1408,cs),
(254,1408,ls),
(206,1408,o),
(180,1382,o),
(180,1334,cs),
(180,74,ls),
(180,26,o),
(206,0,o),
(254,0,cs)
);
},
{
closed = 1;
nodes = (
(356,1264,l),
(1281,1264,ls),
(1529,1264,o),
(1612,1194,o),
(1612,985,cs),
(1612,959,ls),
(1612,750,o),
(1529,680,o),
(1281,680,cs),
(356,680,l)
);
}
);
width = 1948;
},
{
anchors = (
{
name = bottom;
pos = (974,0);
},
{
name = top;
pos = (974,1408);
}
);
layerId = m002;
shapes = (
{
closed = 1;
nodes = (
(501,0,ls),
(550,0,o),
(576,25,o),
(576,73,cs),
(576,436,l),
(974,436,l),
(1275,44,ls),
(1298,14,o),
(1326,0,o),
(1365,0,cs),
(1687,0,ls),
(1742,0,o),
(1751,39,o),
(1713,89,cs),
(1430,457,l),
(1669,512,o),
(1788,642,o),
(1788,907,cs),
(1788,936,ls),
(1788,1264,o),
(1607,1408,o),
(1194,1408,cs),
(254,1408,ls),
(206,1408,o),
(180,1382,o),
(180,1334,cs),
(180,73,ls),
(180,25,o),
(206,0,o),
(254,0,cs)
);
},
{
closed = 1;
nodes = (
(576,1084,l),
(1067,1084,ls),
(1311,1084,o),
(1392,1047,o),
(1392,934,cs),
(1392,910,ls),
(1392,798,o),
(1311,760,o),
(1067,760,cs),
(576,760,l)
);
}
);
width = 1948;
}
);
unicode = 82;
},
{
glyphname = S;
kernLeft = O;
kernRight = O;
lastChange = "2025-03-07 04:56:27 +0000";
layers = (
{
anchors = (
{
name = bottom;
pos = (996,-22);
},
{
name = top;
pos = (996,1452);
}
);
layerId = m01;
shapes = (
{
closed = 1;
nodes = (
(1140,-30,ls),
(1641,-30,o),
(1860,95,o),
(1860,382,cs),
(1860,423,ls),
(1860,562,o),
(1804,648,o),
(1675,705,cs),
(1576,750,o),
(1423,770,o),
(1140,774,cs),
(862,778,ls),
(439,784,o),
(298,841,o),
(298,1008,cs),
(298,1040,ls),
(298,1231,o),
(439,1294,o),
(862,1294,cs),
(1140,1294,ls),
(1482,1294,o),
(1617,1224,o),
(1679,1012,cs),
(1691,970,o),
(1709,939,o),
(1756,939,cs),
(1788,939,ls),
(1836,939,o),
(1871,965,o),
(1860,1016,cs),
(1797,1310,o),
(1584,1438,o),
(1160,1438,cs),
(842,1438,ls),
(341,1438,o),
(122,1313,o),
(122,1026,cs),
(122,985,ls),
(122,846,o),
(178,760,o),
(307,703,cs),
(406,658,o),
(571,638,o),
(842,634,cs),
(1120,630,ls),
(1543,624,o),
(1685,567,o),
(1685,400,cs),
(1685,368,ls),
(1685,178,o),
(1543,114,o),
(1120,114,cs),
(842,114,ls),
(500,114,o),
(365,185,o),
(303,396,cs),
(291,437,o),
(274,469,o),
(226,469,cs),
(194,469,ls),
(145,469,o),
(111,442,o),
(122,392,cs),
(185,98,o),
(397,-30,o),
(822,-30,cs)
);
}
);
width = 1982;
},
{
anchors = (
{
name = bottom;
pos = (995,-30);
},
{
name = top;
pos = (995,1459);
}
);
layerId = m002;
shapes = (
{
closed = 1;
nodes = (
(1138,-30,ls),
(1639,-30,o),
(1858,103,o),
(1858,408,cs),
(1858,430,ls),
(1858,612,o),
(1802,717,o),
(1673,772,cs),
(1531,833,o),
(1369,861,o),
(1140,864,cs),
(858,868,ls),
(600,872,o),
(514,898,o),
(514,972,cs),
(514,1005,ls),
(514,1087,o),
(601,1114,o),
(860,1114,cs),
(1138,1114,ls),
(1365,1114,o),
(1446,1090,o),
(1462,1018,cs),
(1472,975,o),
(1491,946,o),
(1539,946,cs),
(1785,946,ls),
(1833,946,o),
(1862,972,o),
(1858,1021,cs),
(1830,1311,o),
(1617,1438,o),
(1158,1438,cs),
(840,1438,ls),
(339,1438,o),
(120,1305,o),
(120,1000,cs),
(120,978,ls),
(120,797,o),
(176,693,o),
(305,636,cs),
(443,575,o),
(605,547,o),
(840,544,cs),
(1118,540,ls),
(1376,537,o),
(1462,511,o),
(1462,437,cs),
(1462,404,ls),
(1462,322,o),
(1376,294,o),
(1118,294,cs),
(840,294,ls),
(614,294,o),
(533,318,o),
(516,391,cs),
(507,433,o),
(488,462,o),
(440,462,cs),
(196,462,ls),
(147,462,o),
(116,437,o),
(120,387,cs),
(148,97,o),
(361,-30,o),
(820,-30,cs)
);
}
);
width = 1978;
}
);
unicode = 83;
},
{
glyphname = Germandbls;
kernLeft = H;
kernRight = Z;
lastChange = "2025-03-10 17:15:33 +0000";
layers = (
{
anchors = (
{
name = bottom;
pos = (892,0);
},
{
name = top;
pos = (892,1408);
}
);
layerId = m01;
shapes = (
{
closed = 1;
nodes = (
(1278,0,ls),
(1588,0,o),
(1724,116,o),
(1724,380,cs),
(1724,424,ls),
(1724,688,o),
(1588,804,o),
(1278,804,cs),
(1263,804,l),
(1686,1211,ls),
(1714,1237,o),
(1724,1265,o),
(1724,1303,cs),
(1724,1334,ls),
(1724,1382,o),
(1698,1408,o),
(1650,1408,cs),
(254,1408,ls),
(206,1408,o),
(180,1382,o),
(180,1334,cs),
(180,74,ls),
(180,26,o),
(205,0,o),
(253,0,cs),
(283,0,ls),
(331,0,o),
(356,26,o),
(356,74,cs),
(356,1264,l),
(1512,1264,l),
(994,746,ls),
(948,700,o),
(966,655,o),
(1032,655,cs),
(1258,655,ls),
(1474,655,o),
(1546,595,o),
(1546,416,cs),
(1546,389,ls),
(1546,209,o),
(1474,149,o),
(1258,149,cs),
(1040,149,ls),
(824,149,o),
(752,209,o),
(752,389,cs),
(752,463,o),
(722,473,o),
(684,435,cs),
(607,358,ls),
(587,338,o),
(578,315,o),
(585,287,cs),
(633,87,o),
(765,0,o),
(1020,0,cs)
);
}
);
width = 1784;
},
{
anchors = (
{
name = bottom;
pos = (901,0);
},
{
name = top;
pos = (901,1408);
}
);
layerId = m002;
shapes = (
{
closed = 1;
nodes = (
(1351,-30,ls),
(1611,-30,o),
(1724,95,o),
(1724,380,cs),
(1724,424,ls),
(1724,656,o),
(1655,764,o),
(1496,779,cs),
(1485,780,l),
(1708,1206,ls),
(1724,1236,o),
(1724,1260,o),
(1724,1298,cs),
(1724,1334,ls),
(1724,1382,o),
(1698,1408,o),
(1650,1408,cs),
(254,1408,ls),
(206,1408,o),
(180,1382,o),
(180,1334,cs),
(180,74,ls),
(180,26,o),
(206,0,o),
(254,0,cs),
(501,0,ls),
(550,0,o),
(576,26,o),
(576,74,cs),
(576,1084,l),
(1238,1084,l),
(1022,653,ls),
(992,593,o),
(993,562,o),
(1059,562,cs),
(1206,562,ls),
(1298,562,o),
(1328,532,o),
(1328,442,cs),
(1328,414,ls),
(1328,324,o),
(1298,294,o),
(1206,294,cs),
(1206,294,ls),
(1098,294,o),
(1020,311,o),
(965,351,cs),
(919,386,o),
(889,388,o),
(864,337,cs),
(766,139,ls),
(743,92,o),
(753,53,o),
(801,33,cs),
(904,-10,o),
(1032,-30,o),
(1186,-30,cs)
);
}
);
width = 1784;
}
);
unicode = 7838;
},
{
glyphname = T;
kernLeft = T;
kernRight = T;
lastChange = "2025-03-07 04:58:59 +0000";
layers = (
{
anchors = (
{
name = bottom;
pos = (900,0);
},
{
name = center;
pos = (900,704);
},
{
name = top;
pos = (900,1408);
}
);
layerId = m01;
shapes = (
{
closed = 1;
nodes = (
(90,1329,ls),
(90,1288,o),
(116,1264,o),
(157,1264,cs),
(812,1264,l),
(812,74,ls),
(812,26,o),
(838,0,o),
(886,0,cs),
(914,0,ls),
(963,0,o),
(988,26,o),
(988,74,cs),
(988,1264,l),
(1643,1264,ls),
(1684,1264,o),
(1710,1288,o),
(1710,1329,cs),
(1710,1345,ls),
(1710,1386,o),
(1684,1408,o),
(1643,1408,cs),
(157,1408,ls),
(116,1408,o),
(90,1386,o),
(90,1345,cs)
);
}
);
width = 1800;
},
{
anchors = (
{
name = bottom;
pos = (901,0);
},
{
name = center;
pos = (901,704);
},
{
name = top;
pos = (901,1408);
}
);
layerId = m002;
shapes = (
{
closed = 1;
nodes = (
(90,1150,ls),
(90,1109,o),
(116,1084,o),
(157,1084,cs),
(702,1084,l),
(702,73,ls),
(702,25,o),
(728,0,o),
(777,0,cs),
(1024,0,ls),
(1072,0,o),
(1098,25,o),
(1098,73,cs),
(1098,1084,l),
(1643,1084,ls),
(1684,1084,o),
(1710,1109,o),
(1710,1150,cs),
(1710,1342,ls),
(1710,1382,o),
(1684,1408,o),
(1643,1408,cs),
(157,1408,ls),
(116,1408,o),
(90,1382,o),
(90,1342,cs)
);
}
);
width = 1800;
}
);
unicode = 84;
},
{
glyphname = U;
kernLeft = O;
kernRight = O;
lastChange = "2025-03-12 13:16:43 +0000";
layers = (
{
anchors = (
{
name = bottom;
pos = (1005,0);
},
{
name = ogonek;
pos = (1494,10);
},
{
name = top;
pos = (1005,1408);
},
{
name = topright;
pos = (1890,1408);
}
);
layerId = m01;
shapes = (
{
closed = 1;
nodes = (
(1164,-30,ls),
(1669,-30,o),
(1890,193,o),
(1890,704,cs),
(1890,1334,ls),
(1890,1382,o),
(1864,1408,o),
(1815,1408,cs),
(1786,1408,ls),
(1737,1408,o),
(1711,1382,o),
(1711,1334,cs),
(1711,704,ls),
(1711,265,o),
(1570,119,o),
(1145,119,cs),
(865,119,ls),
(441,119,o),
(299,265,o),
(299,704,cs),
(299,1334,ls),
(299,1382,o),
(273,1408,o),
(224,1408,cs),
(195,1408,ls),
(146,1408,o),
(120,1382,o),
(120,1334,cs),
(120,704,ls),
(120,193,o),
(341,-30,o),
(846,-30,cs)
);
}
);
width = 2010;
},
{
anchors = (
{
name = bottom;
pos = (1005,0);
},
{
name = ogonek;
pos = (1494,10);
},
{
name = top;
pos = (1005,1408);
},
{
name = topright;
pos = (1890,1408);
}
);
layerId = m002;
shapes = (
{
closed = 1;
nodes = (
(1164,-30,ls),
(1669,-30,o),
(1890,193,o),
(1890,704,cs),
(1890,1334,ls),
(1890,1382,o),
(1864,1408,o),
(1815,1408,cs),
(1562,1408,ls),
(1514,1408,o),
(1494,1382,o),
(1494,1334,cs),
(1494,704,ls),
(1494,397,o),
(1407,294,o),
(1145,294,cs),
(865,294,ls),
(603,294,o),
(516,397,o),
(516,704,cs),
(516,1334,ls),
(516,1382,o),
(496,1408,o),
(448,1408,cs),
(195,1408,ls),
(146,1408,o),
(120,1382,o),
(120,1334,cs),
(120,704,ls),
(120,193,o),
(341,-30,o),
(846,-30,cs)
);
}
);
width = 2010;
}
);
unicode = 85;
},
{
glyphname = V;
kernLeft = V;
kernRight = V;
lastChange = "2025-03-10 00:11:53 +0000";
layers = (
{
anchors = (
{
name = bottom;
pos = (991,0);
},
{
name = top;
pos = (991,1408);
}
);
layerId = m01;
shapes = (
{
closed = 1;
nodes = (
(1049,0,ls),
(1090,0,o),
(1118,15,o),
(1139,51,cs),
(1901,1319,ls),
(1932,1371,o),
(1907,1408,o),
(1849,1408,cs),
(1825,1408,ls),
(1784,1408,o),
(1757,1393,o),
(1736,1357,cs),
(1007,144,l),
(975,144,l),
(246,1357,ls),
(225,1393,o),
(198,1408,o),
(157,1408,cs),
(133,1408,ls),
(75,1408,o),
(50,1371,o),
(81,1319,cs),
(843,51,ls),
(864,15,o),
(892,0,o),
(933,0,cs)
);
}
);
width = 1982;
},
{
anchors = (
{
name = bottom;
pos = (993,0);
},
{
name = top;
pos = (993,1408);
}
);
layerId = m002;
shapes = (
{
closed = 1;
nodes = (
(1184,0,ls),
(1226,0,o),
(1256,12,o),
(1275,50,cs),
(1906,1320,ls),
(1933,1375,o),
(1914,1408,o),
(1854,1408,cs),
(1612,1408,ls),
(1571,1408,o),
(1540,1394,o),
(1521,1357,cs),
(1008,324,l),
(978,324,l),
(465,1357,ls),
(447,1394,o),
(416,1408,o),
(374,1408,cs),
(133,1408,ls),
(73,1408,o),
(53,1375,o),
(80,1320,cs),
(711,50,ls),
(730,12,o),
(761,0,o),
(802,0,cs)
);
}
);
width = 1986;
}
);
unicode = 86;
},
{
glyphname = W;
kernLeft = W;
kernRight = W;
lastChange = "2025-03-10 00:41:24 +0000";
layers = (
{
anchors = (
{
name = bottom;
pos = (1545,0);
},
{
name = top;
pos = (1545,1408);
}
);
layerId = m01;
shapes = (
{
closed = 1;
nodes = (
(894,0,ls),
(935,0,o),
(960,15,o),
(977,51,cs),
(1545,1264,l),
(2113,51,ls),
(2130,15,o),
(2155,0,o),
(2196,0,cs),
(2312,0,ls),
(2353,0,o),
(2392,15,o),
(2409,51,cs),
(3003,1319,ls),
(3029,1375,o),
(3010,1408,o),
(2951,1408,cs),
(2933,1408,ls),
(2892,1408,o),
(2861,1393,o),
(2844,1357,cs),
(2276,144,l),
(2246,144,l),
(1678,1357,ls),
(1661,1393,o),
(1630,1408,o),
(1589,1408,cs),
(1501,1408,ls),
(1460,1408,o),
(1429,1393,o),
(1412,1357,cs),
(844,144,l),
(814,144,l),
(246,1357,ls),
(229,1393,o),
(197,1408,o),
(156,1408,cs),
(138,1408,ls),
(79,1408,o),
(61,1375,o),
(87,1319,cs),
(681,51,ls),
(698,15,o),
(737,0,o),
(778,0,cs)
);
}
);
width = 3089;
},
{
anchors = (
{
name = bottom;
pos = (1546,0);
},
{
name = top;
pos = (1546,1408);
}
);
layerId = m002;
shapes = (
{
closed = 1;
nodes = (
(1080,0,ls),
(1126,0,o),
(1155,20,o),
(1172,62,cs),
(1546,997,l),
(1920,62,ls),
(1937,20,o),
(1966,0,o),
(2012,0,cs),
(2416,0,ls),
(2462,0,o),
(2491,20,o),
(2508,62,cs),
(3009,1315,ls),
(3031,1370,o),
(3006,1408,o),
(2946,1408,cs),
(2726,1408,ls),
(2680,1408,o),
(2651,1388,o),
(2634,1346,cs),
(2225,324,l),
(2203,324,l),
(1794,1346,ls),
(1777,1388,o),
(1748,1408,o),
(1702,1408,cs),
(1390,1408,ls),
(1344,1408,o),
(1315,1388,o),
(1298,1346,cs),
(889,324,l),
(867,324,l),
(458,1346,ls),
(441,1388,o),
(412,1408,o),
(366,1408,cs),
(146,1408,ls),
(86,1408,o),
(61,1370,o),
(83,1315,cs),
(584,62,ls),
(601,20,o),
(630,0,o),
(676,0,cs)
);
}
);
width = 3092;
}
);
unicode = 87;
},
{
glyphname = X;
kernLeft = Z;
kernRight = Z;
lastChange = "2025-03-08 17:26:23 +0000";
layers = (
{
anchors = (
{
name = bottom;
pos = (997,0);
},
{
name = top;
pos = (997,1408);
}
);
layerId = m01;
shapes = (
{
closed = 1;
nodes = (
(184,0,ls),
(222,0,o),
(246,14,o),
(276,38,cs),
(1860,1317,ls),
(1911,1359,o),
(1888,1408,o),
(1822,1408,cs),
(1764,1408,ls),
(1726,1408,o),
(1702,1394,o),
(1672,1370,cs),
(88,91,ls),
(37,49,o),
(60,0,o),
(126,0,cs)
);
},
{
closed = 1;
nodes = (
(1718,38,ls),
(1748,14,o),
(1772,0,o),
(1810,0,cs),
(1868,0,ls),
(1934,0,o),
(1957,49,o),
(1906,91,cs),
(322,1370,ls),
(293,1394,o),
(268,1408,o),
(230,1408,cs),
(172,1408,ls),
(106,1408,o),
(83,1359,o),
(134,1317,cs)
);
}
);
width = 1994;
},
{
anchors = (
{
name = bottom;
pos = (996,0);
},
{
name = top;
pos = (996,1408);
}
);
layerId = m002;
shapes = (
{
closed = 1;
nodes = (
(456,0,ls),
(494,0,o),
(521,12,o),
(548,38,cs),
(1860,1325,ls),
(1907,1371,o),
(1888,1416,o),
(1822,1416,cs),
(1492,1416,ls),
(1454,1416,o),
(1427,1404,o),
(1400,1378,cs),
(88,91,ls),
(42,45,o),
(54,0,o),
(114,0,cs)
);
},
{
closed = 1;
nodes = (
(1455,38,ls),
(1482,12,o),
(1509,0,o),
(1548,0,cs),
(1890,0,ls),
(1949,0,o),
(1963,45,o),
(1915,91,cs),
(560,1378,ls),
(532,1404,o),
(506,1416,o),
(468,1416,cs),
(125,1416,ls),
(65,1416,o),
(52,1371,o),
(100,1325,cs)
);
}
);
width = 2004;
}
);
unicode = 88;
},
{
glyphname = Y;
kernLeft = V;
kernRight = V;
lastChange = "2025-03-12 13:25:18 +0000";
layers = (
{
anchors = (
{
name = bottom;
pos = (938,0);
},
{
name = top;
pos = (938,1408);
},
{
name = topleft;
pos = (20,1408);
}
);
layerId = m01;
shapes = (
{
closed = 1;
nodes = (
(951,0,ls),
(1000,0,o),
(1026,26,o),
(1026,74,cs),
(1026,704,l),
(1729,1308,ls),
(1778,1350,o),
(1757,1408,o),
(1691,1408,cs),
(1649,1408,ls),
(1611,1408,o),
(1585,1394,o),
(1557,1370,cs),
(938,838,l),
(319,1370,ls),
(291,1394,o),
(265,1408,o),
(227,1408,cs),
(185,1408,ls),
(119,1408,o),
(98,1350,o),
(147,1308,cs),
(850,704,l),
(850,74,ls),
(850,26,o),
(876,0,o),
(925,0,cs)
);
}
);
width = 1876;
},
{
anchors = (
{
name = bottom;
pos = (941,0);
},
{
name = top;
pos = (941,1408);
},
{
name = topleft;
pos = (0,1408);
}
);
layerId = m002;
shapes = (
{
closed = 1;
nodes = (
(1065,0,ls),
(1113,0,o),
(1139,26,o),
(1139,74,cs),
(1139,536,l),
(1739,1308,ls),
(1778,1358,o),
(1767,1408,o),
(1701,1408,cs),
(1447,1408,ls),
(1409,1408,o),
(1378,1399,o),
(1355,1370,cs),
(941,837,l),
(527,1370,ls),
(504,1399,o),
(473,1408,o),
(435,1408,cs),
(181,1408,ls),
(115,1408,o),
(104,1358,o),
(143,1308,cs),
(743,536,l),
(743,74,ls),
(743,26,o),
(769,0,o),
(817,0,cs)
);
}
);
width = 1882;
}
);
unicode = 89;
},
{
glyphname = Z;
kernLeft = Z;
kernRight = Z;
lastChange = "2025-03-08 17:33:36 +0000";
layers = (
{
anchors = (
{
name = bottom;
pos = (960,0);
},
{
name = center;
pos = (960,704);
},
{
name = top;
pos = (960,1408);
}
);
layerId = m01;
shapes = (
{
closed = 1;
nodes = (
(1733,0,ls),
(1773,0,o),
(1800,23,o),
(1800,64,cs),
(1800,80,ls),
(1800,121,o),
(1773,144,o),
(1733,144,cs),
(378,144,l),
(1756,1229,ls),
(1787,1254,o),
(1800,1281,o),
(1800,1313,cs),
(1800,1341,ls),
(1800,1382,o),
(1773,1408,o),
(1733,1408,cs),
(187,1408,ls),
(146,1408,o),
(120,1385,o),
(120,1344,cs),
(120,1328,ls),
(120,1287,o),
(146,1264,o),
(187,1264,cs),
(1542,1264,l),
(164,184,ls),
(133,159,o),
(120,127,o),
(120,95,cs),
(120,67,ls),
(120,26,o),
(146,0,o),
(187,0,cs)
);
}
);
width = 1920;
},
{
anchors = (
{
name = bottom;
pos = (960,0);
},
{
name = center;
pos = (960,704);
},
{
name = top;
pos = (960,1408);
}
);
layerId = m002;
shapes = (
{
closed = 1;
nodes = (
(1733,0,ls),
(1773,0,o),
(1800,26,o),
(1800,67,cs),
(1800,257,ls),
(1800,298,o),
(1773,324,o),
(1733,324,cs),
(736,324,l),
(1756,1049,ls),
(1787,1071,o),
(1800,1101,o),
(1800,1133,cs),
(1800,1341,ls),
(1800,1382,o),
(1773,1408,o),
(1733,1408,cs),
(187,1408,ls),
(146,1408,o),
(120,1382,o),
(120,1341,cs),
(120,1151,ls),
(120,1110,o),
(146,1084,o),
(187,1084,cs),
(1184,1084,l),
(164,359,ls),
(133,337,o),
(120,307,o),
(120,276,cs),
(120,67,ls),
(120,26,o),
(146,0,o),
(187,0,cs)
);
}
);
width = 1920;
}
);
unicode = 90;
},
{
glyphname = Saltillo;
kernLeft = H;
kernRight = H;
lastChange = "2025-03-03 03:25:12 +0000";
layers = (
{
layerId = m01;
shapes = (
{
closed = 1;
nodes = (
(202,441,ls),
(204,392,o),
(228,366,o),
(276,366,cs),
(293,366,ls),
(342,366,o),
(366,392,o),
(368,441,cs),
(405,1334,ls),
(407,1382,o),
(365,1408,o),
(317,1408,cs),
(253,1408,ls),
(205,1408,o),
(163,1382,o),
(165,1334,cs)
);
}
);
width = 570;
},
{
layerId = m002;
shapes = (
{
closed = 1;
nodes = (
(201,551,ls),
(203,502,o),
(227,476,o),
(275,476,cs),
(421,476,ls),
(469,476,o),
(493,502,o),
(495,551,cs),
(532,1385,ls),
(534,1433,o),
(492,1459,o),
(444,1459,cs),
(252,1459,ls),
(204,1459,o),
(162,1433,o),
(164,1385,cs)
);
}
);
width = 696;
}
);
unicode = 42891;
},
{
glyphname = a;
kernLeft = a;
kernRight = a;
lastChange = "2025-03-08 17:40:23 +0000";
layers = (
{
anchors = (
{
name = bottom;
pos = (728,0);
},
{
name = ogonek;
pos = (1310,10);
},
{
name = top;
pos = (728,1092);
}
);
layerId = m01;
shapes = (
{
closed = 1;
nodes = (
(1262,0,ls),
(1310,0,o),
(1336,25,o),
(1336,74,cs),
(1336,613,ls),
(1336,948,o),
(1180,1092,o),
(823,1092,cs),
(633,1092,ls),
(319,1092,o),
(170,1014,o),
(142,835,cs),
(135,785,o),
(162,757,o),
(211,757,cs),
(227,757,ls),
(259,757,o),
(293,781,o),
(302,827,cs),
(323,930,o),
(409,964,o),
(646,964,cs),
(810,964,ls),
(1076,964,o),
(1167,858,o),
(1176,532,c),
(1118,579,o),
(998,600,o),
(782,600,cs),
(634,600,ls),
(276,600,o),
(120,511,o),
(120,308,cs),
(120,278,ls),
(120,71,o),
(276,-20,o),
(634,-20,cs),
(782,-20,ls),
(948,-20,o),
(1067,10,o),
(1172,79,c),
(1172,27,o),
(1198,0,o),
(1247,0,cs)
);
},
{
closed = 1;
nodes = (
(372,108,o),
(280,151,o),
(280,279,cs),
(280,303,ls),
(280,430,o),
(372,472,o),
(647,472,cs),
(769,472,ls),
(1074,472,o),
(1176,430,o),
(1176,303,cs),
(1176,279,ls),
(1176,151,o),
(1074,108,o),
(769,108,cs),
(647,108,ls)
);
}
);
width = 1456;
},
{
anchors = (
{
name = bottom;
pos = (728,0);
},
{
name = ogonek;
pos = (1310,10);
},
{
name = top;
pos = (728,1092);
}
);
layerId = m002;
shapes = (
{
closed = 1;
nodes = (
(1262,0,ls),
(1310,0,o),
(1336,25,o),
(1336,74,cs),
(1336,610,ls),
(1336,947,o),
(1180,1094,o),
(823,1094,cs),
(633,1094,ls),
(317,1094,o),
(167,1009,o),
(142,815,cs),
(136,766,o),
(165,738,o),
(214,738,cs),
(435,738,ls),
(467,738,o),
(489,762,o),
(492,770,cs),
(504,796,o),
(543,805,o),
(646,805,cs),
(810,805,ls),
(924,805,o),
(965,767,o),
(976,652,c),
(916,671,o),
(867,677,o),
(782,677,cs),
(634,677,ls),
(276,677,o),
(120,575,o),
(120,342,cs),
(120,313,ls),
(120,81,o),
(276,-20,o),
(634,-20,cs),
(782,-20,ls),
(888,-20,o),
(959,-12,o),
(1014,7,c),
(1018,4,o),
(1033,0,o),
(1050,0,cs)
);
},
{
closed = 1;
nodes = (
(522,266,o),
(480,279,o),
(480,319,cs),
(480,336,ls),
(480,376,o),
(522,389,o),
(647,389,cs),
(769,389,ls),
(924,389,o),
(976,376,o),
(976,336,cs),
(976,319,ls),
(976,279,o),
(924,266,o),
(769,266,cs),
(647,266,ls)
);
}
);
width = 1456;
}
);
unicode = 97;
},
{
glyphname = c;
kernLeft = c;
kernRight = c;
lastChange = "2025-03-08 18:32:51 +0000";
layers = (
{
anchors = (
{
name = bottom;
pos = (728,-22);
},
{
name = top;
pos = (728,1094);
}
);
layerId = m01;
shapes = (
{
closed = 1;
nodes = (
(839,-20,ls),
(1182,-20,o),
(1344,58,o),
(1372,237,cs),
(1380,287,o),
(1355,315,o),
(1306,315,cs),
(1290,315,ls),
(1243,315,o),
(1222,290,o),
(1212,244,cs),
(1188,142,o),
(1092,108,o),
(826,108,cs),
(642,108,ls),
(348,108,o),
(250,212,o),
(250,524,cs),
(250,548,ls),
(250,860,o),
(348,964,o),
(642,964,cs),
(826,964,ls),
(1092,964,o),
(1188,930,o),
(1212,828,cs),
(1222,781,o),
(1240,757,o),
(1287,757,cs),
(1303,757,ls),
(1352,757,o),
(1380,785,o),
(1372,835,cs),
(1344,1014,o),
(1182,1092,o),
(839,1092,cs),
(629,1092,ls),
(254,1092,o),
(90,927,o),
(90,551,cs),
(90,521,ls),
(90,145,o),
(254,-20,o),
(629,-20,cs)
);
}
);
width = 1463;
},
{
anchors = (
{
name = bottom;
pos = (737,0);
},
{
name = top;
pos = (737,1092);
}
);
layerId = m002;
shapes = (
{
closed = 1;
nodes = (
(843,-20,ls),
(1158,-20,o),
(1318,90,o),
(1369,342,cs),
(1380,396,o),
(1349,428,o),
(1295,428,cs),
(1090,428,ls),
(1043,428,o),
(1020,404,o),
(1000,359,cs),
(970,291,o),
(928,268,o),
(830,268,cs),
(646,268,ls),
(499,268,o),
(450,332,o),
(450,524,cs),
(450,548,ls),
(450,740,o),
(499,804,o),
(646,804,cs),
(830,804,ls),
(928,804,o),
(970,781,o),
(1000,712,cs),
(1020,668,o),
(1043,644,o),
(1090,644,cs),
(1295,644,ls),
(1349,644,o),
(1380,676,o),
(1369,730,cs),
(1317,982,o),
(1157,1092,o),
(843,1092,cs),
(633,1092,ls),
(255,1092,o),
(90,927,o),
(90,551,cs),
(90,521,ls),
(90,145,o),
(255,-20,o),
(633,-20,cs)
);
}
);
width = 1461;
}
);
unicode = 99;
},
{
glyphname = e;
kernLeft = c;
kernRight = a;
lastChange = "2025-03-12 13:18:13 +0000";
layers = (
{
anchors = (
{
name = bottom;
pos = (731,0);
},
{
name = ogonek;
pos = (1076,10);
},
{
name = top;
pos = (731,1092);
}
);
layerId = m01;
shapes = (
{
closed = 1;
nodes = (
(825,-20,ls),
(1131,-20,o),
(1284,70,o),
(1328,276,cs),
(1337,314,o),
(1315,337,o),
(1277,337,cs),
(1226,337,ls),
(1189,337,o),
(1174,324,o),
(1166,286,cs),
(1137,153,o),
(1048,108,o),
(812,108,cs),
(628,108,ls),
(351,108,o),
(256,199,o),
(250,472,c),
(1294,472,ls),
(1329,472,o),
(1349,491,o),
(1350,524,cs),
(1350,524,l),
(1350,554,ls),
(1350,928,o),
(1190,1092,o),
(825,1092,cs),
(615,1092,ls),
(250,1092,o),
(90,927,o),
(90,551,cs),
(90,521,ls),
(90,145,o),
(250,-20,o),
(615,-20,cs)
);
},
{
closed = 1;
nodes = (
(256,873,o),
(351,964,o),
(628,964,cs),
(812,964,ls),
(1090,964,o),
(1184,873,o),
(1190,600,c),
(250,600,l)
);
}
);
width = 1462;
},
{
anchors = (
{
name = bottom;
pos = (731,0);
},
{
name = ogonek;
pos = (979,10);
},
{
name = top;
pos = (731,1092);
}
);
layerId = m002;
shapes = (
{
closed = 1;
nodes = (
(826,-20,ls),
(1102,-20,o),
(1256,58,o),
(1327,229,cs),
(1349,284,o),
(1318,320,o),
(1260,320,cs),
(1031,320,ls),
(991,320,o),
(967,302,o),
(930,284,cs),
(906,273,o),
(875,268,o),
(813,268,cs),
(629,268,ls),
(532,268,o),
(482,301,o),
(461,392,c),
(1266,392,ls),
(1316,392,o),
(1347,418,o),
(1349,468,cs),
(1350,521,l),
(1350,551,ls),
(1350,927,o),
(1191,1092,o),
(826,1092,cs),
(616,1092,ls),
(250,1092,o),
(90,927,o),
(90,551,cs),
(90,521,ls),
(90,145,o),
(250,-20,o),
(616,-20,cs)
);
},
{
closed = 1;
nodes = (
(482,771,o),
(532,804,o),
(629,804,cs),
(813,804,ls),
(909,804,o),
(959,770,o),
(979,680,c),
(461,680,l)
);
}
);
width = 1462;
}
);
unicode = 101;
},
{
glyphname = esh;
kernLeft = j;
kernRight = f;
lastChange = "2025-03-05 23:29:59 +0000";
layers = (
{
layerId = m01;
shapes = (
{
closed = 1;
nodes = (
(420,-464,o),
(584,-335,o),
(584,49,cs),
(584,895,ls),
(584,1191,o),
(656,1241,o),
(851,1245,cs),
(902,1246,o),
(929,1271,o),
(929,1312,cs),
(929,1344,ls),
(929,1386,o),
(902,1409,o),
(851,1409,cs),
(570,1409,o),
(406,1280,o),
(406,896,cs),
(406,50,ls),
(406,-246,o),
(334,-296,o),
(139,-301,cs),
(88,-302,o),
(61,-326,o),
(61,-368,cs),
(61,-399,ls),
(61,-441,o),
(88,-464,o),
(139,-464,cs)
);
}
);
width = 990;
},
{
layerId = m002;
shapes = (
{
closed = 1;
nodes = (
(531,-476,o),
(696,-347,o),
(696,37,cs),
(696,710,ls),
(696,1006,o),
(768,1056,o),
(851,1061,cs),
(902,1064,o),
(929,1086,o),
(929,1128,cs),
(929,1364,ls),
(929,1406,o),
(902,1429,o),
(851,1429,cs),
(459,1429,o),
(294,1300,o),
(294,916,cs),
(294,243,ls),
(294,-53,o),
(222,-103,o),
(139,-108,cs),
(88,-111,o),
(61,-133,o),
(61,-175,cs),
(61,-411,ls),
(61,-453,o),
(88,-476,o),
(139,-476,cs)
);
}
);
width = 990;
}
);
unicode = 643;
},
{
glyphname = f;
kernLeft = f;
kernRight = f;
lastChange = "2025-03-08 23:33:58 +0000";
layers = (
{
anchors = (
{
name = bottom;
pos = (372,0);
},
{
name = top;
pos = (372,1536);
}
);
layerId = m01;
shapes = (
{
closed = 1;
nodes = (
(380,1,ls),
(428,1,o),
(452,29,o),
(452,76,cs),
(452,944,ls),
(452,1292,o),
(565,1408,o),
(904,1408,cs),
(940,1408,o),
(960,1424,o),
(960,1460,cs),
(960,1483,ls),
(960,1519,o),
(940,1536,o),
(904,1536,cs),
(478,1536,o),
(292,1356,o),
(292,945,cs),
(292,74,ls),
(292,26,o),
(316,1,o),
(364,1,cs)
);
},
{
closed = 1;
nodes = (
(120,1000,ls),
(120,970,o),
(140,944,o),
(176,944,cs),
(904,944,ls),
(940,944,o),
(960,964,o),
(960,1000,cs),
(960,1016,ls),
(960,1052,o),
(940,1072,o),
(904,1072,cs),
(176,1072,ls),
(140,1072,o),
(120,1052,o),
(120,1016,cs)
);
}
);
width = 960;
},
{
anchors = (
{
name = bottom;
pos = (472,0);
},
{
name = top;
pos = (472,1536);
}
);
layerId = m002;
shapes = (
{
closed = 1;
nodes = (
(578,1,ls),
(625,1,o),
(652,29,o),
(652,76,cs),
(652,944,ls),
(652,1172,o),
(715,1248,o),
(904,1248,cs),
(940,1248,o),
(960,1268,o),
(960,1304,cs),
(960,1480,ls),
(960,1516,o),
(940,1536,o),
(904,1536,cs),
(478,1536,o),
(292,1356,o),
(292,945,cs),
(292,74,ls),
(292,26,o),
(318,1,o),
(366,1,cs)
);
},
{
closed = 1;
nodes = (
(120,844,ls),
(120,810,o),
(146,784,o),
(195,784,cs),
(895,784,ls),
(934,784,o),
(960,805,o),
(960,844,cs),
(960,1012,ls),
(960,1051,o),
(934,1072,o),
(895,1072,cs),
(195,1072,ls),
(146,1072,o),
(120,1046,o),
(120,1012,cs)
);
}
);
width = 960;
}
);
unicode = 102;
},
{
glyphname = g;
kernLeft = c;
kernRight = a;
lastChange = "2025-03-08 22:44:18 +0000";
layers = (
{
anchors = (
{
name = bottom;
pos = (762,-464);
},
{
name = top;
pos = (762,1092);
}
);
layerId = m01;
shapes = (
{
closed = 1;
nodes = (
(127,-149,o),
(99,-177,o),
(107,-226,cs),
(134,-405,o),
(299,-484,o),
(650,-484,cs),
(860,-484,ls),
(1238,-484,o),
(1403,-336,o),
(1403,1,cs),
(1403,997,ls),
(1403,1046,o),
(1379,1071,o),
(1331,1071,cs),
(1315,1071,ls),
(1268,1071,o),
(1243,1043,o),
(1243,996,cs),
(1243,2,ls),
(1243,-266,o),
(1144,-356,o),
(847,-356,cs),
(663,-356,ls),
(389,-356,o),
(290,-322,o),
(267,-219,cs),
(257,-173,o),
(239,-149,o),
(192,-149,cs),
(176,-149,ls)
);
},
{
pos = (1242,0);
ref = "_bowl-b";
scale = (-1,1);
}
);
width = 1523;
},
{
anchors = (
{
name = bottom;
pos = (762,-499);
},
{
name = top;
pos = (762,1094);
}
);
layerId = m002;
shapes = (
{
closed = 1;
nodes = (
(130,-87,o),
(102,-115,o),
(108,-165,cs),
(132,-398,o),
(298,-500,o),
(652,-500,cs),
(868,-500,ls),
(1240,-500,o),
(1402,-352,o),
(1402,-15,cs),
(1402,998,ls),
(1402,1047,o),
(1376,1072,o),
(1328,1072,cs),
(1116,1072,ls),
(1069,1072,o),
(1042,1044,o),
(1042,997,cs),
(1042,-14,ls),
(1042,-157,o),
(993,-205,o),
(847,-205,cs),
(663,-205,ls),
(522,-205,o),
(473,-193,o),
(468,-157,cs),
(460,-104,o),
(440,-87,o),
(391,-87,cs),
(179,-87,ls)
);
},
{
pos = (1042,0);
ref = "_bowl-b";
scale = (-1,1);
}
);
width = 1522;
}
);
unicode = 103;
},
{
glyphname = glottalstop;
kernLeft = V;
kernRight = V;
lastChange = "2025-03-04 00:56:23 +0000";
layers = (
{
layerId = m01;
shapes = (
{
closed = 1;
nodes = (
(1318,677,o),
(1475,755,o),
(1475,1028,cs),
(1475,1057,ls),
(1475,1330,o),
(1318,1408,o),
(996,1408,cs),
(676,1408,ls),
(388,1408,o),
(232,1346,o),
(202,1150,cs),
(194,1101,o),
(224,1073,o),
(274,1073,cs),
(289,1073,ls),
(336,1073,o),
(356,1097,o),
(367,1144,cs),
(391,1251,o),
(482,1274,o),
(689,1274,cs),
(983,1274,ls),
(1229,1274,o),
(1311,1238,o),
(1311,1055,cs),
(1311,1030,ls),
(1311,847,o),
(1229,811,o),
(1105,811,cs),
(997,811,ls),
(903,811,o),
(746,733,o),
(746,460,cs),
(746,412,o),
(772,386,o),
(821,386,cs),
(836,386,ls),
(884,386,o),
(910,412,o),
(910,457,cs),
(910,641,o),
(992,677,o),
(1040,677,cs),
(1161,677,ls)
);
}
);
width = 1586;
},
{
layerId = m002;
shapes = (
{
closed = 1;
nodes = (
(1251,647,o),
(1475,771,o),
(1475,1021,cs),
(1475,1051,ls),
(1475,1300,o),
(1248,1429,o),
(960,1429,cs),
(676,1429,ls),
(388,1429,o),
(232,1300,o),
(202,1104,cs),
(194,1055,o),
(224,1027,o),
(274,1027,cs),
(508,1027,ls),
(544,1027,o),
(558,1051,o),
(568,1087,cs),
(580,1133,o),
(683,1161,o),
(800,1161,cs),
(890,1161,ls),
(1024,1161,o),
(1106,1125,o),
(1106,1048,cs),
(1106,1024,ls),
(1106,956,o),
(1024,910,o),
(975,910,cs),
(901,910,ls),
(806,910,o),
(649,802,o),
(649,551,cs),
(649,505,o),
(676,484,o),
(724,484,cs),
(951,484,ls),
(997,484,o),
(1016,505,o),
(1020,551,cs),
(1024,592,o),
(1066,639,o),
(1109,641,cs),
(1134,642,ls)
);
}
);
width = 1586;
}
);
unicode = 660;
},
{
glyphname = idotless;
kernLeft = a;
kernRight = a;
lastChange = "2025-03-11 00:22:54 +0000";
layers = (
{
anchors = (
{
name = bottom;
pos = (200,0);
},
{
name = ogonek;
pos = (248,0);
},
{
name = top;
pos = (200,1072);
}
);
layerId = m01;
shapes = (
{
closed = 1;
nodes = (
(120,74,ls),
(120,26,o),
(144,0,o),
(193,0,cs),
(207,0,ls),
(256,0,o),
(280,26,o),
(280,74,cs),
(280,997,ls),
(280,1046,o),
(256,1072,o),
(207,1072,cs),
(193,1072,ls),
(144,1072,o),
(120,1046,o),
(120,997,cs)
);
}
);
width = 400;
},
{
anchors = (
{
name = bottom;
pos = (300,0);
},
{
name = ogonek;
pos = (416,0);
},
{
name = top;
pos = (300,1072);
}
);
layerId = m002;
shapes = (
{
closed = 1;
nodes = (
(120,74,ls),
(120,26,o),
(146,0,o),
(195,0,cs),
(405,0,ls),
(454,0,o),
(480,26,o),
(480,74,cs),
(480,997,ls),
(480,1046,o),
(454,1072,o),
(405,1072,cs),
(195,1072,ls),
(146,1072,o),
(120,1046,o),
(120,997,cs)
);
}
);
width = 600;
}
);
unicode = 305;
},
{
glyphname = jdotless;
kernLeft = j;
kernRight = a;
lastChange = "2025-03-12 13:26:06 +0000";
layers = (
{
anchors = (
{
name = bottom;
pos = (340,-464);
},
{
name = top;
pos = (340,1072);
}
);
layerId = m01;
shapes = (
{
closed = 1;
nodes = (
(300,-464,o),
(420,-316,o),
(420,23,cs),
(420,997,ls),
(420,1046,o),
(396,1072,o),
(347,1071,cs),
(333,1071,ls),
(285,1070,o),
(260,1043,o),
(260,996,cs),
(260,24,ls),
(260,-238,o),
(202,-328,o),
(26,-336,cs),
(-10,-338,o),
(-30,-356,o),
(-30,-392,cs),
(-30,-408,ls),
(-30,-445,o),
(-10,-464,o),
(26,-464,cs)
);
}
);
width = 600;
},
{
anchors = (
{
name = bottom;
pos = (433,-480);
},
{
name = top;
pos = (433,1072);
}
);
layerId = m002;
shapes = (
{
closed = 1;
nodes = (
(434,-491,o),
(613,-339,o),
(613,7,cs),
(613,997,ls),
(613,1046,o),
(587,1071,o),
(538,1071,cs),
(328,1071,ls),
(280,1071,o),
(253,1043,o),
(253,996,cs),
(253,176,ls),
(253,-99,o),
(196,-194,o),
(26,-203,cs),
(-10,-205,o),
(-30,-222,o),
(-30,-259,cs),
(-30,-435,ls),
(-30,-472,o),
(-10,-491,o),
(26,-491,cs)
);
}
);
width = 793;
}
);
unicode = 567;
},
{
glyphname = k;
kernLeft = l;
kernRight = z;
lastChange = "2025-03-10 17:49:08 +0000";
layers = (
{
anchors = (
{
name = bottom;
pos = (596,0);
},
{
name = top;
pos = (596,1408);
}
);
layerId = m01;
shapes = (
{
closed = 1;
nodes = (
(1135,0,ls),
(1189,0,o),
(1200,31,o),
(1156,68,cs),
(596,532,l),
(1134,1004,ls),
(1175,1040,o),
(1167,1072,o),
(1113,1072,cs),
(1039,1072,ls),
(1012,1072,o),
(989,1069,o),
(969,1051,cs),
(464,608,l),
(241,608,l),
(241,464,l),
(452,464,l),
(987,21,ls),
(1008,4,o),
(1030,0,o),
(1056,0,cs)
);
},
{
pos = (30,0);
ref = "_stem-v-lowercase-CH";
}
);
width = 1183;
},
{
anchors = (
{
name = bottom;
pos = (768,0);
},
{
name = top;
pos = (768,1408);
}
);
layerId = m002;
shapes = (
{
closed = 1;
nodes = (
(1429,0,ls),
(1483,0,o),
(1492,34,o),
(1451,68,cs),
(894,536,l),
(1429,1004,ls),
(1470,1039,o),
(1461,1072,o),
(1407,1072,cs),
(1054,1072,ls),
(1027,1072,o),
(1006,1070,o),
(984,1051,cs),
(560,680,l),
(305,680,l),
(305,392,l),
(561,392,l),
(1003,21,ls),
(1023,4,o),
(1046,0,o),
(1073,0,cs)
);
},
{
pos = (30,0);
ref = "_stem-v-lowercase-CH";
}
);
width = 1477;
}
);
unicode = 107;
},
{
glyphname = eng;
kernLeft = a;
kernRight = l;
lastChange = "2025-03-11 00:34:12 +0000";
layers = (
{
anchors = (
{
name = bottom;
pos = (791,-464);
},
{
name = top;
pos = (791,1072);
}
);
layerId = m01;
shapes = (
{
ref = n;
},
{
closed = 1;
nodes = (
(1271,-480,o),
(1384,-325,o),
(1384,28,cs),
(1384,401,ls),
(1384,449,o),
(1361,476,o),
(1312,476,cs),
(1296,476,ls),
(1249,476,o),
(1224,448,o),
(1224,401,cs),
(1224,28,ls),
(1224,-240,o),
(1172,-331,o),
(1014,-336,cs),
(964,-338,o),
(937,-358,o),
(937,-400,cs),
(937,-416,ls),
(937,-458,o),
(964,-480,o),
(1014,-480,cs)
);
}
);
width = 1582;
},
{
anchors = (
{
name = bottom;
pos = (785,-480);
},
{
name = top;
pos = (785,1072);
}
);
layerId = m002;
shapes = (
{
ref = n;
},
{
closed = 1;
nodes = (
(1236,-480,o),
(1384,-324,o),
(1384,33,cs),
(1384,403,ls),
(1384,451,o),
(1358,476,o),
(1309,476,cs),
(1090,476,ls),
(1042,476,o),
(1024,448,o),
(1024,401,cs),
(1024,34,ls),
(1024,-129,o),
(993,-186,o),
(899,-192,cs),
(849,-194,o),
(822,-217,o),
(822,-259,cs),
(822,-415,ls),
(822,-457,o),
(849,-480,o),
(899,-480,cs)
);
}
);
width = 1569;
}
);
unicode = 331;
},
{
glyphname = o;
kernLeft = c;
kernRight = c;
lastChange = "2025-03-12 13:17:57 +0000";
layers = (
{
anchors = (
{
name = bottom;
pos = (754,0);
},
{
name = center;
pos = (754,536);
},
{
name = ogonek;
pos = (1058,10);
},
{
name = top;
pos = (754,1092);
},
{
name = topright;
pos = (1258,1072);
}
);
layerId = m01;
shapes = (
{
closed = 1;
nodes = (
(90,521,ls),
(90,145,o),
(260,-20,o),
(649,-20,cs),
(859,-20,ls),
(1248,-20,o),
(1418,145,o),
(1418,521,cs),
(1418,551,ls),
(1418,927,o),
(1248,1092,o),
(859,1092,cs),
(649,1092,ls),
(260,1092,o),
(90,927,o),
(90,551,cs)
);
},
{
closed = 1;
nodes = (
(250,860,o),
(353,964,o),
(662,964,cs),
(846,964,ls),
(1155,964,o),
(1258,860,o),
(1258,548,cs),
(1258,524,ls),
(1258,212,o),
(1155,108,o),
(846,108,cs),
(662,108,ls),
(353,108,o),
(250,212,o),
(250,524,cs),
(250,548,ls)
);
}
);
width = 1508;
},
{
anchors = (
{
name = bottom;
pos = (754,0);
},
{
name = center;
pos = (754,536);
},
{
name = ogonek;
pos = (1058,10);
},
{
name = top;
pos = (754,1092);
},
{
name = topright;
pos = (1258,1072);
}
);
layerId = m002;
shapes = (
{
closed = 1;
nodes = (
(90,521,ls),
(90,145,o),
(260,-20,o),
(650,-20,cs),
(860,-20,ls),
(1248,-20,o),
(1418,145,o),
(1418,521,cs),
(1418,551,ls),
(1418,927,o),
(1248,1092,o),
(860,1092,cs),
(650,1092,ls),
(260,1092,o),
(90,927,o),
(90,551,cs)
);
},
{
closed = 1;
nodes = (
(450,740,o),
(503,804,o),
(663,804,cs),
(847,804,ls),
(1005,804,o),
(1058,740,o),
(1058,548,cs),
(1058,524,ls),
(1058,332,o),
(1005,268,o),
(847,268,cs),
(663,268,ls),
(503,268,o),
(450,332,o),
(450,524,cs),
(450,548,ls)
);
}
);
width = 1508;
}
);
unicode = 111;
},
{
glyphname = thorn;
kernLeft = a;
kernRight = c;
lastChange = "2025-03-10 17:52:26 +0000";
layers = (
{
layerId = m01;
shapes = (
{
closed = 1;
nodes = (
(120,-262,ls),
(120,-310,o),
(143,-336,o),
(192,-336,cs),
(208,-336,ls),
(257,-336,o),
(280,-310,o),
(280,-262,cs),
(280,1334,ls),
(280,1382,o),
(257,1408,o),
(208,1408,cs),
(192,1408,ls),
(143,1408,o),
(120,1382,o),
(120,1334,cs)
);
},
{
pos = (280,0);
ref = "_bowl-b";
}
);
width = 1522;
},
{
layerId = m002;
shapes = (
{
closed = 1;
nodes = (
(120,-262,ls),
(120,-310,o),
(146,-336,o),
(195,-336,cs),
(405,-336,ls),
(454,-336,o),
(480,-310,o),
(480,-262,cs),
(480,1334,ls),
(480,1382,o),
(454,1408,o),
(405,1408,cs),
(195,1408,ls),
(146,1408,o),
(120,1382,o),
(120,1334,cs)
);
},
{
pos = (480,0);
ref = "_bowl-b";
}
);
width = 1522;
}
);
unicode = 254;
},
{
glyphname = r;
kernLeft = a;
kernRight = r;
lastChange = "2025-03-12 13:30:46 +0000";
layers = (
{
anchors = (
{
name = bottom;
pos = (215,0);
},
{
name = top;
pos = (519,1072);
}
);
layerId = m01;
shapes = (
{
closed = 1;
nodes = (
(223,0,ls),
(272,0,o),
(295,26,o),
(295,74,cs),
(295,663,ls),
(295,869,o),
(421,938,o),
(799,938,cs),
(847,938,ls),
(886,938,o),
(903,955,o),
(903,994,cs),
(903,1016,ls),
(903,1055,o),
(886,1072,o),
(847,1072,cs),
(799,1072,ls),
(531,1072,o),
(378,1025,o),
(295,917,c),
(295,997,ls),
(295,1046,o),
(272,1072,o),
(223,1072,cs),
(207,1072,ls),
(159,1072,o),
(135,1046,o),
(135,997,cs),
(135,74,ls),
(135,26,o),
(159,0,o),
(207,0,cs)
);
}
);
width = 1008;
},
{
anchors = (
{
name = bottom;
pos = (315,0);
},
{
name = top;
pos = (495,1072);
}
);
layerId = m002;
shapes = (
{
closed = 1;
nodes = (
(421,4,ls),
(469,4,o),
(495,30,o),
(495,78,cs),
(495,548,ls),
(495,725,o),
(572,784,o),
(802,784,cs),
(829,784,ls),
(877,784,o),
(903,796,o),
(903,845,cs),
(903,997,ls),
(903,1046,o),
(877,1072,o),
(829,1072,cs),
(802,1072,ls),
(660,1072,o),
(567,1050,o),
(495,1000,c),
(495,1000,ls),
(495,1049,o),
(469,1072,o),
(421,1072,cs),
(209,1072,ls),
(161,1072,o),
(135,1046,o),
(135,997,cs),
(135,78,ls),
(135,30,o),
(161,4,o),
(209,4,cs)
);
}
);
width = 1008;
}
);
unicode = 114;
},
{
glyphname = s;
kernLeft = a;
kernRight = a;
lastChange = "2025-03-08 23:17:53 +0000";
layers = (
{
anchors = (
{
name = bottom;
pos = (807,0);
},
{
name = top;
pos = (807,1092);
}
);
layerId = m01;
shapes = (
{
closed = 1;
nodes = (
(904,-20,ls),
(1314,-20,o),
(1493,70,o),
(1493,277,cs),
(1493,311,ls),
(1493,507,o),
(1317,595,o),
(914,599,cs),
(714,601,ls),
(389,604,o),
(281,646,o),
(281,768,cs),
(281,792,ls),
(281,921,o),
(392,964,o),
(723,964,cs),
(907,964,ls),
(1205,964,o),
(1311,923,o),
(1333,798,cs),
(1341,752,o),
(1362,728,o),
(1408,728,cs),
(1424,728,ls),
(1471,728,o),
(1499,755,o),
(1493,805,cs),
(1466,1005,o),
(1292,1092,o),
(920,1092,cs),
(710,1092,ls),
(300,1092,o),
(121,1001,o),
(121,794,cs),
(121,768,ls),
(121,567,o),
(297,477,o),
(700,473,cs),
(900,471,ls),
(1225,468,o),
(1333,426,o),
(1333,304,cs),
(1333,280,ls),
(1333,151,o),
(1223,108,o),
(891,108,cs),
(707,108,ls),
(410,108,o),
(303,150,o),
(281,274,cs),
(272,320,o),
(252,344,o),
(205,344,cs),
(190,344,ls),
(143,344,o),
(115,317,o),
(121,267,cs),
(148,67,o),
(322,-20,o),
(694,-20,cs)
);
}
);
width = 1614;
},
{
anchors = (
{
name = bottom;
pos = (807,-22);
},
{
name = top;
pos = (807,1094);
}
);
layerId = m002;
shapes = (
{
closed = 1;
nodes = (
(905,-20,ls),
(1309,-20,o),
(1486,80,o),
(1486,308,cs),
(1486,335,ls),
(1486,570,o),
(1312,675,o),
(915,679,cs),
(715,681,ls),
(545,683,o),
(488,696,o),
(488,734,cs),
(488,752,ls),
(488,791,o),
(547,804,o),
(724,804,cs),
(908,804,ls),
(1023,804,o),
(1064,800,o),
(1089,788,cs),
(1126,770,o),
(1150,752,o),
(1190,752,cs),
(1419,752,ls),
(1477,752,o),
(1509,788,o),
(1486,843,cs),
(1415,1014,o),
(1261,1092,o),
(921,1092,cs),
(711,1092,ls),
(305,1092,o),
(128,992,o),
(128,764,cs),
(128,737,ls),
(128,502,o),
(302,397,o),
(701,393,cs),
(901,391,ls),
(1070,389,o),
(1126,376,o),
(1126,338,cs),
(1126,320,ls),
(1126,281,o),
(1068,268,o),
(892,268,cs),
(708,268,ls),
(591,268,o),
(550,272,o),
(525,284,cs),
(488,302,o),
(464,320,o),
(424,320,cs),
(195,320,ls),
(137,320,o),
(105,284,o),
(128,229,cs),
(199,58,o),
(353,-20,o),
(695,-20,cs)
);
}
);
width = 1614;
}
);
unicode = 115;
},
{
glyphname = germandbls;
kernLeft = f;
kernRight = O;
lastChange = "2025-03-10 18:38:09 +0000";
layers = (
{
anchors = (
{
name = bottom;
pos = (790,0);
},
{
name = top;
pos = (790,1536);
}
);
layerId = m01;
shapes = (
{
closed = 1;
nodes = (
(1021,0,ls),
(1347,0,o),
(1490,117,o),
(1490,383,cs),
(1490,413,ls),
(1490,574,o),
(1417,662,o),
(1251,704,c),
(1376,747,o),
(1430,842,o),
(1430,1016,cs),
(1430,1046,ls),
(1430,1312,o),
(1272,1428,o),
(910,1428,cs),
(700,1428,ls),
(296,1428,o),
(120,1281,o),
(120,945,cs),
(120,74,ls),
(120,26,o),
(144,0,o),
(193,1,cs),
(207,1,ls),
(255,2,o),
(280,29,o),
(280,76,cs),
(280,944,ls),
(280,1211,o),
(390,1300,o),
(718,1300,cs),
(892,1300,ls),
(1176,1300,o),
(1270,1236,o),
(1270,1043,cs),
(1270,1019,ls),
(1270,831,o),
(1208,768,o),
(1020,768,cs),
(823,768,ls),
(782,768,o),
(768,756,o),
(768,718,cs),
(768,695,ls),
(768,654,o),
(782,640,o),
(823,640,cs),
(1008,640,ls),
(1250,640,o),
(1330,583,o),
(1330,410,cs),
(1330,386,ls),
(1330,193,o),
(1250,128,o),
(1008,128,cs),
(536,128,ls),
(494,128,o),
(480,114,o),
(480,72,cs),
(480,56,ls),
(480,19,o),
(499,0,o),
(536,0,cs)
);
}
);
width = 1580;
},
{
anchors = (
{
name = bottom;
pos = (790,0);
},
{
name = top;
pos = (790,1536);
}
);
layerId = m002;
shapes = (
{
closed = 1;
nodes = (
(1021,0,ls),
(1347,0,o),
(1490,103,o),
(1490,337,cs),
(1490,367,ls),
(1490,527,o),
(1429,630,o),
(1288,704,c),
(1387,778,o),
(1430,883,o),
(1430,1051,cs),
(1430,1081,ls),
(1430,1322,o),
(1272,1428,o),
(910,1428,cs),
(700,1428,ls),
(296,1428,o),
(120,1281,o),
(120,945,cs),
(120,74,ls),
(120,26,o),
(146,1,o),
(195,1,cs),
(405,1,ls),
(453,1,o),
(480,29,o),
(480,76,cs),
(480,944,ls),
(480,1092,o),
(561,1140,o),
(713,1140,cs),
(897,1140,ls),
(1017,1140,o),
(1070,1100,o),
(1070,1007,cs),
(1070,981,ls),
(1070,881,o),
(1015,848,o),
(850,848,cs),
(823,848,ls),
(787,848,o),
(768,831,o),
(768,793,cs),
(768,615,ls),
(768,578,o),
(787,560,o),
(823,560,cs),
(989,560,ls),
(1039,560,o),
(1130,512,o),
(1130,437,cs),
(1130,411,ls),
(1130,336,o),
(1039,288,o),
(989,288,cs),
(663,288,ls),
(626,288,o),
(608,269,o),
(608,233,cs),
(608,56,ls),
(608,20,o),
(626,0,o),
(663,0,cs)
);
}
);
width = 1580;
}
);
unicode = 223;
},
{
glyphname = t;
kernLeft = O;
kernRight = e;
lastChange = "2025-03-12 15:56:38 +0000";
layers = (
{
anchors = (
{
name = bottom;
pos = (694,0);
},
{
name = center;
pos = (418,704);
},
{
name = top;
pos = (694,1408);
},
{
name = topright;
pos = (1162,1536);
}
);
layerId = m01;
shapes = (
{
closed = 1;
nodes = (
(799,0,ls),
(1075,0,o),
(1203,121,o),
(1220,397,cs),
(1223,448,o),
(1197,476,o),
(1149,476,cs),
(1134,476,ls),
(1086,476,o),
(1063,449,o),
(1060,399,cs),
(1048,200,o),
(980,134,o),
(786,134,cs),
(602,134,ls),
(394,134,o),
(325,205,o),
(325,417,cs),
(325,944,l),
(1106,944,ls),
(1142,944,o),
(1162,964,o),
(1162,1000,cs),
(1162,1016,ls),
(1162,1052,o),
(1142,1072,o),
(1106,1072,cs),
(325,1072,l),
(325,1334,ls),
(325,1382,o),
(300,1408,o),
(252,1408,cs),
(237,1408,ls),
(189,1408,o),
(165,1382,o),
(165,1334,cs),
(165,418,ls),
(165,127,o),
(294,0,o),
(589,0,cs)
);
}
);
width = 1355;
},
{
anchors = (
{
name = bottom;
pos = (692,0);
},
{
name = center;
pos = (418,630);
},
{
name = top;
pos = (694,1408);
},
{
name = topright;
pos = (1163,1566);
}
);
layerId = m002;
shapes = (
{
closed = 1;
nodes = (
(797,0,ls),
(1066,0,o),
(1194,121,o),
(1218,399,cs),
(1223,450,o),
(1195,476,o),
(1147,476,cs),
(935,476,ls),
(883,476,o),
(863,459,o),
(858,406,cs),
(849,318,o),
(830,288,o),
(784,288,cs),
(600,288,ls),
(544,288,o),
(525,329,o),
(525,450,cs),
(525,784,l),
(1089,784,ls),
(1137,784,o),
(1163,810,o),
(1163,858,cs),
(1163,998,ls),
(1163,1046,o),
(1137,1072,o),
(1089,1072,cs),
(525,1072,l),
(525,1334,ls),
(525,1382,o),
(499,1408,o),
(451,1408,cs),
(239,1408,ls),
(191,1408,o),
(165,1382,o),
(165,1334,cs),
(165,418,ls),
(165,127,o),
(293,0,o),
(587,0,cs)
);
}
);
width = 1354;
}
);
unicode = 116;
},
{
glyphname = tbar;
kernLeft = O;
kernRight = e;
lastChange = "2025-03-08 23:37:31 +0000";
layers = (
{
layerId = m01;
shapes = (
{
closed = 1;
nodes = (
(634,576,ls),
(670,576,o),
(690,596,o),
(690,632,cs),
(690,648,ls),
(690,684,o),
(670,704,o),
(634,704,cs),
(56,704,ls),
(20,704,o),
(0,684,o),
(0,648,cs),
(0,632,ls),
(0,596,o),
(20,576,o),
(56,576,cs)
);
},
{
ref = t;
}
);
width = 1355;
},
{
layerId = m002;
shapes = (
{
closed = 1;
nodes = (
(616,416,ls),
(664,416,o),
(690,442,o),
(690,490,cs),
(690,630,ls),
(690,678,o),
(664,704,o),
(616,704,cs),
(74,704,ls),
(26,704,o),
(0,678,o),
(0,630,cs),
(0,490,ls),
(0,442,o),
(26,416,o),
(74,416,cs)
);
},
{
ref = t;
}
);
width = 1354;
}
);
unicode = 359;
},
{
glyphname = ubar;
kernLeft = a;
kernRight = a;
lastChange = "2025-03-02 15:42:17 +0000";
layers = (
{
layerId = m01;
shapes = (
{
alignment = -1;
ref = u;
},
{
closed = 1;
nodes = (
(0,510,ls),
(0,474,o),
(20,454,o),
(56,454,cs),
(1446,454,ls),
(1482,454,o),
(1502,474,o),
(1502,510,cs),
(1502,562,ls),
(1502,598,o),
(1482,618,o),
(1446,618,cs),
(56,618,ls),
(20,618,o),
(0,598,o),
(0,562,cs)
);
}
);
width = 1502;
},
{
layerId = m002;
shapes = (
{
alignment = -1;
ref = u;
},
{
closed = 1;
nodes = (
(0,501,ls),
(0,464,o),
(20,445,o),
(56,445,cs),
(1433,445,ls),
(1469,445,o),
(1489,464,o),
(1489,501,cs),
(1489,724,ls),
(1489,760,o),
(1469,780,o),
(1433,780,cs),
(56,780,ls),
(20,780,o),
(0,760,o),
(0,724,cs)
);
}
);
width = 1489;
}
);
unicode = 649;
},
{
glyphname = v;
kernLeft = v;
kernRight = v;
lastChange = "2025-03-12 13:44:42 +0000";
layers = (
{
anchors = (
{
name = bottom;
pos = (745,0);
},
{
name = top;
pos = (745,1072);
}
);
layerId = m01;
shapes = (
{
closed = 1;
nodes = (
(805,0,ls),
(832,0,o),
(849,10,o),
(863,34,cs),
(1421,1013,ls),
(1441,1048,o),
(1427,1072,o),
(1394,1072,cs),
(1328,1072,ls),
(1301,1072,o),
(1283,1062,o),
(1269,1037,cs),
(745,128,l),
(221,1037,ls),
(207,1062,o),
(189,1072,o),
(162,1072,cs),
(96,1072,ls),
(62,1072,o),
(49,1048,o),
(69,1013,cs),
(627,34,ls),
(641,10,o),
(658,0,o),
(685,0,cs)
);
}
);
width = 1490;
},
{
anchors = (
{
name = bottom;
pos = (747,0);
},
{
name = top;
pos = (747,1072);
}
);
layerId = m002;
shapes = (
{
closed = 1;
nodes = (
(929,0,ls),
(956,0,o),
(976,10,o),
(987,34,cs),
(1425,1013,ls),
(1441,1048,o),
(1431,1072,o),
(1398,1072,cs),
(1139,1072,ls),
(1112,1072,o),
(1093,1063,o),
(1081,1037,cs),
(746,288,l),
(411,1037,ls),
(399,1063,o),
(380,1072,o),
(353,1072,cs),
(94,1072,ls),
(61,1072,o),
(51,1048,o),
(67,1013,cs),
(505,34,ls),
(516,10,o),
(536,0,o),
(563,0,cs)
);
}
);
width = 1492;
}
);
unicode = 118;
},
{
glyphname = w;
kernLeft = w;
kernRight = w;
lastChange = "2025-03-10 01:07:01 +0000";
layers = (
{
anchors = (
{
name = bottom;
pos = (616,0);
},
{
name = top;
pos = (616,1072);
}
);
layerId = m01;
shapes = (
{
closed = 1;
nodes = (
(651,0,ls),
(678,0,o),
(696,11,o),
(707,39,cs),
(1074,944,l),
(1441,39,ls),
(1452,11,o),
(1468,0,o),
(1496,0,cs),
(1626,0,ls),
(1654,0,o),
(1670,11,o),
(1681,39,cs),
(2072,1004,ls),
(2090,1047,o),
(2078,1072,o),
(2038,1072,cs),
(1988,1072,ls),
(1961,1072,o),
(1939,1061,o),
(1928,1033,cs),
(1561,128,l),
(1561,128,l),
(1194,1033,ls),
(1183,1061,o),
(1162,1072,o),
(1135,1072,cs),
(1013,1072,ls),
(986,1072,o),
(965,1061,o),
(954,1033,cs),
(587,128,l),
(587,128,l),
(220,1033,ls),
(209,1061,o),
(187,1072,o),
(160,1072,cs),
(110,1072,ls),
(70,1072,o),
(58,1047,o),
(76,1004,cs),
(467,39,ls),
(478,11,o),
(495,0,o),
(522,0,cs)
);
}
);
width = 2148;
},
{
anchors = (
{
name = bottom;
pos = (1084,0);
},
{
name = top;
pos = (1084,1072);
}
);
layerId = m002;
shapes = (
{
closed = 1;
nodes = (
(799,0,ls),
(846,0,o),
(877,22,o),
(889,68,cs),
(1084,784,l),
(1279,68,ls),
(1291,22,o),
(1322,0,o),
(1369,0,cs),
(1745,0,ls),
(1792,0,o),
(1822,22,o),
(1834,68,cs),
(2082,983,ls),
(2097,1039,o),
(2070,1072,o),
(2013,1072,cs),
(1842,1072,ls),
(1795,1072,o),
(1764,1050,o),
(1752,1004,cs),
(1557,288,l),
(1557,288,l),
(1362,1004,ls),
(1350,1050,o),
(1319,1072,o),
(1272,1072,cs),
(896,1072,ls),
(849,1072,o),
(818,1050,o),
(806,1004,cs),
(611,288,l),
(611,288,l),
(416,1004,ls),
(404,1050,o),
(373,1072,o),
(326,1072,cs),
(155,1072,ls),
(98,1072,o),
(71,1039,o),
(86,983,cs),
(334,68,ls),
(346,22,o),
(376,0,o),
(423,0,cs)
);
}
);
width = 2168;
}
);
unicode = 119;
},
{
glyphname = x;
kernLeft = z;
kernRight = z;
lastChange = "2025-03-10 01:08:07 +0000";
layers = (
{
anchors = (
{
name = bottom;
pos = (749,0);
},
{
name = top;
pos = (749,1072);
}
);
layerId = m01;
shapes = (
{
closed = 1;
nodes = (
(1217,29,ls),
(1239,9,o),
(1258,0,o),
(1286,0,cs),
(1361,0,ls),
(1410,0,o),
(1424,35,o),
(1387,69,cs),
(309,1043,ls),
(287,1063,o),
(268,1072,o),
(240,1072,cs),
(166,1072,ls),
(117,1072,o),
(102,1037,o),
(139,1003,cs)
);
},
{
closed = 1;
nodes = (
(212,0,ls),
(240,0,o),
(259,9,o),
(281,29,cs),
(1359,1003,ls),
(1396,1037,o),
(1380,1072,o),
(1330,1072,cs),
(1258,1072,ls),
(1230,1072,o),
(1211,1063,o),
(1189,1043,cs),
(111,69,ls),
(74,35,o),
(88,0,o),
(137,0,cs)
);
}
);
width = 1498;
},
{
anchors = (
{
name = bottom;
pos = (751,0);
},
{
name = top;
pos = (751,1072);
}
);
layerId = m002;
shapes = (
{
closed = 1;
nodes = (
(997,29,ls),
(1016,7,o),
(1038,0,o),
(1066,0,cs),
(1367,0,ls),
(1416,0,o),
(1426,32,o),
(1393,69,cs),
(534,1043,ls),
(515,1064,o),
(493,1072,o),
(465,1072,cs),
(164,1072,ls),
(115,1072,o),
(104,1040,o),
(136,1003,cs)
);
},
{
closed = 1;
nodes = (
(436,0,ls),
(465,0,o),
(487,7,o),
(506,29,cs),
(1366,1003,ls),
(1399,1040,o),
(1387,1072,o),
(1337,1072,cs),
(1038,1072,ls),
(1010,1072,o),
(987,1064,o),
(969,1043,cs),
(109,69,ls),
(76,32,o),
(87,0,o),
(135,0,cs)
);
}
);
width = 1502;
}
);
unicode = 120;
},
{
glyphname = y;
kernLeft = v;
kernRight = w;
lastChange = "2025-03-12 13:46:15 +0000";
layers = (
{
anchors = (
{
name = bottom;
pos = (730,-240);
},
{
name = top;
pos = (730,1072);
}
);
layerId = m01;
shapes = (
{
closed = 1;
nodes = (
(459,-464,o),
(637,-324,o),
(842,34,cs),
(1406,1013,ls),
(1426,1047,o),
(1413,1072,o),
(1379,1072,cs),
(1312,1072,ls),
(1285,1072,o),
(1269,1062,o),
(1254,1037,cs),
(730,128,l),
(206,1037,ls),
(192,1062,o),
(175,1072,o),
(148,1072,cs),
(81,1072,ls),
(47,1072,o),
(34,1048,o),
(54,1013,cs),
(618,34,ls),
(632,9,o),
(645,1,o),
(657,1,cs),
(657,1,o),
(657,1,o),
(657,1,c),
(508,-259,o),
(409,-331,o),
(237,-336,cs),
(201,-337,o),
(181,-356,o),
(181,-392,cs),
(181,-408,ls),
(181,-444,o),
(201,-464,o),
(237,-464,cs)
);
}
);
width = 1477;
},
{
anchors = (
{
name = bottom;
pos = (740,-344);
},
{
name = top;
pos = (740,1072);
}
);
layerId = m002;
shapes = (
{
closed = 1;
nodes = (
(598,-480,o),
(828,-324,o),
(988,34,cs),
(1426,1013,ls),
(1442,1049,o),
(1432,1072,o),
(1399,1072,cs),
(1140,1072,ls),
(1113,1072,o),
(1094,1064,o),
(1082,1037,cs),
(739,292,l),
(396,1037,ls),
(383,1064,o),
(364,1072,o),
(337,1072,cs),
(79,1072,ls),
(46,1072,o),
(36,1049,o),
(52,1013,cs),
(490,34,ls),
(501,9,o),
(522,0,o),
(549,0,cs),
(549,0,o),
(618,0,o),
(618,0,c),
(556,-138,o),
(460,-186,o),
(233,-192,cs),
(197,-193,o),
(178,-211,o),
(178,-248,cs),
(178,-425,ls),
(178,-461,o),
(197,-480,o),
(233,-480,cs)
);
}
);
width = 1495;
}
);
unicode = 121;
},
{
glyphname = z;
kernLeft = z;
kernRight = z;
lastChange = "2025-03-12 13:46:29 +0000";
layers = (
{
anchors = (
{
name = bottom;
pos = (692,0);
},
{
name = center;
pos = (692,536);
},
{
name = top;
pos = (692,1072);
}
);
layerId = m01;
shapes = (
{
closed = 1;
nodes = (
(1207,0,ls),
(1243,0,o),
(1263,20,o),
(1263,56,cs),
(1263,72,ls),
(1263,108,o),
(1243,128,o),
(1207,128,cs),
(347,128,l),
(1219,915,ls),
(1248,942,o),
(1264,963,o),
(1264,1000,cs),
(1264,1016,ls),
(1264,1052,o),
(1244,1072,o),
(1208,1072,cs),
(177,1072,ls),
(141,1072,o),
(121,1052,o),
(121,1016,cs),
(121,1000,ls),
(121,963,o),
(141,944,o),
(177,944,cs),
(1036,944,l),
(165,157,ls),
(136,130,o),
(120,108,o),
(120,72,cs),
(120,56,ls),
(120,20,o),
(140,0,o),
(176,0,cs)
);
}
);
width = 1384;
},
{
anchors = (
{
name = bottom;
pos = (692,0);
},
{
name = center;
pos = (692,536);
},
{
name = top;
pos = (692,1072);
}
);
layerId = m002;
shapes = (
{
closed = 1;
nodes = (
(1206,0,ls),
(1243,0,o),
(1263,20,o),
(1263,56,cs),
(1263,233,ls),
(1263,269,o),
(1243,288,o),
(1206,288,cs),
(646,288,l),
(1219,761,ls),
(1251,787,o),
(1264,804,o),
(1264,840,cs),
(1264,1016,ls),
(1264,1052,o),
(1244,1072,o),
(1207,1072,cs),
(177,1072,ls),
(141,1072,o),
(121,1052,o),
(121,1016,cs),
(121,840,ls),
(121,804,o),
(141,784,o),
(178,784,cs),
(738,784,l),
(165,311,ls),
(133,285,o),
(120,268,o),
(120,232,cs),
(120,56,ls),
(120,20,o),
(140,0,o),
(177,0,cs)
);
}
);
width = 1384;
}
);
unicode = 122;
},
{
glyphname = ordfeminine;
lastChange = "2025-03-13 21:39:18 +0000";
layers = (
{
layerId = m01;
shapes = (
{
closed = 1;
nodes = (
(1044,556,ls),
(1084,556,o),
(1106,578,o),
(1106,619,cs),
(1106,1012,ls),
(1106,1308,o),
(969,1438,o),
(657,1438,cs),
(503,1438,ls),
(233,1438,o),
(105,1371,o),
(82,1218,cs),
(76,1176,o),
(101,1152,o),
(143,1152,cs),
(166,1152,ls),
(206,1152,o),
(233,1173,o),
(242,1211,cs),
(256,1285,o),
(326,1310,o),
(520,1310,cs),
(640,1310,ls),
(868,1310,o),
(946,1235,o),
(946,1011,cs),
(946,621,ls),
(946,581,o),
(969,556,o),
(1009,556,cs)
);
},
{
closed = 1;
nodes = (
(628,536,ls),
(905,536,o),
(1026,613,o),
(1026,789,cs),
(1026,817,ls),
(1026,992,o),
(905,1069,o),
(628,1069,cs),
(508,1069,ls),
(198,1069,o),
(62,992,o),
(62,817,cs),
(62,789,ls),
(62,613,o),
(198,536,o),
(508,536,cs)
);
},
{
closed = 1;
nodes = (
(296,664,o),
(222,696,o),
(222,791,cs),
(222,815,ls),
(222,910,o),
(296,941,o),
(518,941,cs),
(618,941,ls),
(864,941,o),
(946,910,o),
(946,815,cs),
(946,791,ls),
(946,696,o),
(864,664,o),
(618,664,cs),
(518,664,ls)
);
}
);
width = 1168;
},
{
layerId = m002;
shapes = (
{
closed = 1;
nodes = (
(1043,556,ls),
(1084,556,o),
(1106,577,o),
(1106,618,cs),
(1106,977,ls),
(1106,1298,o),
(969,1438,o),
(657,1438,cs),
(503,1438,ls),
(233,1438,o),
(105,1372,o),
(82,1220,cs),
(75,1179,o),
(101,1154,o),
(142,1154,cs),
(286,1154,ls),
(314,1154,o),
(331,1176,o),
(335,1182,cs),
(347,1212,o),
(397,1222,o),
(534,1222,cs),
(626,1222,ls),
(797,1222,o),
(854,1161,o),
(854,976,cs),
(854,620,ls),
(854,580,o),
(876,556,o),
(916,556,cs)
);
},
{
closed = 1;
nodes = (
(628,536,ls),
(873,536,o),
(980,619,o),
(980,809,cs),
(980,818,ls),
(980,1008,o),
(873,1091,o),
(628,1091,cs),
(508,1091,ls),
(198,1091,o),
(62,1008,o),
(62,818,cs),
(62,809,ls),
(62,619,o),
(198,536,o),
(508,536,cs)
);
},
{
closed = 1;
nodes = (
(365,752,o),
(314,765,o),
(314,803,cs),
(314,823,ls),
(314,862,o),
(365,875,o),
(518,875,cs),
(618,875,ls),
(795,875,o),
(854,862,o),
(854,823,cs),
(854,803,ls),
(854,765,o),
(795,752,o),
(618,752,cs),
(518,752,ls)
);
}
);
width = 1168;
}
);
unicode = 170;
},
{
glyphname = ordmasculine;
lastChange = "2025-03-13 21:40:36 +0000";
layers = (
{
layerId = m01;
shapes = (
{
closed = 1;
nodes = (
(62,973,ls),
(62,669,o),
(195,536,o),
(499,536,cs),
(669,536,ls),
(973,536,o),
(1106,669,o),
(1106,973,cs),
(1106,1001,ls),
(1106,1305,o),
(973,1438,o),
(669,1438,cs),
(499,1438,ls),
(195,1438,o),
(62,1305,o),
(62,1001,cs)
);
},
{
closed = 1;
nodes = (
(222,1232,o),
(294,1310,o),
(509,1310,cs),
(659,1310,ls),
(874,1310,o),
(946,1232,o),
(946,996,cs),
(946,976,ls),
(946,742,o),
(874,664,o),
(659,664,cs),
(509,664,ls),
(294,664,o),
(222,742,o),
(222,976,cs),
(222,996,ls)
);
}
);
width = 1168;
},
{
layerId = m002;
shapes = (
{
closed = 1;
nodes = (
(62,959,ls),
(62,654,o),
(195,521,o),
(499,521,cs),
(669,521,ls),
(973,521,o),
(1106,654,o),
(1106,959,cs),
(1106,983,ls),
(1106,1289,o),
(973,1423,o),
(669,1423,cs),
(499,1423,ls),
(195,1423,o),
(62,1289,o),
(62,983,cs)
);
},
{
closed = 1;
nodes = (
(313,1141,o),
(372,1194,o),
(549,1194,cs),
(619,1194,ls),
(795,1194,o),
(854,1141,o),
(854,982,cs),
(854,961,ls),
(854,802,o),
(795,749,o),
(619,749,cs),
(549,749,ls),
(372,749,o),
(313,802,o),
(313,961,cs),
(313,982,ls)
);
}
);
width = 1168;
}
);
unicode = 186;
},
{
glyphname = Delta;
kernLeft = A;
kernRight = A;
lastChange = "2025-03-15 20:31:48 +0000";
layers = (
{
layerId = m01;
shapes = (
{
closed = 1;
nodes = (
(865,1408,o),
(838,1393,o),
(817,1357,cs),
(73,89,ls),
(43,37,o),
(65,0,o),
(124,0,cs),
(1868,0,ls),
(1926,0,o),
(1949,37,o),
(1919,89,cs),
(1175,1357,ls),
(1154,1393,o),
(1127,1408,o),
(1086,1408,cs),
(906,1408,ls)
);
},
{
closed = 1;
nodes = (
(966,1264,l),
(1026,1264,l),
(1683,144,l),
(309,144,l)
);
}
);
width = 1992;
},
{
layerId = m002;
shapes = (
{
closed = 1;
nodes = (
(748,1408,o),
(717,1394,o),
(699,1357,cs),
(71,89,ls),
(45,37,o),
(64,0,o),
(123,0,cs),
(1870,0,ls),
(1929,0,o),
(1949,37,o),
(1923,89,cs),
(1294,1357,ls),
(1276,1394,o),
(1246,1408,o),
(1204,1408,cs),
(790,1408,ls)
);
},
{
closed = 1;
nodes = (
(967,1084,l),
(1027,1084,l),
(1404,324,l),
(590,324,l)
);
}
);
width = 1994;
}
);
unicode = 916;
},
{
glyphname = Theta;
kernLeft = O;
kernRight = O;
lastChange = "2025-03-03 03:31:09 +0000";
layers = (
{
layerId = m01;
shapes = (
{
ref = O;
},
{
closed = 1;
nodes = (
(462,696,ls),
(462,656,o),
(488,632,o),
(529,632,cs),
(1467,632,ls),
(1508,632,o),
(1534,656,o),
(1534,696,cs),
(1534,712,ls),
(1534,753,o),
(1508,776,o),
(1467,776,cs),
(529,776,ls),
(488,776,o),
(462,753,o),
(462,712,cs)
);
}
);
width = 1995;
},
{
layerId = m002;
shapes = (
{
ref = O;
},
{
closed = 1;
nodes = (
(462,620,ls),
(462,583,o),
(481,564,o),
(517,564,cs),
(1478,564,ls),
(1514,564,o),
(1533,583,o),
(1533,620,cs),
(1533,810,ls),
(1533,846,o),
(1514,865,o),
(1478,865,cs),
(517,865,ls),
(481,865,o),
(462,846,o),
(462,810,cs)
);
}
);
width = 1995;
}
);
unicode = 920;
},
{
glyphname = Xi;
kernLeft = Z;
kernRight = Z;
lastChange = "2025-03-03 03:35:27 +0000";
layers = (
{
layerId = m01;
shapes = (
{
closed = 1;
nodes = (
(1588,1264,ls),
(1625,1264,o),
(1644,1287,o),
(1644,1328,cs),
(1644,1344,ls),
(1644,1385,o),
(1625,1408,o),
(1588,1408,cs),
(140,1408,ls),
(103,1408,o),
(84,1385,o),
(84,1344,cs),
(84,1328,ls),
(84,1287,o),
(103,1264,o),
(140,1264,cs)
);
},
{
closed = 1;
nodes = (
(1588,0,ls),
(1625,0,o),
(1644,23,o),
(1644,64,cs),
(1644,80,ls),
(1644,121,o),
(1625,144,o),
(1588,144,cs),
(140,144,ls),
(103,144,o),
(84,121,o),
(84,80,cs),
(84,64,ls),
(84,23,o),
(103,0,o),
(140,0,cs)
);
},
{
closed = 1;
nodes = (
(1438,634,ls),
(1475,634,o),
(1494,657,o),
(1494,698,cs),
(1494,714,ls),
(1494,755,o),
(1475,778,o),
(1438,778,cs),
(290,778,ls),
(253,778,o),
(234,755,o),
(234,714,cs),
(234,698,ls),
(234,657,o),
(253,634,o),
(290,634,cs)
);
}
);
width = 1728;
},
{
layerId = m002;
shapes = (
{
closed = 1;
nodes = (
(1574,1061,ls),
(1611,1061,o),
(1630,1080,o),
(1630,1117,cs),
(1630,1373,ls),
(1630,1410,o),
(1611,1429,o),
(1574,1429,cs),
(138,1429,ls),
(101,1429,o),
(82,1410,o),
(82,1373,cs),
(82,1117,ls),
(82,1080,o),
(101,1061,o),
(138,1061,cs)
);
},
{
closed = 1;
nodes = (
(1574,0,ls),
(1611,0,o),
(1630,20,o),
(1630,56,cs),
(1630,313,ls),
(1630,349,o),
(1611,368,o),
(1574,368,cs),
(138,368,ls),
(101,368,o),
(82,349,o),
(82,313,cs),
(82,56,ls),
(82,20,o),
(101,0,o),
(138,0,cs)
);
},
{
closed = 1;
nodes = (
(1426,530,ls),
(1462,530,o),
(1481,550,o),
(1481,586,cs),
(1481,843,ls),
(1481,879,o),
(1462,899,o),
(1426,899,cs),
(287,899,ls),
(250,899,o),
(231,879,o),
(231,843,cs),
(231,586,ls),
(231,550,o),
(250,530,o),
(287,530,cs)
);
}
);
width = 1712;
}
);
unicode = 926;
},
{
glyphname = Pi;
kernLeft = H;
kernRight = H;
lastChange = "2025-03-15 20:33:13 +0000";
layers = (
{
layerId = m01;
shapes = (
{
closed = 1;
nodes = (
(368,0,ls),
(416,0,o),
(441,26,o),
(441,74,cs),
(441,1264,l),
(1407,1264,l),
(1407,74,ls),
(1407,26,o),
(1432,0,o),
(1480,0,cs),
(1510,0,ls),
(1559,0,o),
(1583,26,o),
(1583,74,cs),
(1583,1264,l),
(1697,1264,ls),
(1738,1264,o),
(1764,1287,o),
(1764,1328,cs),
(1764,1344,ls),
(1764,1385,o),
(1738,1408,o),
(1697,1408,cs),
(151,1408,ls),
(110,1408,o),
(84,1385,o),
(84,1344,cs),
(84,1328,ls),
(84,1287,o),
(110,1264,o),
(151,1264,cs),
(265,1264,l),
(265,74,ls),
(265,26,o),
(290,0,o),
(338,0,cs)
);
}
);
width = 1848;
},
{
layerId = m002;
shapes = (
{
closed = 1;
nodes = (
(586,0,ls),
(634,0,o),
(661,26,o),
(661,74,cs),
(661,1084,l),
(1187,1084,l),
(1187,74,ls),
(1187,26,o),
(1213,0,o),
(1261,0,cs),
(1508,0,ls),
(1557,0,o),
(1583,26,o),
(1583,74,cs),
(1583,1084,l),
(1697,1084,ls),
(1738,1084,o),
(1764,1110,o),
(1764,1151,cs),
(1764,1341,ls),
(1764,1382,o),
(1738,1408,o),
(1697,1408,cs),
(151,1408,ls),
(110,1408,o),
(84,1382,o),
(84,1341,cs),
(84,1151,ls),
(84,1110,o),
(110,1084,o),
(151,1084,cs),
(265,1084,l),
(265,74,ls),
(265,26,o),
(291,0,o),
(339,0,cs)
);
}
);
width = 1848;
}
);
unicode = 928;
},
{
glyphname = Sigma;
kernLeft = H;
kernRight = Z;
lastChange = "2025-03-15 20:36:54 +0000";
layers = (
{
layerId = m01;
shapes = (
{
closed = 1;
nodes = (
(1748,0,ls),
(1789,0,o),
(1815,23,o),
(1815,64,cs),
(1815,80,ls),
(1815,121,o),
(1789,144,o),
(1748,144,cs),
(410,144,l),
(1179,651,ls),
(1221,678,o),
(1221,730,o),
(1179,757,cs),
(410,1264,l),
(1748,1264,ls),
(1789,1264,o),
(1815,1287,o),
(1815,1328,cs),
(1815,1344,ls),
(1815,1385,o),
(1789,1408,o),
(1748,1408,cs),
(202,1408,ls),
(161,1408,o),
(135,1382,o),
(135,1341,cs),
(135,1312,ls),
(135,1281,o),
(144,1247,o),
(175,1227,cs),
(968,704,l),
(175,181,ls),
(144,161,o),
(135,127,o),
(135,96,cs),
(135,67,ls),
(135,26,o),
(161,0,o),
(202,0,cs)
);
}
);
width = 1895;
},
{
layerId = m002;
shapes = (
{
closed = 1;
nodes = (
(1748,0,ls),
(1789,0,o),
(1815,25,o),
(1815,66,cs),
(1815,258,ls),
(1815,298,o),
(1789,324,o),
(1748,324,cs),
(776,324,l),
(1273,652,ls),
(1315,680,o),
(1316,727,o),
(1273,756,cs),
(776,1084,l),
(1748,1084,ls),
(1789,1084,o),
(1815,1110,o),
(1815,1150,cs),
(1815,1341,ls),
(1815,1382,o),
(1789,1408,o),
(1748,1408,cs),
(202,1408,ls),
(161,1408,o),
(135,1383,o),
(135,1342,cs),
(135,1132,ls),
(135,1101,o),
(142,1071,o),
(175,1049,cs),
(698,704,l),
(175,359,ls),
(142,337,o),
(135,306,o),
(135,276,cs),
(135,66,ls),
(135,25,o),
(161,0,o),
(202,0,cs)
);
}
);
width = 1895;
}
);
unicode = 931;
},
{
glyphname = Psi;
kernLeft = V;
kernRight = V;
lastChange = "2025-03-03 03:40:13 +0000";
layers = (
{
layerId = m01;
shapes = (
{
closed = 1;
nodes = (
(1701,1408,ls),
(1653,1408,o),
(1628,1382,o),
(1628,1334,cs),
(1628,965,ls),
(1628,721,o),
(1497,640,o),
(1105,640,cs),
(823,640,ls),
(431,640,o),
(300,721,o),
(300,965,cs),
(300,1334,ls),
(300,1382,o),
(275,1408,o),
(227,1408,cs),
(197,1408,ls),
(149,1408,o),
(124,1382,o),
(124,1334,cs),
(124,960,ls),
(124,637,o),
(331,496,o),
(804,496,cs),
(1124,496,ls),
(1597,496,o),
(1804,637,o),
(1804,960,cs),
(1804,1334,ls),
(1804,1382,o),
(1779,1408,o),
(1731,1408,cs)
);
},
{
alignment = -1;
pos = (756,0);
ref = "_stem-v-caps-CH";
}
);
width = 1928;
},
{
layerId = m002;
shapes = (
{
closed = 1;
nodes = (
(1463,1429,ls),
(1414,1429,o),
(1388,1403,o),
(1388,1355,cs),
(1388,965,ls),
(1388,797,o),
(1265,743,o),
(1090,743,cs),
(823,743,ls),
(648,743,o),
(525,797,o),
(525,965,cs),
(525,1355,ls),
(525,1403,o),
(499,1429,o),
(450,1429,cs),
(197,1429,ls),
(149,1429,o),
(123,1403,o),
(123,1355,cs),
(123,858,ls),
(123,491,o),
(469,374,o),
(804,374,cs),
(1109,374,ls),
(1444,374,o),
(1790,491,o),
(1790,858,cs),
(1790,1355,ls),
(1790,1403,o),
(1764,1429,o),
(1716,1429,cs)
);
},
{
alignment = -1;
pos = (636,0);
ref = "_stem-v-caps-CH";
}
);
width = 1913;
}
);
unicode = 936;
},
{
glyphname = Omega;
kernLeft = O;
kernRight = O;
lastChange = "2025-03-12 16:30:13 +0000";
layers = (
{
anchors = (
{
name = bottom;
pos = (960,0);
},
{
name = topleft;
pos = (19,1429);
}
);
layerId = m01;
shapes = (
{
closed = 1;
nodes = (
(722,0,ls),
(770,0,o),
(796,26,o),
(796,74,cs),
(796,402,ls),
(796,449,o),
(770,476,o),
(719,477,cs),
(373,485,o),
(258,570,o),
(258,816,cs),
(258,852,ls),
(258,1184,o),
(400,1294,o),
(827,1294,cs),
(1093,1294,ls),
(1521,1294,o),
(1663,1184,o),
(1663,852,cs),
(1663,816,ls),
(1663,570,o),
(1548,485,o),
(1201,477,cs),
(1151,476,o),
(1124,449,o),
(1124,402,cs),
(1124,74,ls),
(1124,26,o),
(1150,0,o),
(1198,0,cs),
(1742,0,ls),
(1783,0,o),
(1809,23,o),
(1809,64,cs),
(1809,80,ls),
(1809,121,o),
(1784,144,o),
(1742,144,cs),
(1300,144,l),
(1300,317,l),
(1675,345,o),
(1839,495,o),
(1839,811,cs),
(1839,856,ls),
(1839,1261,o),
(1618,1438,o),
(1113,1438,cs),
(808,1438,ls),
(303,1438,o),
(82,1261,o),
(82,856,cs),
(82,811,ls),
(82,494,o),
(246,344,o),
(621,317,c),
(621,144,l),
(179,144,ls),
(138,144,o),
(112,121,o),
(112,80,cs),
(112,64,ls),
(112,23,o),
(138,0,o),
(179,0,cs)
);
}
);
width = 1921;
},
{
anchors = (
{
name = bottom;
pos = (960,0);
},
{
name = topleft;
pos = (19,1429);
}
);
layerId = m002;
shapes = (
{
closed = 1;
nodes = (
(752,0,ls),
(800,0,o),
(826,26,o),
(826,74,cs),
(826,458,ls),
(826,505,o),
(798,528,o),
(749,533,cs),
(550,559,o),
(484,627,o),
(484,806,cs),
(484,842,ls),
(484,1046,o),
(570,1114,o),
(827,1114,cs),
(1093,1114,ls),
(1351,1114,o),
(1437,1046,o),
(1437,842,cs),
(1437,806,ls),
(1437,627,o),
(1371,559,o),
(1171,533,cs),
(1122,528,o),
(1094,505,o),
(1094,458,cs),
(1094,74,ls),
(1094,26,o),
(1120,0,o),
(1169,0,cs),
(1734,0,ls),
(1783,0,o),
(1809,26,o),
(1809,74,cs),
(1809,250,ls),
(1809,298,o),
(1783,324,o),
(1734,324,cs),
(1455,324,l),
(1455,325,l),
(1722,389,o),
(1839,539,o),
(1839,819,cs),
(1839,864,ls),
(1839,1263,o),
(1618,1438,o),
(1113,1438,cs),
(808,1438,ls),
(303,1438,o),
(82,1263,o),
(82,864,cs),
(82,819,ls),
(82,539,o),
(199,389,o),
(465,325,c),
(465,326,l),
(186,324,ls),
(138,324,o),
(112,298,o),
(112,250,cs),
(112,74,ls),
(112,26,o),
(138,0,o),
(186,0,cs)
);
}
);
width = 1921;
}
);
unicode = 937;
},
{
glyphname = pi;
kernLeft = a;
kernRight = a;
lastChange = "2025-03-02 15:42:17 +0000";
layers = (
{
layerId = m01;
shapes = (
{
closed = 1;
nodes = (
(324,0,ls),
(372,0,o),
(398,26,o),
(398,74,cs),
(398,938,l),
(1135,938,l),
(1135,74,ls),
(1135,26,o),
(1161,0,o),
(1210,0,cs),
(1225,0,ls),
(1273,0,o),
(1299,26,o),
(1299,74,cs),
(1299,938,l),
(1396,938,ls),
(1432,938,o),
(1452,957,o),
(1452,994,cs),
(1452,1016,ls),
(1452,1052,o),
(1432,1072,o),
(1396,1072,cs),
(138,1072,ls),
(101,1072,o),
(82,1052,o),
(82,1016,cs),
(82,994,ls),
(82,957,o),
(101,938,o),
(138,938,cs),
(234,938,l),
(234,74,ls),
(234,26,o),
(261,0,o),
(309,0,cs)
);
}
);
width = 1533;
},
{
layerId = m002;
shapes = (
{
closed = 1;
nodes = (
(529,0,ls),
(577,0,o),
(603,26,o),
(603,74,cs),
(603,770,l),
(930,770,l),
(930,74,ls),
(930,26,o),
(957,0,o),
(1005,0,cs),
(1225,0,ls),
(1273,0,o),
(1299,26,o),
(1299,74,cs),
(1299,770,l),
(1396,770,ls),
(1432,770,o),
(1452,790,o),
(1452,826,cs),
(1452,1016,ls),
(1452,1052,o),
(1432,1072,o),
(1396,1072,cs),
(138,1072,ls),
(101,1072,o),
(82,1052,o),
(82,1016,cs),
(82,826,ls),
(82,790,o),
(101,770,o),
(138,770,cs),
(234,770,l),
(234,74,ls),
(234,26,o),
(261,0,o),
(309,0,cs)
);
}
);
width = 1533;
}
);
unicode = 960;
},
{
glyphname = zero;
kernLeft = O;
kernRight = O;
lastChange = "2025-03-12 22:24:56 +0000";
layers = (
{
layerId = m01;
shapes = (
{
closed = 1;
nodes = (
(120,681,ls),
(120,186,o),
(341,-30,o),
(845,-30,cs),
(1075,-30,ls),
(1579,-30,o),
(1800,186,o),
(1800,681,cs),
(1800,727,ls),
(1800,1222,o),
(1579,1438,o),
(1075,1438,cs),
(845,1438,ls),
(341,1438,o),
(120,1222,o),
(120,727,cs)
);
},
{
closed = 1;
nodes = (
(299,1151,o),
(441,1294,o),
(865,1294,cs),
(1055,1294,ls),
(1480,1294,o),
(1621,1151,o),
(1621,722,cs),
(1621,686,ls),
(1621,261,o),
(1480,119,o),
(1055,119,cs),
(865,119,ls),
(441,119,o),
(299,261,o),
(299,686,cs),
(299,722,ls)
);
}
);
width = 1920;
},
{
layerId = m002;
shapes = (
{
closed = 1;
nodes = (
(120,681,ls),
(120,186,o),
(343,-30,o),
(852,-30,cs),
(1068,-30,ls),
(1577,-30,o),
(1800,186,o),
(1800,681,cs),
(1800,725,ls),
(1800,1221,o),
(1577,1438,o),
(1068,1438,cs),
(852,1438,ls),
(343,1438,o),
(120,1221,o),
(120,725,cs)
);
},
{
closed = 1;
nodes = (
(516,1015,o),
(613,1114,o),
(904,1114,cs),
(1016,1114,ls),
(1307,1114,o),
(1404,1015,o),
(1404,716,cs),
(1404,692,ls),
(1404,394,o),
(1307,294,o),
(1016,294,cs),
(904,294,ls),
(613,294,o),
(516,394,o),
(516,692,cs),
(516,716,ls)
);
}
);
width = 1920;
}
);
unicode = 48;
},
{
glyphname = one;
kernRight = O;
lastChange = "2025-03-14 19:05:15 +0000";
layers = (
{
layerId = m01;
shapes = (
{
closed = 1;
nodes = (
(1733,0,ls),
(1773,0,o),
(1800,23,o),
(1800,64,cs),
(1800,80,ls),
(1800,121,o),
(1773,144,o),
(1733,144,cs),
(1168,144,l),
(1168,1352,ls),
(1168,1389,o),
(1149,1408,o),
(1112,1408,cs),
(892,1408,ls),
(864,1408,o),
(844,1400,o),
(823,1379,cs),
(388,944,ls),
(363,919,o),
(363,891,o),
(388,866,cs),
(423,831,ls),
(448,806,o),
(476,806,o),
(501,831,cs),
(934,1264,l),
(992,1264,l),
(992,144,l),
(367,144,ls),
(326,144,o),
(300,121,o),
(300,80,cs),
(300,64,ls),
(300,23,o),
(326,0,o),
(367,0,cs)
);
}
);
width = 1920;
},
{
layerId = m002;
shapes = (
{
closed = 1;
nodes = (
(1725,0,ls),
(1767,0,o),
(1800,33,o),
(1800,75,cs),
(1800,249,ls),
(1800,291,o),
(1767,324,o),
(1725,324,cs),
(1285,324,l),
(1285,1329,ls),
(1285,1373,o),
(1250,1408,o),
(1206,1408,cs),
(895,1408,ls),
(848,1408,o),
(840,1404,o),
(818,1389,cs),
(362,1083,ls),
(314,1051,o),
(300,1026,o),
(339,969,cs),
(449,809,ls),
(482,760,o),
(517,753,o),
(564,785,cs),
(895,1007,l),
(895,1007,l),
(895,324,l),
(375,324,ls),
(333,324,o),
(300,291,o),
(300,249,cs),
(300,75,ls),
(300,33,o),
(333,0,o),
(375,0,cs)
);
}
);
width = 1920;
}
);
unicode = 49;
},
{
glyphname = two;
kernLeft = O;
kernRight = O;
lastChange = "2025-03-14 19:21:55 +0000";
layers = (
{
layerId = m01;
shapes = (
{
closed = 1;
nodes = (
(1733,0,ls),
(1774,0,o),
(1800,23,o),
(1800,64,cs),
(1800,80,ls),
(1800,121,o),
(1774,144,o),
(1733,144,cs),
(297,144,l),
(297,365,ls),
(297,532,o),
(436,589,o),
(859,595,cs),
(1071,598,ls),
(1576,605,o),
(1800,723,o),
(1800,988,cs),
(1800,1032,ls),
(1800,1314,o),
(1576,1438,o),
(1071,1438,cs),
(845,1438,ls),
(367,1438,o),
(148,1310,o),
(121,1016,cs),
(116,965,o),
(144,939,o),
(193,939,cs),
(225,939,ls),
(273,939,o),
(298,970,o),
(302,1012,cs),
(320,1224,o),
(456,1294,o),
(861,1294,cs),
(1055,1294,ls),
(1478,1294,o),
(1624,1230,o),
(1624,1036,cs),
(1624,1001,ls),
(1624,813,o),
(1480,748,o),
(1057,742,cs),
(845,739,ls),
(340,732,o),
(121,624,o),
(121,388,cs),
(121,74,ls),
(121,26,o),
(147,0,o),
(195,0,cs)
);
}
);
width = 1920;
},
{
layerId = m002;
shapes = (
{
closed = 1;
nodes = (
(1733,0,ls),
(1773,0,o),
(1800,26,o),
(1800,67,cs),
(1800,257,ls),
(1800,298,o),
(1773,324,o),
(1733,324,cs),
(516,324,l),
(516,395,ls),
(516,473,o),
(602,500,o),
(861,505,cs),
(1073,509,ls),
(1575,518,o),
(1800,663,o),
(1800,988,cs),
(1800,1032,ls),
(1800,1314,o),
(1574,1438,o),
(1073,1438,cs),
(847,1438,ls),
(365,1438,o),
(153,1310,o),
(126,1016,cs),
(121,965,o),
(150,939,o),
(198,939,cs),
(445,939,ls),
(493,939,o),
(505,973,o),
(522,1012,cs),
(555,1089,o),
(640,1114,o),
(863,1114,cs),
(1057,1114,ls),
(1317,1114,o),
(1404,1083,o),
(1404,991,cs),
(1404,956,ls),
(1404,869,o),
(1318,838,o),
(1059,833,cs),
(847,829,ls),
(332,819,o),
(120,682,o),
(120,388,cs),
(120,74,ls),
(120,26,o),
(146,0,o),
(195,0,cs)
);
}
);
width = 1920;
}
);
unicode = 50;
},
{
glyphname = three;
kernLeft = O;
kernRight = O;
lastChange = "2025-03-14 19:26:36 +0000";
layers = (
{
anchors = (
{
name = bottom;
pos = (-217,0);
},
{
name = top;
pos = (-217,1429);
}
);
layerId = m01;
shapes = (
{
closed = 1;
nodes = (
(1073,-30,ls),
(1579,-30,o),
(1800,93,o),
(1800,352,cs),
(1800,394,ls),
(1800,551,o),
(1733,631,o),
(1581,704,c),
(1712,784,o),
(1770,879,o),
(1770,1014,cs),
(1770,1056,ls),
(1770,1315,o),
(1558,1438,o),
(1073,1438,cs),
(843,1438,ls),
(371,1438,o),
(151,1310,o),
(121,1016,cs),
(116,966,o),
(145,939,o),
(194,939,cs),
(223,939,ls),
(271,939,o),
(295,964,o),
(300,1012,cs),
(323,1224,o),
(464,1294,o),
(863,1294,cs),
(1053,1294,ls),
(1457,1294,o),
(1591,1226,o),
(1591,1052,cs),
(1591,1018,ls),
(1591,829,o),
(1457,776,o),
(1054,776,cs),
(884,776,ls),
(843,776,o),
(817,753,o),
(817,712,cs),
(817,696,ls),
(817,655,o),
(843,632,o),
(884,632,cs),
(1054,632,ls),
(1479,632,o),
(1621,579,o),
(1621,390,cs),
(1621,356,ls),
(1621,182,o),
(1479,114,o),
(1053,114,cs),
(863,114,ls),
(461,114,o),
(321,185,o),
(300,396,cs),
(295,444,o),
(271,469,o),
(223,469,cs),
(194,469,ls),
(145,469,o),
(116,441,o),
(121,392,cs),
(150,98,o),
(369,-30,o),
(843,-30,cs)
);
}
);
width = 1920;
},
{
anchors = (
{
name = bottom;
pos = (-217,0);
},
{
name = top;
pos = (-217,1429);
}
);
layerId = m002;
shapes = (
{
closed = 1;
nodes = (
(1073,-30,ls),
(1579,-30,o),
(1800,86,o),
(1800,351,cs),
(1800,395,ls),
(1800,538,o),
(1733,632,o),
(1581,704,c),
(1712,783,o),
(1770,877,o),
(1770,1013,cs),
(1770,1057,ls),
(1770,1322,o),
(1558,1438,o),
(1073,1438,cs),
(843,1438,ls),
(369,1438,o),
(149,1311,o),
(121,1021,cs),
(116,972,o),
(145,946,o),
(194,946,cs),
(441,946,ls),
(488,946,o),
(508,975,o),
(517,1018,cs),
(532,1090,o),
(619,1114,o),
(863,1114,cs),
(1053,1114,ls),
(1294,1114,o),
(1374,1088,o),
(1374,1008,cs),
(1374,972,ls),
(1374,893,o),
(1294,866,o),
(1054,866,cs),
(884,866,ls),
(843,866,o),
(817,839,o),
(817,799,cs),
(817,609,ls),
(817,569,o),
(843,542,o),
(884,542,cs),
(1054,542,ls),
(1317,542,o),
(1404,516,o),
(1404,436,cs),
(1404,400,ls),
(1404,321,o),
(1316,294,o),
(1053,294,cs),
(863,294,ls),
(613,294,o),
(526,318,o),
(517,390,cs),
(512,433,o),
(488,462,o),
(441,462,cs),
(194,462,ls),
(145,462,o),
(116,436,o),
(121,388,cs),
(149,97,o),
(369,-30,o),
(843,-30,cs)
);
}
);
width = 1920;
}
);
unicode = 51;
},
{
glyphname = four;
kernLeft = A;
kernRight = f;
lastChange = "2025-03-14 19:30:10 +0000";
layers = (
{
layerId = m01;
shapes = (
{
closed = 1;
nodes = (
(1447,0,ls),
(1495,0,o),
(1520,26,o),
(1520,74,cs),
(1520,392,l),
(1733,392,ls),
(1774,392,o),
(1800,415,o),
(1800,456,cs),
(1800,472,ls),
(1800,513,o),
(1774,536,o),
(1733,536,cs),
(1520,536,l),
(1520,1334,ls),
(1520,1382,o),
(1494,1408,o),
(1446,1408,cs),
(1392,1408,ls),
(1356,1408,o),
(1329,1400,o),
(1300,1379,cs),
(168,569,ls),
(135,545,o),
(120,519,o),
(120,487,cs),
(120,459,ls),
(120,418,o),
(146,392,o),
(187,392,cs),
(1344,392,l),
(1344,74,ls),
(1344,26,o),
(1369,0,o),
(1417,0,cs)
);
},
{
closed = 1;
nodes = (
(1344,1214,l),
(1344,536,l),
(396,536,l)
);
}
);
width = 1920;
},
{
layerId = m002;
shapes = (
{
closed = 1;
nodes = (
(1487,0,ls),
(1535,0,o),
(1561,26,o),
(1561,74,cs),
(1561,302,l),
(1733,302,ls),
(1773,302,o),
(1800,328,o),
(1800,369,cs),
(1800,559,ls),
(1800,600,o),
(1773,626,o),
(1733,626,cs),
(1561,626,l),
(1561,1334,ls),
(1561,1382,o),
(1535,1408,o),
(1487,1408,cs),
(1215,1408,ls),
(1179,1408,o),
(1152,1401,o),
(1123,1379,cs),
(159,647,ls),
(126,622,o),
(120,607,o),
(120,559,cs),
(120,369,ls),
(120,328,o),
(146,302,o),
(187,302,cs),
(1165,302,l),
(1165,74,ls),
(1165,26,o),
(1191,0,o),
(1240,0,cs)
);
},
{
closed = 1;
nodes = (
(1165,959,l),
(1165,626,l),
(726,626,l)
);
}
);
width = 1920;
}
);
unicode = 52;
},
{
glyphname = five;
kernRight = O;
lastChange = "2025-03-14 19:59:05 +0000";
layers = (
{
layerId = m01;
shapes = (
{
closed = 1;
nodes = (
(1085,-30,ls),
(1591,-30,o),
(1812,104,o),
(1812,412,cs),
(1812,458,ls),
(1812,766,o),
(1591,900,o),
(1085,900,cs),
(855,900,ls),
(586,900,o),
(425,863,o),
(327,778,c),
(327,1264,l),
(1715,1264,ls),
(1756,1264,o),
(1782,1290,o),
(1782,1331,cs),
(1782,1347,ls),
(1782,1388,o),
(1756,1408,o),
(1715,1408,cs),
(225,1408,ls),
(177,1408,o),
(151,1382,o),
(151,1334,cs),
(151,699,ls),
(151,650,o),
(177,624,o),
(225,624,cs),
(287,624,ls),
(316,624,o),
(335,635,o),
(356,654,cs),
(442,731,o),
(572,756,o),
(875,756,cs),
(1065,756,ls),
(1491,756,o),
(1633,680,o),
(1633,453,cs),
(1633,417,ls),
(1633,190,o),
(1491,114,o),
(1065,114,cs),
(875,114,ls),
(475,114,o),
(334,185,o),
(313,396,cs),
(308,444,o),
(284,469,o),
(236,469,cs),
(206,469,ls),
(158,469,o),
(128,441,o),
(133,392,cs),
(162,98,o),
(382,-30,o),
(855,-30,cs)
);
}
);
width = 1920;
},
{
layerId = m002;
shapes = (
{
closed = 1;
nodes = (
(1085,-30,ls),
(1592,-30,o),
(1812,87,o),
(1812,417,cs),
(1812,462,ls),
(1812,791,o),
(1592,900,o),
(1085,900,cs),
(855,900,ls),
(784,900,o),
(655,900,o),
(547,878,c),
(547,1084,l),
(1715,1084,ls),
(1756,1084,o),
(1782,1110,o),
(1782,1151,cs),
(1782,1341,ls),
(1782,1382,o),
(1756,1408,o),
(1715,1408,cs),
(225,1408,ls),
(177,1408,o),
(151,1382,o),
(151,1334,cs),
(151,610,ls),
(151,562,o),
(177,536,o),
(225,536,cs),
(478,536,ls),
(491,536,o),
(528,543,o),
(547,547,cs),
(620,561,o),
(724,576,o),
(875,576,cs),
(1065,576,ls),
(1346,576,o),
(1416,538,o),
(1416,453,cs),
(1416,418,ls),
(1416,333,o),
(1346,294,o),
(1065,294,cs),
(875,294,ls),
(658,294,o),
(544,328,o),
(529,396,cs),
(520,439,o),
(500,469,o),
(453,469,cs),
(205,469,ls),
(157,469,o),
(128,442,o),
(133,393,cs),
(164,72,o),
(398,-30,o),
(855,-30,cs)
);
}
);
width = 1920;
}
);
unicode = 53;
},
{
glyphname = six;
lastChange = "2025-03-14 22:39:58 +0000";
layers = (
{
layerId = m01;
shapes = (
{
closed = 1;
nodes = (
(1597,-30,o),
(1817,107,o),
(1817,421,cs),
(1817,451,ls),
(1817,764,o),
(1597,901,o),
(1093,901,cs),
(863,901,ls),
(569,901,o),
(401,849,o),
(311,730,c),
(311,900,ls),
(311,1196,o),
(454,1294,o),
(883,1294,cs),
(1073,1294,ls),
(1475,1294,o),
(1616,1224,o),
(1637,1012,cs),
(1642,965,o),
(1667,939,o),
(1714,939,cs),
(1745,939,ls),
(1794,939,o),
(1823,967,o),
(1818,1016,cs),
(1789,1310,o),
(1569,1438,o),
(1093,1438,cs),
(863,1438,l),
(356,1438,o),
(135,1276,o),
(135,906,cs),
(135,387,ls),
(135,97,o),
(356,-30,o),
(863,-30,cs),
(1093,-30,ls)
);
},
{
closed = 1;
nodes = (
(881,120,ls),
(453,120,o),
(311,197,o),
(311,427,cs),
(311,451,ls),
(311,677,o),
(456,752,o),
(881,752,cs),
(1071,752,ls),
(1497,752,o),
(1641,676,o),
(1641,448,cs),
(1641,424,ls),
(1641,196,o),
(1499,120,o),
(1071,120,cs)
);
}
);
width = 1920;
},
{
layerId = m002;
shapes = (
{
closed = 1;
nodes = (
(1582,-30,o),
(1816,85,o),
(1816,414,cs),
(1816,443,ls),
(1816,760,o),
(1661,890,o),
(1092,890,cs),
(869,890,ls),
(671,890,o),
(636,886,o),
(528,850,c),
(528,886,ls),
(528,1054,o),
(657,1114,o),
(879,1114,cs),
(1072,1114,ls),
(1253,1114,o),
(1408,1066,o),
(1419,1018,cs),
(1429,975,o),
(1449,946,o),
(1496,946,cs),
(1744,946,ls),
(1793,946,o),
(1820,973,o),
(1815,1021,cs),
(1785,1339,o),
(1551,1438,o),
(1096,1438,cs),
(859,1438,ls),
(366,1438,o),
(132,1322,o),
(132,892,cs),
(132,381,ls),
(132,85,o),
(366,-30,o),
(856,-30,cs),
(1092,-30,ls)
);
},
{
closed = 1;
nodes = (
(869,294,ls),
(618,294,o),
(528,329,o),
(528,416,cs),
(528,441,ls),
(528,528,o),
(618,566,o),
(869,566,cs),
(1079,566,ls),
(1330,566,o),
(1420,528,o),
(1420,441,cs),
(1420,417,ls),
(1420,329,o),
(1330,294,o),
(1079,294,cs)
);
}
);
width = 1920;
}
);
unicode = 54;
},
{
glyphname = seven;
kernLeft = Z;
kernRight = V;
lastChange = "2025-03-14 22:43:11 +0000";
layers = (
{
layerId = m01;
shapes = (
{
closed = 1;
nodes = (
(643,0,ls),
(671,0,o),
(691,8,o),
(712,29,cs),
(1766,1083,ls),
(1786,1103,o),
(1800,1124,o),
(1800,1152,cs),
(1800,1342,ls),
(1800,1383,o),
(1775,1408,o),
(1734,1408,cs),
(187,1408,ls),
(146,1408,o),
(120,1385,o),
(120,1344,cs),
(120,1328,ls),
(120,1287,o),
(146,1264,o),
(187,1264,cs),
(1624,1264,l),
(1624,1167,l),
(526,69,ls),
(490,33,o),
(505,0,o),
(554,0,cs)
);
}
);
width = 1920;
},
{
layerId = m002;
shapes = (
{
closed = 1;
nodes = (
(666,0,ls),
(694,0,o),
(714,7,o),
(735,28,cs),
(1771,1064,ls),
(1791,1084,o),
(1800,1104,o),
(1800,1132,cs),
(1800,1352,ls),
(1800,1389,o),
(1780,1408,o),
(1744,1408,cs),
(176,1408,ls),
(140,1408,o),
(120,1389,o),
(120,1352,cs),
(120,1140,ls),
(120,1104,o),
(140,1084,o),
(176,1084,cs),
(1282,1084,l),
(1282,1084,l),
(265,67,ls),
(229,31,o),
(243,0,o),
(293,0,cs)
);
}
);
width = 1920;
}
);
unicode = 55;
},
{
glyphname = eight;
kernLeft = O;
kernRight = O;
lastChange = "2025-03-14 22:46:04 +0000";
layers = (
{
anchors = (
{
name = bottom;
pos = (-243,0);
},
{
name = top;
pos = (-243,1429);
}
);
layerId = m01;
shapes = (
{
closed = 1;
nodes = (
(845,1438,ls),
(361,1438,o),
(150,1321,o),
(150,1054,cs),
(150,1010,ls),
(150,863,o),
(203,770,o),
(324,704,c),
(182,636,o),
(120,543,o),
(120,399,cs),
(120,353,ls),
(120,87,o),
(341,-30,o),
(845,-30,cs),
(1075,-30,ls),
(1579,-30,o),
(1800,85,o),
(1800,351,cs),
(1800,395,ls),
(1800,539,o),
(1738,636,o),
(1596,704,c),
(1717,770,o),
(1770,863,o),
(1770,1010,cs),
(1770,1054,ls),
(1770,1321,o),
(1559,1438,o),
(1075,1438,cs)
);
},
{
closed = 1;
nodes = (
(296,394,ls),
(296,573,o),
(438,632,o),
(865,632,cs),
(1055,632,ls),
(1482,632,o),
(1624,573,o),
(1624,394,cs),
(1624,358,ls),
(1624,175,o),
(1482,114,o),
(1055,114,cs),
(865,114,ls),
(438,114,o),
(296,175,o),
(296,358,cs)
);
},
{
closed = 1;
nodes = (
(326,1050,ls),
(326,1233,o),
(461,1294,o),
(865,1294,cs),
(1055,1294,ls),
(1459,1294,o),
(1594,1233,o),
(1594,1050,cs),
(1594,1014,ls),
(1594,836,o),
(1459,776,o),
(1055,776,cs),
(865,776,ls),
(461,776,o),
(326,836,o),
(326,1014,cs)
);
}
);
width = 1920;
},
{
anchors = (
{
name = bottom;
pos = (-243,0);
},
{
name = top;
pos = (-243,1429);
}
);
layerId = m002;
shapes = (
{
closed = 1;
nodes = (
(845,1438,ls),
(361,1438,o),
(150,1325,o),
(150,1068,cs),
(150,1024,ls),
(150,875,o),
(203,781,o),
(324,715,c),
(182,647,o),
(120,553,o),
(120,406,cs),
(120,361,ls),
(120,89,o),
(341,-30,o),
(845,-30,cs),
(1075,-30,ls),
(1579,-30,o),
(1800,86,o),
(1800,351,cs),
(1800,395,ls),
(1800,550,o),
(1738,647,o),
(1596,715,c),
(1717,781,o),
(1770,871,o),
(1770,1010,cs),
(1770,1054,ls),
(1770,1321,o),
(1559,1438,o),
(1075,1438,cs)
);
},
{
closed = 1;
nodes = (
(522,432,ls),
(522,515,o),
(608,542,o),
(865,542,cs),
(1055,542,ls),
(1312,542,o),
(1398,515,o),
(1398,432,cs),
(1398,404,ls),
(1398,322,o),
(1312,294,o),
(1055,294,cs),
(865,294,ls),
(608,294,o),
(522,322,o),
(522,404,cs)
);
},
{
closed = 1;
nodes = (
(552,1005,ls),
(552,1087,o),
(630,1114,o),
(865,1114,cs),
(1055,1114,ls),
(1290,1114,o),
(1368,1087,o),
(1368,1005,cs),
(1368,975,ls),
(1368,893,o),
(1290,866,o),
(1055,866,cs),
(865,866,ls),
(630,866,o),
(552,893,o),
(552,975,cs)
);
}
);
width = 1920;
}
);
unicode = 56;
},
{
glyphname = zerosuperior;
lastChange = "2025-03-15 20:56:39 +0000";
layers = (
{
layerId = m01;
shapes = (
{
closed = 1;
nodes = (
(62,958,ls),
(62,653,o),
(200,520,o),
(515,520,cs),
(653,520,ls),
(968,520,o),
(1106,653,o),
(1106,958,cs),
(1106,986,ls),
(1106,1291,o),
(968,1424,o),
(653,1424,cs),
(515,1424,ls),
(200,1424,o),
(62,1291,o),
(62,986,cs)
);
},
{
closed = 1;
nodes = (
(222,1217,o),
(300,1296,o),
(535,1296,cs),
(633,1296,ls),
(868,1296,o),
(946,1217,o),
(946,981,cs),
(946,961,ls),
(946,726,o),
(868,648,o),
(633,648,cs),
(535,648,ls),
(300,648,o),
(222,726,o),
(222,961,cs),
(222,981,ls)
);
}
);
width = 1168;
},
{
layerId = m002;
shapes = (
{
closed = 1;
nodes = (
(62,958,ls),
(62,654,o),
(200,521,o),
(516,521,cs),
(651,521,ls),
(968,521,o),
(1106,654,o),
(1106,958,cs),
(1106,986,ls),
(1106,1290,o),
(968,1423,o),
(651,1423,cs),
(516,1423,ls),
(200,1423,o),
(62,1290,o),
(62,986,cs)
);
},
{
closed = 1;
nodes = (
(314,1150,o),
(373,1207,o),
(551,1207,cs),
(616,1207,ls),
(795,1207,o),
(854,1150,o),
(854,979,cs),
(854,965,ls),
(854,794,o),
(795,737,o),
(616,737,cs),
(551,737,ls),
(373,737,o),
(314,794,o),
(314,965,cs),
(314,979,ls)
);
}
);
width = 1168;
}
);
unicode = 8304;
},
{
glyphname = onesuperior;
lastChange = "2025-03-13 02:40:21 +0000";
layers = (
{
layerId = m01;
shapes = (
{
closed = 1;
nodes = (
(472,1408,ls),
(423,1408,o),
(415,1405,o),
(380,1370,cs),
(158,1148,ls),
(132,1122,o),
(132,1100,o),
(158,1074,cs),
(186,1046,ls),
(212,1020,o),
(234,1020,o),
(260,1046,cs),
(494,1280,l),
(534,1280,l),
(534,610,ls),
(534,562,o),
(559,536,o),
(608,536,cs),
(620,536,ls),
(668,536,o),
(694,562,o),
(694,610,cs),
(694,1352,ls),
(694,1388,o),
(674,1408,o),
(638,1408,cs)
);
},
{
closed = 1;
nodes = (
(120,592,ls),
(120,556,o),
(140,536,o),
(176,536,cs),
(992,536,ls),
(1028,536,o),
(1048,556,o),
(1048,592,cs),
(1048,608,ls),
(1048,644,o),
(1028,664,o),
(992,664,cs),
(176,664,ls),
(140,664,o),
(120,644,o),
(120,608,cs)
);
}
);
width = 1168;
},
{
layerId = m002;
shapes = (
{
closed = 1;
nodes = (
(495,1408,ls),
(466,1408,o),
(455,1405,o),
(441,1396,cs),
(177,1220,ls),
(147,1200,o),
(139,1184,o),
(162,1149,cs),
(235,1039,ls),
(256,1007,o),
(277,1004,o),
(306,1024,cs),
(484,1143,l),
(484,1143,l),
(484,610,ls),
(484,563,o),
(509,537,o),
(556,537,cs),
(663,537,ls),
(710,537,o),
(736,563,o),
(736,610,cs),
(736,1335,ls),
(736,1382,o),
(710,1408,o),
(663,1408,cs)
);
},
{
closed = 1;
nodes = (
(120,590,ls),
(120,555,o),
(139,536,o),
(175,536,cs),
(994,536,ls),
(1030,536,o),
(1048,555,o),
(1048,590,cs),
(1048,697,ls),
(1048,733,o),
(1030,752,o),
(994,752,cs),
(175,752,ls),
(139,752,o),
(120,733,o),
(120,697,cs)
);
}
);
width = 1168;
}
);
unicode = 185;
},
{
glyphname = twosuperior;
lastChange = "2025-03-13 01:34:08 +0000";
layers = (
{
anchors = (
{
name = bottom;
pos = (610,536);
},
{
name = top;
pos = (610,1429);
}
);
layerId = m01;
shapes = (
{
closed = 1;
nodes = (
(1059,536,ls),
(1090,536,o),
(1106,561,o),
(1106,592,cs),
(1106,608,ls),
(1106,639,o),
(1090,664,o),
(1059,664,cs),
(222,664,l),
(222,720,ls),
(222,797,o),
(299,830,o),
(529,851,cs),
(649,862,ls),
(896,885,o),
(1106,883,o),
(1106,1131,cs),
(1106,1174,ls),
(1106,1348,o),
(968,1424,o),
(653,1424,cs),
(515,1424,ls),
(220,1424,o),
(83,1344,o),
(66,1160,cs),
(63,1129,o),
(81,1112,o),
(112,1112,cs),
(178,1112,ls),
(207,1112,o),
(222,1132,o),
(226,1158,cs),
(240,1262,o),
(317,1296,o),
(535,1296,cs),
(633,1296,ls),
(868,1296,o),
(946,1265,o),
(946,1170,cs),
(946,1116,ls),
(946,1044,o),
(869,1013,o),
(639,992,cs),
(519,981,ls),
(292,959,o),
(62,960,o),
(62,727,cs),
(62,592,ls),
(62,556,o),
(82,536,o),
(118,536,cs)
);
}
);
width = 1168;
},
{
anchors = (
{
name = bottom;
pos = (97,536);
},
{
name = top;
pos = (97,1415);
}
);
layerId = m002;
shapes = (
{
closed = 1;
nodes = (
(1063,550,ls),
(1089,550,o),
(1106,566,o),
(1106,589,cs),
(1106,727,ls),
(1106,751,o),
(1089,766,o),
(1063,766,cs),
(314,766,l),
(314,790,ls),
(314,828,o),
(368,843,o),
(529,850,cs),
(646,855,ls),
(967,869,o),
(1107,949,o),
(1106,1117,cs),
(1106,1167,ls),
(1106,1346,o),
(967,1424,o),
(648,1424,cs),
(517,1424,ls),
(221,1424,o),
(84,1344,o),
(66,1161,cs),
(63,1131,o),
(81,1115,o),
(112,1115,cs),
(270,1115,ls),
(299,1115,o),
(315,1122,o),
(318,1142,cs),
(327,1192,o),
(380,1208,o),
(531,1208,cs),
(637,1208,ls),
(800,1208,o),
(854,1195,o),
(854,1155,cs),
(854,1137,ls),
(854,1094,o),
(800,1078,o),
(637,1071,cs),
(519,1066,ls),
(201,1053,o),
(62,971,o),
(62,798,cs),
(62,593,ls),
(62,566,o),
(79,550,o),
(109,550,cs)
);
}
);
width = 1168;
}
);
unicode = 178;
},
{
glyphname = threesuperior;
lastChange = "2025-03-13 21:08:10 +0000";
layers = (
{
layerId = m01;
shapes = (
{
closed = 1;
nodes = (
(651,521,ls),
(967,521,o),
(1105,600,o),
(1105,765,cs),
(1105,792,ls),
(1105,879,o),
(1065,929,o),
(974,972,c),
(1052,1018,o),
(1086,1068,o),
(1086,1152,cs),
(1086,1179,ls),
(1086,1344,o),
(954,1423,o),
(651,1423,cs),
(513,1423,ls),
(227,1423,o),
(82,1361,o),
(64,1166,cs),
(61,1137,o),
(79,1120,o),
(108,1120,cs),
(176,1120,ls),
(206,1120,o),
(221,1136,o),
(224,1165,cs),
(238,1263,o),
(316,1295,o),
(530,1295,cs),
(634,1295,ls),
(851,1295,o),
(926,1260,o),
(926,1176,cs),
(926,1155,ls),
(926,1061,o),
(852,1036,o),
(639,1036,cs),
(544,1036,ls),
(514,1036,o),
(498,1018,o),
(498,988,cs),
(498,956,ls),
(498,927,o),
(514,908,o),
(544,908,cs),
(639,908,ls),
(866,908,o),
(945,884,o),
(945,789,cs),
(945,768,ls),
(945,684,o),
(865,649,o),
(634,649,cs),
(530,649,ls),
(317,649,o),
(238,682,o),
(224,780,cs),
(221,809,o),
(206,824,o),
(176,824,cs),
(108,824,ls),
(79,824,o),
(61,808,o),
(64,778,cs),
(81,599,o),
(217,521,o),
(513,521,cs)
);
}
);
width = 1168;
},
{
layerId = m002;
shapes = (
{
closed = 1;
nodes = (
(651,521,ls),
(967,521,o),
(1105,595,o),
(1105,765,cs),
(1105,792,ls),
(1105,883,o),
(1073,938,o),
(1001,972,c),
(1060,1007,o),
(1086,1061,o),
(1086,1152,cs),
(1086,1179,ls),
(1086,1349,o),
(954,1423,o),
(651,1423,cs),
(517,1423,ls),
(220,1423,o),
(82,1345,o),
(65,1167,cs),
(61,1137,o),
(80,1120,o),
(110,1120,cs),
(269,1120,ls),
(299,1120,o),
(315,1127,o),
(317,1146,cs),
(324,1192,o),
(377,1207,o),
(529,1207,cs),
(639,1207,ls),
(785,1207,o),
(834,1194,o),
(834,1154,cs),
(834,1133,ls),
(834,1093,o),
(785,1080,o),
(639,1080,cs),
(546,1080,ls),
(516,1080,o),
(500,1065,o),
(500,1036,cs),
(500,909,ls),
(500,880,o),
(516,864,o),
(546,864,cs),
(639,864,ls),
(800,864,o),
(853,851,o),
(853,811,cs),
(853,790,ls),
(853,750,o),
(800,737,o),
(639,737,cs),
(529,737,ls),
(377,737,o),
(324,752,o),
(317,797,cs),
(315,817,o),
(299,823,o),
(269,823,cs),
(110,823,ls),
(80,823,o),
(61,807,o),
(65,777,cs),
(89,599,o),
(227,521,o),
(517,521,cs)
);
}
);
width = 1168;
}
);
unicode = 179;
},
{
glyphname = foursuperior;
lastChange = "2025-03-14 18:57:24 +0000";
layers = (
{
layerId = m01;
shapes = (
{
closed = 1;
nodes = (
(62,760,ls),
(62,724,o),
(82,704,o),
(118,704,cs),
(823,704,l),
(823,590,ls),
(823,554,o),
(841,536,o),
(877,536,cs),
(928,536,ls),
(964,536,o),
(983,554,o),
(983,590,cs),
(983,704,l),
(1050,704,ls),
(1086,704,o),
(1106,724,o),
(1106,760,cs),
(1106,776,ls),
(1106,812,o),
(1086,832,o),
(1050,832,cs),
(983,832,l),
(983,1354,ls),
(983,1390,o),
(965,1408,o),
(929,1408,cs),
(851,1408,ls),
(827,1408,o),
(811,1404,o),
(793,1391,cs),
(92,858,ls),
(71,842,o),
(62,826,o),
(62,801,cs)
);
},
{
closed = 1;
nodes = (
(823,1233,l),
(823,832,l),
(296,832,l)
);
}
);
width = 1168;
},
{
layerId = m002;
shapes = (
{
closed = 1;
nodes = (
(62,716,ls),
(62,680,o),
(82,660,o),
(118,660,cs),
(731,660,l),
(731,590,ls),
(731,554,o),
(749,536,o),
(785,536,cs),
(928,536,ls),
(964,536,o),
(983,554,o),
(983,590,cs),
(983,660,l),
(1050,660,ls),
(1086,660,o),
(1106,680,o),
(1106,716,cs),
(1106,820,ls),
(1106,856,o),
(1086,876,o),
(1050,876,cs),
(983,876,l),
(983,1354,ls),
(983,1390,o),
(965,1408,o),
(929,1408,cs),
(759,1408,ls),
(735,1408,o),
(719,1405,o),
(701,1391,cs),
(92,893,ls),
(71,876,o),
(62,859,o),
(62,834,cs)
);
},
{
closed = 1;
nodes = (
(731,1120,l),
(731,876,l),
(433,876,l)
);
}
);
width = 1168;
}
);
unicode = 8308;
},
{
glyphname = fivesuperior;
lastChange = "2025-03-13 21:30:33 +0000";
layers = (
{
layerId = m01;
shapes = (
{
closed = 1;
nodes = (
(652,536,ls),
(968,536,o),
(1106,621,o),
(1106,815,cs),
(1106,843,ls),
(1106,1035,o),
(968,1112,o),
(652,1112,cs),
(514,1112,ls),
(385,1112,o),
(301,1095,o),
(236,1038,c),
(236,1276,l),
(1031,1276,ls),
(1067,1276,o),
(1087,1296,o),
(1087,1332,cs),
(1087,1348,ls),
(1087,1384,o),
(1067,1404,o),
(1031,1404,cs),
(122,1404,ls),
(91,1404,o),
(76,1388,o),
(76,1358,cs),
(76,956,ls),
(76,927,o),
(91,910,o),
(122,910,cs),
(209,910,ls),
(228,910,o),
(239,916,o),
(253,929,cs),
(299,970,o),
(369,984,o),
(534,984,cs),
(632,984,ls),
(868,984,o),
(946,949,o),
(946,842,cs),
(946,818,ls),
(946,703,o),
(868,664,o),
(632,664,cs),
(534,664,ls),
(316,664,o),
(238,697,o),
(225,795,cs),
(221,825,o),
(207,839,o),
(177,839,cs),
(106,839,ls),
(76,839,o),
(60,823,o),
(62,793,cs),
(79,614,o),
(216,536,o),
(514,536,cs)
);
}
);
width = 1168;
},
{
layerId = m002;
shapes = (
{
closed = 1;
nodes = (
(614,534,ls),
(956,534,o),
(1106,620,o),
(1106,817,cs),
(1106,846,ls),
(1106,1043,o),
(959,1129,o),
(624,1129,cs),
(541,1129,ls),
(483,1129,o),
(418,1122,o),
(327,1106,c),
(327,1192,l),
(1040,1192,ls),
(1068,1192,o),
(1086,1210,o),
(1086,1237,cs),
(1086,1365,ls),
(1086,1392,o),
(1068,1408,o),
(1040,1408,cs),
(125,1408,ls),
(92,1408,o),
(75,1392,o),
(75,1360,cs),
(75,942,ls),
(75,910,o),
(92,892,o),
(125,892,cs),
(297,892,ls),
(305,892,o),
(330,898,o),
(343,901,cs),
(392,910,o),
(445,913,o),
(555,913,cs),
(610,913,ls),
(793,913,o),
(854,896,o),
(854,843,cs),
(854,820,ls),
(854,768,o),
(791,750,o),
(600,750,cs),
(565,750,ls),
(386,750,o),
(323,762,o),
(315,799,cs),
(309,826,o),
(296,846,o),
(263,846,cs),
(112,846,ls),
(79,846,o),
(60,828,o),
(62,797,cs),
(81,614,o),
(230,534,o),
(552,534,cs)
);
}
);
width = 1168;
}
);
unicode = 8309;
},
{
glyphname = sixsuperior;
lastChange = "2025-03-13 21:20:09 +0000";
layers = (
{
layerId = m01;
shapes = (
{
closed = 1;
nodes = (
(967,521,o),
(1105,607,o),
(1105,803,cs),
(1105,821,ls),
(1105,1018,o),
(967,1104,o),
(653,1104,cs),
(515,1104,ls),
(365,1104,o),
(276,1076,o),
(223,1012,c),
(223,1083,ls),
(223,1229,o),
(318,1293,o),
(535,1293,cs),
(633,1293,ls),
(833,1293,o),
(926,1257,o),
(940,1176,cs),
(945,1148,o),
(959,1132,o),
(988,1132,cs),
(1059,1132,ls),
(1090,1132,o),
(1107,1148,o),
(1105,1178,cs),
(1087,1348,o),
(950,1423,o),
(653,1423,cs),
(515,1423,ls),
(201,1423,o),
(63,1321,o),
(63,1088,cs),
(63,773,ls),
(63,598,o),
(201,521,o),
(515,521,cs),
(653,521,ls)
);
},
{
closed = 1;
nodes = (
(535,650,ls),
(301,650,o),
(223,689,o),
(223,804,cs),
(223,820,ls),
(223,936,o),
(301,974,o),
(535,974,cs),
(633,974,ls),
(867,974,o),
(945,936,o),
(945,820,cs),
(945,804,ls),
(945,689,o),
(867,650,o),
(633,650,cs)
);
}
);
width = 1168;
},
{
layerId = m002;
shapes = (
{
closed = 1;
nodes = (
(956,521,o),
(1105,605,o),
(1105,798,cs),
(1105,817,ls),
(1105,1010,o),
(956,1094,o),
(615,1094,cs),
(555,1094,ls),
(441,1094,o),
(368,1086,o),
(315,1069,c),
(315,1093,ls),
(315,1179,o),
(379,1207,o),
(569,1207,cs),
(601,1207,ls),
(781,1207,o),
(843,1195,o),
(852,1158,cs),
(859,1130,o),
(872,1119,o),
(904,1119,cs),
(1055,1119,ls),
(1089,1119,o),
(1107,1137,o),
(1104,1170,cs),
(1085,1346,o),
(936,1423,o),
(615,1423,cs),
(555,1423,ls),
(213,1423,o),
(63,1324,o),
(63,1098,cs),
(63,794,ls),
(63,604,o),
(213,521,o),
(555,521,cs),
(615,521,ls)
);
},
{
closed = 1;
nodes = (
(569,737,ls),
(379,737,o),
(315,753,o),
(315,800,cs),
(315,815,ls),
(315,862,o),
(379,878,o),
(569,878,cs),
(601,878,ls),
(790,878,o),
(853,863,o),
(853,816,cs),
(853,800,ls),
(853,753,o),
(790,737,o),
(601,737,cs)
);
}
);
width = 1168;
}
);
unicode = 8310;
},
{
glyphname = sevensuperior;
lastChange = "2025-03-14 22:44:25 +0000";
layers = (
{
layerId = m01;
shapes = (
{
closed = 1;
nodes = (
(384,536,ls),
(402,536,o),
(414,541,o),
(427,554,cs),
(1081,1208,ls),
(1094,1221,o),
(1105,1233,o),
(1105,1250,cs),
(1105,1367,ls),
(1105,1397,o),
(1094,1408,o),
(1064,1408,cs),
(99,1408,ls),
(63,1408,o),
(63,1388,o),
(63,1352,cs),
(63,1336,ls),
(63,1300,o),
(63,1280,o),
(99,1280,cs),
(929,1280,l),
(929,1260,l),
(248,579,ls),
(226,557,o),
(234,536,o),
(265,536,cs)
);
}
);
width = 1168;
},
{
layerId = m002;
shapes = (
{
closed = 1;
nodes = (
(410,536,ls),
(428,536,o),
(440,540,o),
(453,553,cs),
(1092,1192,ls),
(1105,1205,o),
(1106,1209,o),
(1106,1227,cs),
(1106,1374,ls),
(1106,1396,o),
(1092,1408,o),
(1070,1408,cs),
(98,1408,ls),
(75,1408,o),
(62,1396,o),
(62,1374,cs),
(62,1227,ls),
(62,1204,o),
(75,1192,o),
(98,1192,cs),
(762,1192,l),
(762,1192,l),
(147,577,ls),
(126,556,o),
(133,536,o),
(164,536,cs)
);
}
);
width = 1168;
}
);
unicode = 8311;
},
{
glyphname = eightsuperior;
lastChange = "2025-03-13 21:29:56 +0000";
layers = (
{
anchors = (
{
name = bottom;
pos = (-165,536);
},
{
name = top;
pos = (-165,1429);
}
);
layerId = m01;
shapes = (
{
closed = 1;
nodes = (
(516,1423,ls),
(213,1423,o),
(81,1349,o),
(81,1179,cs),
(81,1152,ls),
(81,1069,o),
(115,1014,o),
(194,972,c),
(102,929,o),
(62,874,o),
(62,792,cs),
(62,765,ls),
(62,595,o),
(200,521,o),
(516,521,cs),
(653,521,ls),
(968,521,o),
(1106,595,o),
(1106,765,cs),
(1106,792,ls),
(1106,874,o),
(1066,929,o),
(974,972,c),
(1053,1014,o),
(1087,1069,o),
(1087,1152,cs),
(1087,1179,ls),
(1087,1349,o),
(955,1423,o),
(653,1423,cs)
);
},
{
closed = 1;
nodes = (
(222,789,ls),
(222,878,o),
(299,908,o),
(528,908,cs),
(640,908,ls),
(870,908,o),
(946,878,o),
(946,789,cs),
(946,768,ls),
(946,679,o),
(870,649,o),
(640,649,cs),
(528,649,ls),
(299,649,o),
(222,679,o),
(222,768,cs)
);
},
{
closed = 1;
nodes = (
(241,1176,ls),
(241,1265,o),
(313,1295,o),
(528,1295,cs),
(640,1295,ls),
(855,1295,o),
(927,1265,o),
(927,1176,cs),
(927,1155,ls),
(927,1066,o),
(855,1036,o),
(640,1036,cs),
(528,1036,ls),
(313,1036,o),
(241,1066,o),
(241,1155,cs)
);
}
);
width = 1168;
},
{
anchors = (
{
name = bottom;
pos = (-523,536);
},
{
name = top;
pos = (-523,1429);
}
);
layerId = m002;
shapes = (
{
closed = 1;
nodes = (
(554,1423,ls),
(226,1423,o),
(82,1349,o),
(82,1179,cs),
(82,1152,ls),
(82,1070,o),
(118,1015,o),
(200,972,c),
(104,927,o),
(62,873,o),
(62,792,cs),
(62,765,ls),
(62,595,o),
(212,521,o),
(554,521,cs),
(613,521,ls),
(956,521,o),
(1106,595,o),
(1106,765,cs),
(1106,792,ls),
(1106,872,o),
(1064,927,o),
(967,972,c),
(1049,1015,o),
(1085,1070,o),
(1085,1152,cs),
(1085,1179,ls),
(1085,1349,o),
(941,1423,o),
(613,1423,cs)
);
},
{
closed = 1;
nodes = (
(335,811,ls),
(335,851,o),
(393,864,o),
(568,864,cs),
(599,864,ls),
(774,864,o),
(832,851,o),
(832,811,cs),
(832,790,ls),
(832,750,o),
(774,737,o),
(599,737,cs),
(568,737,ls),
(393,737,o),
(335,750,o),
(335,790,cs)
);
},
{
closed = 1;
nodes = (
(355,1154,ls),
(355,1194,o),
(408,1207,o),
(568,1207,cs),
(599,1207,ls),
(759,1207,o),
(812,1194,o),
(812,1154,cs),
(812,1133,ls),
(812,1093,o),
(759,1080,o),
(599,1080,cs),
(568,1080,ls),
(408,1080,o),
(355,1093,o),
(355,1133,cs)
);
}
);
width = 1168;
}
);
unicode = 8312;
},
{
glyphname = .notdef;
lastChange = "2025-03-02 15:42:17 +0000";
layers = (
{
layerId = m01;
shapes = (
{
closed = 1;
nodes = (
(179,41,ls),
(179,-7,o),
(205,-33,o),
(253,-33,cs),
(1414,-33,ls),
(1463,-33,o),
(1489,-7,o),
(1489,41,cs),
(1489,1385,ls),
(1489,1433,o),
(1463,1459,o),
(1414,1459,cs),
(253,1459,ls),
(205,1459,o),
(179,1433,o),
(179,1385,cs)
);
},
{
closed = 1;
nodes = (
(432,115,ls),
(383,115,o),
(357,141,o),
(357,190,cs),
(357,1236,ls),
(357,1284,o),
(383,1310,o),
(432,1310,cs),
(1236,1310,ls),
(1284,1310,o),
(1310,1284,o),
(1310,1236,cs),
(1310,190,ls),
(1310,141,o),
(1284,115,o),
(1236,115,cs)
);
}
);
width = 1667;
},
{
layerId = m002;
shapes = (
{
closed = 1;
nodes = (
(179,41,ls),
(179,-7,o),
(205,-33,o),
(253,-33,cs),
(1638,-33,ls),
(1686,-33,o),
(1712,-7,o),
(1712,41,cs),
(1712,1385,ls),
(1712,1433,o),
(1686,1459,o),
(1638,1459,cs),
(253,1459,ls),
(205,1459,o),
(179,1433,o),
(179,1385,cs)
);
},
{
closed = 1;
nodes = (
(655,246,ls),
(607,246,o),
(581,272,o),
(581,320,cs),
(581,1105,ls),
(581,1154,o),
(607,1180,o),
(655,1180,cs),
(1236,1180,ls),
(1284,1180,o),
(1310,1154,o),
(1310,1105,cs),
(1310,320,ls),
(1310,272,o),
(1284,246,o),
(1236,246,cs)
);
}
);
width = 1891;
}
);
note = .notdef;
},
{
glyphname = period;
kernLeft = period;
kernRight = period;
lastChange = "2025-03-02 15:42:17 +0000";
layers = (
{
layerId = m01;
shapes = (
{
closed = 1;
nodes = (
(283,0,ls),
(331,0,o),
(357,26,o),
(357,74,cs),
(357,164,ls),
(357,212,o),
(331,238,o),
(283,238,cs),
(194,238,ls),
(145,238,o),
(119,212,o),
(119,164,cs),
(119,74,ls),
(119,26,o),
(145,0,o),
(194,0,cs)
);
}
);
width = 476;
},
{
layerId = m002;
shapes = (
{
closed = 1;
nodes = (
(413,0,ls),
(462,0,o),
(488,26,o),
(488,74,cs),
(488,261,ls),
(488,309,o),
(462,335,o),
(413,335,cs),
(194,335,ls),
(145,335,o),
(119,309,o),
(119,261,cs),
(119,74,ls),
(119,26,o),
(145,0,o),
(194,0,cs)
);
}
);
width = 607;
}
);
unicode = 46;
},
{
glyphname = comma;
kernLeft = period;
kernRight = period;
lastChange = "2025-03-03 03:11:49 +0000";
layers = (
{
layerId = m01;
shapes = (
{
closed = 1;
nodes = (
(283,-238,o),
(357,-154,o),
(357,0,cs),
(357,164,ls),
(357,212,o),
(331,238,o),
(283,238,cs),
(194,238,ls),
(145,238,o),
(119,212,o),
(119,164,cs),
(119,74,ls),
(119,26,o),
(145,0,o),
(194,0,cs),
(223,0,l),
(223,-67,o),
(207,-104,o),
(174,-104,cs),
(135,-104,o),
(104,-124,o),
(104,-163,cs),
(104,-181,ls),
(104,-220,o),
(135,-238,o),
(196,-238,cs)
);
}
);
width = 476;
},
{
layerId = m002;
shapes = (
{
closed = 1;
nodes = (
(413,-402,o),
(488,-318,o),
(488,0,cs),
(488,261,ls),
(488,309,o),
(462,335,o),
(413,335,cs),
(194,335,ls),
(145,335,o),
(119,309,o),
(119,261,cs),
(119,74,ls),
(119,26,o),
(145,0,o),
(194,0,cs),
(223,0,l),
(223,-97,o),
(207,-134,o),
(179,-134,cs),
(130,-134,o),
(104,-160,o),
(104,-208,cs),
(104,-328,ls),
(104,-376,o),
(130,-402,o),
(196,-402,cs)
);
}
);
width = 607;
}
);
unicode = 44;
},
{
glyphname = colon;
kernLeft = l;
kernRight = l;
lastChange = "2025-03-02 15:42:17 +0000";
layers = (
{
layerId = m01;
shapes = (
{
closed = 1;
nodes = (
(283,834,ls),
(331,834,o),
(357,860,o),
(357,908,cs),
(357,997,ls),
(357,1046,o),
(331,1072,o),
(283,1072,cs),
(194,1072,ls),
(145,1072,o),
(119,1046,o),
(119,997,cs),
(119,908,ls),
(119,860,o),
(145,834,o),
(194,834,cs)
);
},
{
closed = 1;
nodes = (
(283,0,ls),
(331,0,o),
(357,26,o),
(357,74,cs),
(357,164,ls),
(357,212,o),
(331,238,o),
(283,238,cs),
(194,238,ls),
(145,238,o),
(119,212,o),
(119,164,cs),
(119,74,ls),
(119,26,o),
(145,0,o),
(194,0,cs)
);
}
);
width = 476;
},
{
layerId = m002;
shapes = (
{
closed = 1;
nodes = (
(413,737,ls),
(462,737,o),
(488,763,o),
(488,811,cs),
(488,997,ls),
(488,1046,o),
(462,1072,o),
(413,1072,cs),
(194,1072,ls),
(145,1072,o),
(119,1046,o),
(119,997,cs),
(119,811,ls),
(119,763,o),
(145,737,o),
(194,737,cs)
);
},
{
closed = 1;
nodes = (
(413,0,ls),
(462,0,o),
(488,26,o),
(488,74,cs),
(488,261,ls),
(488,309,o),
(462,335,o),
(413,335,cs),
(194,335,ls),
(145,335,o),
(119,309,o),
(119,261,cs),
(119,74,ls),
(119,26,o),
(145,0,o),
(194,0,cs)
);
}
);
width = 607;
}
);
unicode = 58;
},
{
glyphname = semicolon;
kernLeft = l;
kernRight = l;
lastChange = "2025-03-02 15:42:17 +0000";
layers = (
{
layerId = m01;
shapes = (
{
alignment = 1;
ref = comma;
},
{
closed = 1;
nodes = (
(283,834,ls),
(331,834,o),
(357,860,o),
(357,908,cs),
(357,997,ls),
(357,1046,o),
(331,1072,o),
(283,1072,cs),
(194,1072,ls),
(145,1072,o),
(119,1046,o),
(119,997,cs),
(119,908,ls),
(119,860,o),
(145,834,o),
(194,834,cs)
);
}
);
width = 476;
},
{
layerId = m002;
shapes = (
{
alignment = 1;
ref = comma;
},
{
closed = 1;
nodes = (
(413,737,ls),
(462,737,o),
(488,763,o),
(488,811,cs),
(488,997,ls),
(488,1046,o),
(462,1072,o),
(413,1072,cs),
(194,1072,ls),
(145,1072,o),
(119,1046,o),
(119,997,cs),
(119,811,ls),
(119,763,o),
(145,737,o),
(194,737,cs)
);
}
);
width = 607;
}
);
unicode = 59;
},
{
glyphname = bullet;
kernLeft = l;
kernRight = l;
lastChange = "2025-03-02 15:42:17 +0000";
layers = (
{
layerId = m01;
shapes = (
{
closed = 1;
nodes = (
(640,536,ls),
(689,536,o),
(715,562,o),
(715,610,cs),
(715,819,ls),
(715,867,o),
(689,893,o),
(640,893,cs),
(432,893,ls),
(383,893,o),
(357,867,o),
(357,819,cs),
(357,610,ls),
(357,562,o),
(383,536,o),
(432,536,cs)
);
}
);
width = 1072;
},
{
layerId = m002;
shapes = (
{
closed = 1;
nodes = (
(737,488,ls),
(785,488,o),
(811,514,o),
(811,562,cs),
(811,867,ls),
(811,916,o),
(785,942,o),
(737,942,cs),
(432,942,ls),
(383,942,o),
(357,916,o),
(357,867,cs),
(357,562,ls),
(357,514,o),
(383,488,o),
(432,488,cs)
);
}
);
width = 1169;
}
);
unicode = 8226;
},
{
glyphname = asterisk;
lastChange = "2025-03-02 15:42:17 +0000";
layers = (
{
layerId = m01;
shapes = (
{
closed = 1;
nodes = (
(403,979,ls),
(439,979,o),
(459,998,o),
(459,1035,cs),
(459,1111,l),
(525,1073,ls),
(556,1054,o),
(582,1062,o),
(601,1093,cs),
(607,1103,ls),
(624,1134,o),
(618,1161,o),
(586,1179,cs),
(520,1217,l),
(586,1255,ls),
(618,1273,o),
(624,1300,o),
(607,1332,cs),
(601,1341,ls),
(582,1372,o),
(556,1380,o),
(525,1361,cs),
(459,1323,l),
(459,1399,ls),
(459,1436,o),
(439,1455,o),
(403,1455,cs),
(392,1455,ls),
(355,1455,o),
(336,1436,o),
(336,1399,cs),
(336,1323,l),
(270,1361,ls),
(238,1380,o),
(212,1372,o),
(194,1341,cs),
(188,1332,ls),
(170,1300,o),
(177,1273,o),
(208,1255,cs),
(274,1217,l),
(208,1179,ls),
(177,1161,o),
(170,1134,o),
(188,1103,cs),
(194,1093,ls),
(212,1062,o),
(238,1054,o),
(270,1073,cs),
(336,1111,l),
(336,1035,ls),
(336,998,o),
(355,979,o),
(392,979,cs)
);
}
);
width = 795;
},
{
layerId = m002;
shapes = (
{
closed = 1;
nodes = (
(585,875,ls),
(634,875,o),
(676,903,o),
(660,949,cs),
(631,1032,l),
(692,971,ls),
(727,937,o),
(778,943,o),
(802,985,cs),
(862,1090,ls),
(886,1131,o),
(869,1186,o),
(822,1198,cs),
(739,1217,l),
(822,1237,ls),
(861,1246,o),
(886,1302,o),
(862,1344,cs),
(802,1448,ls),
(778,1490,o),
(722,1494,o),
(692,1465,cs),
(631,1402,l),
(660,1484,ls),
(676,1531,o),
(634,1559,o),
(585,1559,cs),
(466,1559,ls),
(418,1559,o),
(376,1531,o),
(392,1484,cs),
(419,1402,l),
(359,1465,ls),
(325,1500,o),
(274,1490,o),
(249,1448,cs),
(190,1344,ls),
(166,1302,o),
(181,1248,o),
(230,1237,cs),
(313,1217,l),
(230,1198,ls),
(182,1186,o),
(166,1132,o),
(190,1090,cs),
(249,985,ls),
(274,944,o),
(325,937,o),
(359,971,cs),
(419,1032,l),
(392,949,ls),
(377,904,o),
(418,875,o),
(466,875,cs)
);
}
);
width = 1051;
}
);
unicode = 42;
},
{
glyphname = numbersign;
kernLeft = A;
kernRight = V;
lastChange = "2025-03-04 00:57:37 +0000";
layers = (
{
layerId = m01;
shapes = (
{
closed = 1;
nodes = (
(384,0,ls),
(428,0,o),
(456,20,o),
(467,63,cs),
(792,1272,ls),
(806,1324,o),
(781,1355,o),
(728,1355,cs),
(695,1355,ls),
(651,1355,o),
(623,1334,o),
(612,1292,cs),
(288,83,ls),
(274,31,o),
(299,0,o),
(352,0,cs)
);
},
{
closed = 1;
nodes = (
(928,0,ls),
(971,0,o),
(999,20,o),
(1011,63,cs),
(1335,1272,ls),
(1349,1324,o),
(1324,1355,o),
(1271,1355,cs),
(1238,1355,ls),
(1195,1355,o),
(1167,1334,o),
(1156,1292,cs),
(831,83,ls),
(817,31,o),
(842,0,o),
(895,0,cs)
);
},
{
closed = 1;
nodes = (
(214,932,ls),
(202,887,o),
(224,857,o),
(272,857,cs),
(1467,857,ls),
(1506,857,o),
(1532,875,o),
(1542,914,cs),
(1547,931,ls),
(1559,977,o),
(1536,1006,o),
(1489,1006,cs),
(293,1006,ls),
(254,1006,o),
(229,988,o),
(219,949,cs)
);
},
{
closed = 1;
nodes = (
(92,477,ls),
(80,432,o),
(102,402,o),
(150,402,cs),
(1345,402,ls),
(1385,402,o),
(1410,420,o),
(1420,459,cs),
(1425,476,ls),
(1437,522,o),
(1414,551,o),
(1367,551,cs),
(171,551,ls),
(132,551,o),
(107,533,o),
(97,494,cs)
);
}
);
width = 1550;
},
{
layerId = m002;
shapes = (
{
closed = 1;
nodes = (
(483,0,ls),
(527,0,o),
(555,20,o),
(566,63,cs),
(890,1272,ls),
(904,1324,o),
(879,1355,o),
(826,1355,cs),
(632,1355,ls),
(588,1355,o),
(560,1334,o),
(549,1292,cs),
(224,83,ls),
(210,31,o),
(235,0,o),
(288,0,cs)
);
},
{
closed = 1;
nodes = (
(1026,0,ls),
(1070,0,o),
(1098,20,o),
(1109,63,cs),
(1434,1272,ls),
(1448,1324,o),
(1423,1355,o),
(1370,1355,cs),
(1175,1355,ls),
(1131,1355,o),
(1104,1334,o),
(1092,1292,cs),
(768,83,ls),
(754,31,o),
(779,0,o),
(832,0,cs)
);
},
{
closed = 1;
nodes = (
(202,820,ls),
(189,770,o),
(212,744,o),
(260,744,cs),
(1455,744,ls),
(1494,744,o),
(1519,759,o),
(1530,801,cs),
(1566,938,ls),
(1579,987,o),
(1556,1012,o),
(1508,1012,cs),
(313,1012,ls),
(274,1012,o),
(249,997,o),
(238,956,cs)
);
},
{
closed = 1;
nodes = (
(93,418,ls),
(80,368,o),
(103,342,o),
(151,342,cs),
(1346,342,ls),
(1385,342,o),
(1410,357,o),
(1421,399,cs),
(1458,536,ls),
(1471,585,o),
(1448,610,o),
(1400,610,cs),
(205,610,ls),
(166,610,o),
(141,596,o),
(130,554,cs)
);
}
);
width = 1585;
}
);
unicode = 35;
},
{
glyphname = slash;
kernLeft = A;
kernRight = V;
lastChange = "2025-03-15 20:46:11 +0000";
layers = (
{
layerId = m01;
shapes = (
{
closed = 1;
nodes = (
(147,0,ls),
(189,0,o),
(215,16,o),
(226,57,cs),
(570,1321,ls),
(584,1374,o),
(577,1408,o),
(521,1408,cs),
(508,1408,ls),
(466,1408,o),
(440,1391,o),
(429,1351,cs),
(86,87,ls),
(71,33,o),
(82,0,o),
(135,0,cs)
);
}
);
width = 656;
},
{
layerId = m002;
shapes = (
{
closed = 1;
nodes = (
(327,0,ls),
(368,0,o),
(402,16,o),
(413,57,cs),
(761,1323,ls),
(775,1375,o),
(759,1408,o),
(703,1408,cs),
(519,1408,ls),
(477,1408,o),
(443,1391,o),
(432,1351,cs),
(85,85,ls),
(71,32,o),
(85,0,o),
(138,0,cs)
);
}
);
width = 846;
}
);
unicode = 47;
},
{
glyphname = hyphen;
lastChange = "2025-03-12 16:44:00 +0000";
layers = (
{
layerId = m01;
shapes = (
{
closed = 1;
nodes = (
(120,696,ls),
(120,660,o),
(139,632,o),
(176,632,cs),
(768,632,ls),
(805,632,o),
(824,660,o),
(823,696,cs),
(824,712,ls),
(824,749,o),
(804,776,o),
(768,776,cs),
(176,776,ls),
(140,776,o),
(120,749,o),
(120,712,cs)
);
}
);
width = 944;
},
{
layerId = m002;
shapes = (
{
closed = 1;
nodes = (
(120,612,ls),
(120,575,o),
(140,556,o),
(176,556,cs),
(768,556,ls),
(804,556,o),
(824,575,o),
(824,612,cs),
(824,797,ls),
(824,833,o),
(804,852,o),
(768,852,cs),
(176,852,ls),
(140,852,o),
(120,833,o),
(120,797,cs)
);
}
);
width = 944;
}
);
unicode = 45;
},
{
glyphname = endash;
lastChange = "2025-03-04 01:00:19 +0000";
layers = (
{
layerId = m01;
shapes = (
{
closed = 1;
nodes = (
(60,696,ls),
(60,660,o),
(79,632,o),
(115,632,cs),
(896,632,ls),
(932,632,o),
(952,660,o),
(952,696,cs),
(952,712,ls),
(952,749,o),
(932,776,o),
(896,776,cs),
(115,776,ls),
(79,776,o),
(60,749,o),
(60,712,cs)
);
}
);
width = 1012;
},
{
layerId = m002;
shapes = (
{
closed = 1;
nodes = (
(60,620,ls),
(60,583,o),
(79,564,o),
(115,564,cs),
(897,564,ls),
(933,564,o),
(953,583,o),
(953,620,cs),
(953,810,ls),
(953,846,o),
(933,865,o),
(897,865,cs),
(115,865,ls),
(79,865,o),
(60,846,o),
(60,810,cs)
);
}
);
width = 1012;
}
);
unicode = 8211;
},
{
glyphname = emdash;
lastChange = "2025-03-04 01:00:46 +0000";
layers = (
{
layerId = m01;
shapes = (
{
closed = 1;
nodes = (
(0,696,ls),
(0,660,o),
(20,632,o),
(56,632,cs),
(1016,632,ls),
(1052,632,o),
(1072,660,o),
(1072,696,cs),
(1072,712,ls),
(1072,749,o),
(1052,776,o),
(1016,776,cs),
(56,776,ls),
(20,776,o),
(0,749,o),
(0,712,cs)
);
}
);
width = 1072;
},
{
layerId = m002;
shapes = (
{
closed = 1;
nodes = (
(0,603,ls),
(0,567,o),
(20,547,o),
(56,547,cs),
(1016,547,ls),
(1052,547,o),
(1072,567,o),
(1072,603,cs),
(1072,826,ls),
(1072,863,o),
(1052,882,o),
(1016,882,cs),
(56,882,ls),
(20,882,o),
(0,863,o),
(0,826,cs)
);
}
);
width = 1072;
}
);
unicode = 8212;
},
{
glyphname = underscore;
lastChange = "2025-03-04 01:01:48 +0000";
layers = (
{
layerId = m01;
shapes = (
{
closed = 1;
nodes = (
(0,-110,ls),
(0,-146,o),
(20,-174,o),
(56,-174,cs),
(903,-174,ls),
(939,-174,o),
(960,-146,o),
(960,-110,cs),
(960,-94,ls),
(960,-57,o),
(939,-30,o),
(903,-30,cs),
(56,-30,ls),
(20,-30,o),
(0,-57,o),
(0,-94,cs)
);
}
);
width = 960;
},
{
layerId = m002;
shapes = (
{
closed = 1;
nodes = (
(0,-275,ls),
(0,-312,o),
(20,-331,o),
(56,-331,cs),
(897,-331,ls),
(933,-331,o),
(953,-312,o),
(953,-275,cs),
(953,-86,ls),
(953,-49,o),
(933,-30,o),
(897,-30,cs),
(56,-30,ls),
(20,-30,o),
(0,-49,o),
(0,-86,cs)
);
}
);
width = 953;
}
);
unicode = 95;
},
{
glyphname = parenleft;
lastChange = "2025-03-04 00:57:56 +0000";
layers = (
{
layerId = m01;
shapes = (
{
closed = 1;
nodes = (
(529,-100,ls),
(569,-100,o),
(596,-74,o),
(596,-33,cs),
(596,-18,ls),
(596,22,o),
(569,49,o),
(529,49,cs),
(492,49,ls),
(421,49,o),
(298,103,o),
(298,236,cs),
(298,1173,ls),
(298,1305,o),
(421,1359,o),
(492,1359,cs),
(529,1359,ls),
(569,1359,o),
(596,1385,o),
(596,1426,cs),
(596,1441,ls),
(596,1481,o),
(569,1508,o),
(529,1508,cs),
(473,1508,ls),
(354,1508,o),
(119,1397,o),
(119,1147,cs),
(119,260,ls),
(119,9,o),
(354,-100,o),
(473,-100,cs)
);
}
);
width = 715;
},
{
layerId = m002;
shapes = (
{
closed = 1;
nodes = (
(640,-89,ls),
(681,-89,o),
(707,-63,o),
(707,-22,cs),
(707,179,ls),
(707,220,o),
(681,246,o),
(640,246,cs),
(622,246,ls),
(601,246,o),
(521,301,o),
(521,433,cs),
(521,997,ls),
(521,1130,o),
(601,1184,o),
(622,1184,cs),
(640,1184,ls),
(681,1184,o),
(707,1210,o),
(707,1251,cs),
(707,1452,ls),
(707,1492,o),
(681,1519,o),
(640,1519,cs),
(584,1519,ls),
(354,1519,o),
(119,1408,o),
(119,1024,cs),
(119,405,ls),
(119,20,o),
(354,-89,o),
(584,-89,cs)
);
}
);
width = 826;
}
);
unicode = 40;
},
{
glyphname = braceleft;
lastChange = "2025-03-04 00:58:03 +0000";
layers = (
{
layerId = m01;
shapes = (
{
closed = 1;
nodes = (
(618,-100,ls),
(659,-100,o),
(685,-74,o),
(685,-33,cs),
(685,-18,ls),
(685,22,o),
(659,49,o),
(618,49,cs),
(582,49,ls),
(510,49,o),
(387,111,o),
(387,243,cs),
(387,417,ls),
(387,548,o),
(357,643,o),
(309,704,c),
(357,764,o),
(387,859,o),
(387,990,cs),
(387,1164,ls),
(387,1296,o),
(510,1359,o),
(582,1359,cs),
(618,1359,ls),
(659,1359,o),
(685,1385,o),
(685,1426,cs),
(685,1441,ls),
(685,1481,o),
(659,1508,o),
(618,1508,cs),
(562,1508,ls),
(443,1508,o),
(208,1397,o),
(208,1139,cs),
(208,965,ls),
(208,840,o),
(190,778,o),
(133,778,cs),
(97,778,ls),
(56,778,o),
(30,752,o),
(30,711,cs),
(30,696,ls),
(30,655,o),
(56,629,o),
(97,629,cs),
(133,629,ls),
(190,629,o),
(208,567,o),
(208,442,cs),
(208,268,ls),
(208,10,o),
(443,-100,o),
(562,-100,cs)
);
}
);
width = 804;
},
{
layerId = m002;
shapes = (
{
closed = 1;
nodes = (
(730,-89,ls),
(770,-89,o),
(796,-63,o),
(796,-22,cs),
(796,179,ls),
(796,220,o),
(770,246,o),
(730,246,cs),
(712,246,ls),
(640,246,o),
(610,308,o),
(610,388,cs),
(610,428,ls),
(610,559,o),
(581,654,o),
(532,715,c),
(581,775,o),
(610,870,o),
(610,1001,cs),
(610,1041,ls),
(610,1121,o),
(640,1184,o),
(712,1184,cs),
(730,1184,ls),
(770,1184,o),
(796,1210,o),
(796,1437,cs),
(796,1452,ls),
(796,1492,o),
(770,1519,o),
(730,1519,cs),
(674,1519,ls),
(443,1519,o),
(208,1408,o),
(208,1016,cs),
(208,976,ls),
(208,944,o),
(190,882,o),
(133,882,cs),
(97,882,ls),
(56,882,o),
(30,856,o),
(30,815,cs),
(30,614,ls),
(30,573,o),
(56,547,o),
(97,547,cs),
(133,547,ls),
(190,547,o),
(208,485,o),
(208,453,cs),
(208,413,ls),
(208,21,o),
(443,-89,o),
(674,-89,cs)
);
}
);
width = 916;
}
);
unicode = 123;
},
{
glyphname = bracketleft;
lastChange = "2025-03-04 00:58:09 +0000";
layers = (
{
layerId = m01;
shapes = (
{
closed = 1;
nodes = (
(529,-89,ls),
(569,-89,o),
(596,-63,o),
(596,-22,cs),
(596,-7,ls),
(596,33,o),
(569,60,o),
(529,60,cs),
(298,60,l),
(298,1370,l),
(529,1370,ls),
(569,1370,o),
(596,1396,o),
(596,1437,cs),
(596,1452,ls),
(596,1492,o),
(569,1519,o),
(529,1519,cs),
(194,1519,ls),
(145,1519,o),
(119,1492,o),
(119,1444,cs),
(119,-15,ls),
(119,-63,o),
(145,-89,o),
(194,-89,cs)
);
}
);
width = 704;
},
{
layerId = m002;
shapes = (
{
closed = 1;
nodes = (
(584,-89,ls),
(625,-89,o),
(651,-63,o),
(651,-22,cs),
(651,179,ls),
(651,220,o),
(625,246,o),
(584,246,cs),
(521,246,l),
(521,1184,l),
(584,1184,ls),
(625,1184,o),
(651,1210,o),
(651,1251,cs),
(651,1452,ls),
(651,1492,o),
(625,1519,o),
(584,1519,cs),
(194,1519,ls),
(145,1519,o),
(119,1492,o),
(119,1444,cs),
(119,-15,ls),
(119,-63,o),
(145,-89,o),
(194,-89,cs)
);
}
);
width = 770;
}
);
unicode = 91;
},
{
glyphname = guilsinglleft;
lastChange = "2025-03-04 00:58:38 +0000";
layers = (
{
layerId = m01;
shapes = (
{
closed = 1;
nodes = (
(631,1032,o),
(634,1066,o),
(605,1094,cs),
(598,1101,ls),
(570,1129,o),
(538,1129,o),
(502,1094,cs),
(218,810,ls),
(191,783,o),
(178,757,o),
(178,719,cs),
(178,691,ls),
(178,652,o),
(191,625,o),
(218,599,cs),
(502,315,ls),
(538,280,o),
(570,279,o),
(598,307,cs),
(605,313,ls),
(633,341,o),
(631,377,o),
(597,410,cs),
(313,695,l),
(313,714,l),
(597,999,ls)
);
}
);
width = 803;
},
{
layerId = m002;
shapes = (
{
closed = 1;
nodes = (
(759,935,o),
(763,969,o),
(734,997,cs),
(609,1122,ls),
(582,1150,o),
(548,1150,o),
(513,1115,cs),
(219,821,ls),
(192,794,o),
(179,768,o),
(179,730,cs),
(179,702,ls),
(179,663,o),
(192,637,o),
(219,610,cs),
(514,315,ls),
(548,281,o),
(582,279,o),
(609,307,cs),
(735,433,ls),
(762,460,o),
(759,495,o),
(726,529,cs),
(549,705,l),
(549,725,l),
(726,902,ls)
);
}
);
width = 932;
}
);
unicode = 8249;
},
{
glyphname = quotesingle;
lastChange = "2025-03-02 15:42:17 +0000";
layers = (
{
layerId = m01;
shapes = (
{
closed = 1;
nodes = (
(203,953,ls),
(239,953,o),
(262,968,o),
(264,1007,cs),
(279,1372,ls),
(281,1411,o),
(255,1429,o),
(216,1429,cs),
(182,1429,ls),
(143,1429,o),
(117,1411,o),
(119,1372,cs),
(134,1007,ls),
(136,968,o),
(159,953,o),
(195,953,cs)
);
}
);
width = 398;
},
{
layerId = m002;
shapes = (
{
closed = 1;
nodes = (
(359,953,ls),
(395,953,o),
(417,968,o),
(421,1007,cs),
(454,1372,ls),
(458,1411,o),
(430,1429,o),
(391,1429,cs),
(182,1429,ls),
(143,1429,o),
(115,1411,o),
(119,1372,cs),
(153,1007,ls),
(156,968,o),
(178,953,o),
(214,953,cs)
);
}
);
width = 573;
}
);
unicode = 39;
},
{
glyphname = spadeBlackSuit;
lastChange = "2025-03-12 16:50:50 +0000";
layers = (
{
layerId = m01;
shapes = (
{
closed = 1;
nodes = (
(741,0,ls),
(802,0,o),
(834,25,o),
(834,73,cs),
(834,100,ls),
(834,117,o),
(830,130,o),
(821,146,cs),
(773,231,o),
(742,324,o),
(730,420,c),
(782,387,o),
(848,375,o),
(921,375,cs),
(1089,375,o),
(1230,489,o),
(1230,675,cs),
(1230,881,o),
(1117,1042,o),
(685,1379,cs),
(649,1408,o),
(611,1408,o),
(575,1379,cs),
(143,1042,o),
(30,881,o),
(30,675,cs),
(30,489,o),
(171,375,o),
(339,375,cs),
(412,375,o),
(477,386,o),
(531,420,c),
(519,324,o),
(488,231,o),
(440,146,cs),
(431,130,o),
(427,117,o),
(427,100,cs),
(427,73,ls),
(427,25,o),
(459,0,o),
(520,0,cs)
);
}
);
width = 1260;
},
{
layerId = m002;
shapes = (
{
closed = 1;
nodes = (
(811,0,ls),
(872,0,o),
(906,25,o),
(906,72,cs),
(906,100,ls),
(906,117,o),
(902,129,o),
(893,145,cs),
(847,225,o),
(815,312,o),
(802,402,c),
(852,383,o),
(910,377,o),
(967,377,cs),
(1137,377,o),
(1282,490,o),
(1282,676,cs),
(1282,897,o),
(1166,1043,o),
(707,1381,cs),
(669,1408,o),
(634,1408,o),
(597,1381,cs),
(137,1043,o),
(22,897,o),
(22,676,cs),
(22,490,o),
(166,377,o),
(336,377,cs),
(393,377,o),
(451,383,o),
(501,402,c),
(488,312,o),
(457,226,o),
(410,145,cs),
(401,129,o),
(397,117,o),
(397,100,cs),
(397,72,ls),
(397,25,o),
(431,0,o),
(492,0,cs)
);
}
);
width = 1304;
}
);
unicode = 9824;
},
{
glyphname = heartWhiteSuit;
lastChange = "2025-03-12 16:55:01 +0000";
layers = (
{
layerId = m01;
shapes = (
{
closed = 1;
nodes = (
(611,49,o),
(650,49,o),
(685,84,cs),
(1123,512,o),
(1238,717,o),
(1238,978,cs),
(1238,1214,o),
(1095,1359,o),
(926,1359,cs),
(804,1359,o),
(705,1321,o),
(646,1186,cs),
(635,1160,o),
(626,1160,o),
(614,1186,cs),
(555,1321,o),
(456,1359,o),
(335,1359,cs),
(166,1359,o),
(22,1214,o),
(22,978,cs),
(22,717,o),
(137,512,o),
(575,84,cs)
);
},
{
closed = 1;
nodes = (
(383,501,o),
(198,729,o),
(198,990,cs),
(198,1108,o),
(276,1191,o),
(370,1191,cs),
(516,1191,o),
(575,1003,o),
(613,935,cs),
(620,923,o),
(642,923,o),
(648,935,cs),
(686,1003,o),
(745,1191,o),
(890,1191,cs),
(985,1191,o),
(1062,1108,o),
(1062,990,cs),
(1062,729,o),
(877,501,o),
(658,287,cs),
(640,269,o),
(621,269,o),
(602,287,cs)
);
}
);
width = 1260;
},
{
layerId = m002;
shapes = (
{
closed = 1;
nodes = (
(633,49,o),
(670,49,o),
(708,83,cs),
(1165,511,o),
(1280,697,o),
(1280,977,cs),
(1280,1214,o),
(1137,1359,o),
(967,1359,cs),
(845,1359,o),
(726,1321,o),
(667,1185,cs),
(656,1159,o),
(647,1159,o),
(636,1185,cs),
(577,1321,o),
(458,1359,o),
(336,1359,cs),
(167,1359,o),
(24,1214,o),
(24,977,cs),
(24,697,o),
(139,511,o),
(596,83,cs)
);
},
{
closed = 1;
nodes = (
(465,547,o),
(310,681,o),
(310,895,cs),
(310,985,o),
(374,1060,o),
(457,1060,cs),
(566,1060,o),
(600,941,o),
(640,873,cs),
(644,864,o),
(660,864,o),
(665,873,cs),
(704,941,o),
(703,1060,o),
(847,1060,cs),
(930,1060,o),
(993,985,o),
(993,895,cs),
(993,681,o),
(838,547,o),
(674,386,cs),
(659,373,o),
(645,373,o),
(630,386,cs)
);
}
);
width = 1304;
}
);
unicode = 9825;
},
{
glyphname = diamondWhiteSuit;
lastChange = "2025-03-12 17:05:39 +0000";
layers = (
{
layerId = m01;
shapes = (
{
closed = 1;
nodes = (
(680,0,ls),
(706,0,o),
(720,11,o),
(736,33,cs),
(1176,653,ls),
(1199,687,o),
(1200,721,o),
(1176,755,cs),
(736,1375,ls),
(720,1398,o),
(706,1408,o),
(680,1408,cs),
(580,1408,ls),
(554,1408,o),
(540,1398,o),
(524,1375,cs),
(84,755,ls),
(60,721,o),
(60,687,o),
(84,653,cs),
(524,33,ls),
(540,11,o),
(554,0,o),
(580,0,cs)
);
},
{
closed = 1;
nodes = (
(614,191,o),
(605,198,o),
(598,207,cs),
(262,683,ls),
(254,695,o),
(254,713,o),
(262,725,cs),
(598,1200,ls),
(605,1209,o),
(614,1216,o),
(619,1216,cs),
(641,1216,ls),
(646,1216,o),
(655,1209,o),
(662,1200,cs),
(998,725,ls),
(1006,713,o),
(1006,695,o),
(998,683,cs),
(662,207,ls),
(655,198,o),
(646,191,o),
(641,191,cs),
(619,191,ls)
);
}
);
width = 1260;
},
{
layerId = m002;
shapes = (
{
closed = 1;
nodes = (
(677,11,ls),
(705,11,o),
(723,21,o),
(741,44,cs),
(1225,664,ls),
(1252,698,o),
(1252,731,o),
(1225,765,cs),
(741,1385,ls),
(723,1408,o),
(705,1419,o),
(677,1419,cs),
(627,1419,ls),
(598,1419,o),
(581,1408,o),
(563,1385,cs),
(79,765,ls),
(52,731,o),
(52,698,o),
(79,664,cs),
(563,44,ls),
(581,21,o),
(598,11,o),
(627,11,cs)
);
},
{
closed = 1;
nodes = (
(621,341,o),
(601,352,o),
(590,367,cs),
(347,675,ls),
(330,697,o),
(330,733,o),
(347,755,cs),
(590,1062,ls),
(601,1077,o),
(621,1088,o),
(637,1088,cs),
(675,1088,ls),
(691,1088,o),
(711,1077,o),
(722,1062,cs),
(957,755,ls),
(974,733,o),
(974,697,o),
(957,675,cs),
(722,367,ls),
(711,352,o),
(691,341,o),
(675,341,cs),
(637,341,ls)
);
}
);
width = 1304;
}
);
unicode = 9826;
},
{
glyphname = clubBlackSuit;
lastChange = "2025-03-12 16:55:34 +0000";
layers = (
{
layerId = m01;
shapes = (
{
closed = 1;
nodes = (
(720,0,ls),
(769,0,o),
(795,25,o),
(795,73,cs),
(795,100,ls),
(795,117,o),
(793,130,o),
(785,146,cs),
(736,256,o),
(707,379,o),
(705,509,c),
(760,448,o),
(840,410,o),
(930,410,cs),
(1096,410,o),
(1230,541,o),
(1230,704,cs),
(1230,866,o),
(1096,997,o),
(930,997,cs),
(922,997,o),
(914,997,o),
(905,996,c),
(921,1032,o),
(930,1072,o),
(930,1114,cs),
(930,1277,o),
(796,1408,o),
(630,1408,cs),
(464,1408,o),
(330,1277,o),
(330,1114,cs),
(330,1072,o),
(340,1032,o),
(356,996,c),
(346,997,o),
(339,997,o),
(330,997,cs),
(164,997,o),
(30,866,o),
(30,704,cs),
(30,541,o),
(164,410,o),
(330,410,cs),
(420,410,o),
(500,448,o),
(555,509,c),
(553,379,o),
(525,256,o),
(476,146,cs),
(468,130,o),
(465,117,o),
(465,100,cs),
(465,73,ls),
(465,25,o),
(492,0,o),
(540,0,cs)
);
}
);
width = 1260;
},
{
layerId = m002;
shapes = (
{
closed = 1;
nodes = (
(779,0,ls),
(828,0,o),
(854,25,o),
(854,72,cs),
(854,100,ls),
(854,117,o),
(851,130,o),
(843,146,cs),
(804,233,o),
(779,329,o),
(769,429,c),
(822,387,o),
(892,361,o),
(966,361,cs),
(1140,361,o),
(1282,498,o),
(1282,669,cs),
(1282,839,o),
(1140,977,o),
(966,977,cs),
(958,977,o),
(950,977,o),
(940,976,c),
(957,1013,o),
(966,1056,o),
(966,1100,cs),
(966,1271,o),
(826,1408,o),
(652,1408,cs),
(478,1408,o),
(337,1271,o),
(337,1100,cs),
(337,1056,o),
(347,1013,o),
(363,976,c),
(354,977,o),
(345,977,o),
(337,977,cs),
(163,977,o),
(22,839,o),
(22,669,cs),
(22,498,o),
(163,361,o),
(337,361,cs),
(411,361,o),
(481,387,o),
(534,429,c),
(524,329,o),
(499,233,o),
(460,146,cs),
(452,130,o),
(450,117,o),
(450,100,cs),
(450,72,ls),
(450,25,o),
(476,0,o),
(524,0,cs)
);
}
);
width = 1304;
}
);
unicode = 9827;
},
{
glyphname = spadeWhiteSuit;
lastChange = "2025-03-12 16:56:14 +0000";
layers = (
{
layerId = m01;
shapes = (
{
closed = 1;
nodes = (
(741,0,ls),
(802,0,o),
(833,25,o),
(833,73,cs),
(833,100,ls),
(833,117,o),
(830,130,o),
(820,146,cs),
(773,231,o),
(742,324,o),
(730,420,c),
(782,387,o),
(848,375,o),
(921,375,cs),
(1089,375,o),
(1230,489,o),
(1230,675,cs),
(1230,881,o),
(1117,1042,o),
(684,1379,cs),
(649,1408,o),
(610,1408,o),
(575,1379,cs),
(143,1042,o),
(30,881,o),
(30,675,cs),
(30,489,o),
(171,375,o),
(339,375,cs),
(412,375,o),
(477,386,o),
(531,420,c),
(518,324,o),
(488,231,o),
(440,146,cs),
(431,130,o),
(427,117,o),
(427,100,cs),
(427,73,ls),
(427,25,o),
(458,0,o),
(519,0,cs)
);
},
{
closed = 1;
nodes = (
(596,130,o),
(587,138,o),
(591,150,cs),
(618,227,ls),
(622,239,o),
(625,243,o),
(630,243,cs),
(636,243,o),
(639,239,o),
(643,227,cs),
(669,150,ls),
(674,138,o),
(664,130,o),
(649,130,cs),
(611,130,ls)
);
},
{
closed = 1;
nodes = (
(336,536,o),
(210,589,o),
(210,711,cs),
(210,864,o),
(305,924,o),
(593,1177,cs),
(619,1199,o),
(643,1199,o),
(667,1177,cs),
(957,924,o),
(1051,849,o),
(1051,711,cs),
(1051,602,o),
(949,536,o),
(838,536,cs),
(756,536,o),
(680,555,o),
(641,627,cs),
(634,641,o),
(626,641,o),
(620,627,cs),
(581,555,o),
(505,536,o),
(424,536,cs)
);
}
);
width = 1260;
},
{
layerId = m002;
shapes = (
{
closed = 1;
nodes = (
(808,0,ls),
(869,0,o),
(901,25,o),
(901,72,cs),
(901,100,ls),
(901,117,o),
(898,129,o),
(888,145,cs),
(844,225,o),
(813,312,o),
(800,402,c),
(848,383,o),
(906,377,o),
(962,377,cs),
(1127,377,o),
(1282,490,o),
(1282,676,cs),
(1282,897,o),
(1167,1043,o),
(706,1381,cs),
(669,1408,o),
(634,1408,o),
(598,1381,cs),
(135,1043,o),
(22,897,o),
(22,676,cs),
(22,490,o),
(175,377,o),
(342,377,cs),
(397,377,o),
(455,383,o),
(505,402,c),
(491,312,o),
(460,226,o),
(415,145,cs),
(406,129,o),
(402,117,o),
(402,100,cs),
(402,72,ls),
(402,25,o),
(435,0,o),
(495,0,cs)
);
},
{
closed = 1;
nodes = (
(624,151,o),
(616,157,o),
(619,164,cs),
(644,211,ls),
(647,218,o),
(648,221,o),
(652,221,cs),
(655,221,o),
(656,218,o),
(659,211,cs),
(684,164,ls),
(687,157,o),
(680,151,o),
(671,151,cs),
(632,151,ls)
);
},
{
closed = 1;
nodes = (
(365,554,o),
(280,622,o),
(280,734,cs),
(280,857,o),
(350,927,o),
(619,1130,cs),
(640,1146,o),
(663,1146,o),
(684,1130,cs),
(954,927,o),
(1023,857,o),
(1023,734,cs),
(1023,622,o),
(938,554,o),
(837,554,cs),
(766,554,o),
(695,572,o),
(660,636,cs),
(653,649,o),
(650,649,o),
(643,636,cs),
(608,572,o),
(537,554,o),
(466,554,cs)
);
}
);
width = 1304;
}
);
unicode = 9828;
},
{
glyphname = heartBlackSuit;
lastChange = "2025-03-12 16:55:11 +0000";
layers = (
{
layerId = m01;
shapes = (
{
closed = 1;
nodes = (
(611,49,o),
(650,49,o),
(685,84,cs),
(1123,512,o),
(1238,717,o),
(1238,978,cs),
(1238,1214,o),
(1095,1359,o),
(926,1359,cs),
(804,1359,o),
(705,1321,o),
(646,1186,cs),
(635,1160,o),
(626,1160,o),
(614,1186,cs),
(555,1321,o),
(456,1359,o),
(335,1359,cs),
(166,1359,o),
(22,1214,o),
(22,978,cs),
(22,717,o),
(137,512,o),
(575,84,cs)
);
}
);
width = 1260;
},
{
layerId = m002;
shapes = (
{
closed = 1;
nodes = (
(633,49,o),
(670,49,o),
(708,83,cs),
(1165,511,o),
(1280,697,o),
(1280,977,cs),
(1280,1214,o),
(1137,1359,o),
(967,1359,cs),
(845,1359,o),
(726,1321,o),
(667,1185,cs),
(656,1159,o),
(647,1159,o),
(636,1185,cs),
(577,1321,o),
(458,1359,o),
(336,1359,cs),
(167,1359,o),
(24,1214,o),
(24,977,cs),
(24,697,o),
(139,511,o),
(596,83,cs)
);
}
);
width = 1304;
}
);
unicode = 9829;
},
{
glyphname = diamondBlackSuit;
lastChange = "2025-03-12 16:57:15 +0000";
layers = (
{
layerId = m01;
shapes = (
{
closed = 1;
nodes = (
(659,0,ls),
(686,0,o),
(701,11,o),
(718,33,cs),
(1175,653,ls),
(1200,687,o),
(1200,720,o),
(1175,754,cs),
(718,1374,ls),
(701,1397,o),
(686,1408,o),
(659,1408,cs),
(609,1408,ls),
(582,1408,o),
(567,1397,o),
(550,1374,cs),
(85,754,ls),
(60,720,o),
(60,687,o),
(85,653,cs),
(550,33,ls),
(567,11,o),
(582,0,o),
(609,0,cs)
);
}
);
width = 1260;
},
{
layerId = m002;
shapes = (
{
closed = 1;
nodes = (
(682,0,ls),
(710,0,o),
(727,10,o),
(745,33,cs),
(1225,653,ls),
(1252,687,o),
(1252,720,o),
(1225,754,cs),
(745,1374,ls),
(727,1397,o),
(710,1408,o),
(682,1408,cs),
(631,1408,ls),
(602,1408,o),
(587,1397,o),
(569,1374,cs),
(78,754,ls),
(52,720,o),
(52,687,o),
(78,653,cs),
(569,33,ls),
(587,10,o),
(602,0,o),
(631,0,cs)
);
}
);
width = 1304;
}
);
unicode = 9830;
},
{
glyphname = clubWhiteSuit;
lastChange = "2025-03-12 16:53:35 +0000";
layers = (
{
layerId = m01;
shapes = (
{
closed = 1;
nodes = (
(462,1408,o),
(326,1271,o),
(326,1100,c),
(326,1056,o),
(336,1014,o),
(352,976,c),
(342,977,o),
(335,977,o),
(326,977,c),
(158,977,o),
(22,840,o),
(22,669,c),
(22,499,o),
(158,361,o),
(326,361,c),
(398,361,o),
(466,387,o),
(517,430,c),
(507,329,o),
(475,234,o),
(436,147,c),
(428,130,o),
(425,117,o),
(425,101,c),
(425,73,l),
(425,26,o),
(452,0,o),
(501,0,c),
(759,0,l),
(809,0,o),
(835,26,o),
(835,73,c),
(835,101,l),
(835,117,o),
(833,130,o),
(825,147,c),
(785,234,o),
(754,329,o),
(743,430,c),
(795,387,o),
(862,361,o),
(934,361,c),
(1102,361,o),
(1238,499,o),
(1238,669,c),
(1238,840,o),
(1102,977,o),
(934,977,c),
(926,977,o),
(918,977,o),
(909,976,c),
(925,1014,o),
(934,1056,o),
(934,1100,c),
(934,1271,o),
(798,1408,o),
(630,1408,c)
);
},
{
closed = 1;
nodes = (
(639,208,o),
(649,177,o),
(661,147,c),
(599,147,l),
(611,177,o),
(621,208,o),
(630,241,c)
);
},
{
closed = 1;
nodes = (
(673,1261,o),
(713,1244,o),
(742,1214,c),
(773,1183,o),
(790,1143,o),
(790,1100,c),
(790,1077,o),
(785,1054,o),
(776,1035,c),
(706,874,ls),
(689,834,o),
(708,808,o),
(751,812,cs),
(924,830,l),
(925,831,o),
(930,831,o),
(934,831,c),
(977,831,o),
(1017,813,o),
(1046,783,c),
(1077,753,o),
(1094,712,o),
(1094,669,c),
(1094,625,o),
(1077,585,o),
(1046,555,c),
(1017,524,o),
(977,508,o),
(934,508,c),
(897,508,o),
(863,520,o),
(835,543,c),
(668,682,ls),
(642,704,o),
(619,704,o),
(592,682,cs),
(425,543,l),
(398,520,o),
(362,508,o),
(326,508,c),
(283,508,o),
(243,524,o),
(213,555,c),
(184,585,o),
(167,625,o),
(167,669,c),
(167,712,o),
(184,753,o),
(213,783,c),
(243,813,o),
(283,831,o),
(326,831,c),
(331,831,o),
(336,831,o),
(337,830,c),
(506,813,ls),
(548,809,o),
(566,835,o),
(550,875,cs),
(486,1032,l),
(475,1055,o),
(471,1078,o),
(471,1100,c),
(471,1143,o),
(488,1183,o),
(517,1214,c),
(547,1244,o),
(587,1261,o),
(630,1261,c)
);
}
);
width = 1260;
},
{
layerId = m002;
shapes = (
{
closed = 1;
nodes = (
(479,1408,o),
(338,1271,o),
(338,1099,c),
(338,1056,o),
(348,1013,o),
(364,976,c),
(355,977,o),
(346,977,o),
(338,977,c),
(163,977,o),
(22,839,o),
(22,669,c),
(22,498,o),
(163,360,o),
(338,360,c),
(412,360,o),
(482,387,o),
(535,429,c),
(525,329,o),
(500,233,o),
(461,146,c),
(453,130,o),
(451,117,o),
(451,100,c),
(451,72,l),
(451,25,o),
(477,0,o),
(525,0,c),
(780,0,l),
(829,0,o),
(855,25,o),
(855,72,c),
(855,100,l),
(855,117,o),
(852,130,o),
(844,146,c),
(805,233,o),
(780,329,o),
(770,429,c),
(823,387,o),
(893,360,o),
(967,360,c),
(1141,360,o),
(1282,498,o),
(1282,669,c),
(1282,839,o),
(1141,977,o),
(967,977,c),
(959,977,o),
(951,977,o),
(941,976,c),
(958,1013,o),
(967,1056,o),
(967,1099,c),
(967,1271,o),
(827,1408,o),
(653,1408,c)
);
},
{
closed = 1;
nodes = (
(661,207,o),
(671,176,o),
(682,146,c),
(622,146,l),
(634,176,o),
(643,207,o),
(653,241,c)
);
},
{
closed = 1;
nodes = (
(685,1138,o),
(716,1125,o),
(740,1101,c),
(763,1079,o),
(776,1049,o),
(776,1016,c),
(776,1000,o),
(773,982,o),
(766,967,c),
(711,847,ls),
(694,807,o),
(702,796,o),
(747,801,cs),
(881,813,l),
(883,814,o),
(885,814,o),
(889,814,c),
(922,814,o),
(952,802,o),
(976,779,c),
(999,756,o),
(1013,726,o),
(1013,693,c),
(1013,661,o),
(999,630,o),
(976,607,c),
(952,585,o),
(922,572,o),
(889,572,c),
(859,572,o),
(833,582,o),
(812,598,c),
(682,703,ls),
(662,719,o),
(643,719,o),
(624,703,cs),
(493,598,l),
(472,582,o),
(444,572,o),
(416,572,c),
(383,572,o),
(352,585,o),
(329,607,c),
(305,630,o),
(292,661,o),
(292,693,c),
(292,726,o),
(305,756,o),
(329,779,c),
(352,802,o),
(383,814,o),
(416,814,c),
(420,814,o),
(424,814,o),
(425,813,c),
(556,802,ls),
(601,797,o),
(607,808,o),
(590,848,cs),
(540,966,l),
(533,983,o),
(529,1000,o),
(529,1016,c),
(529,1049,o),
(542,1079,o),
(564,1101,c),
(588,1125,o),
(619,1138,o),
(653,1138,c)
);
}
);
width = 1304;
}
);
unicode = 9831;
},
{
glyphname = checkmark;
kernLeft = v;
kernRight = V;
lastChange = "2025-03-12 17:09:19 +0000";
layers = (
{
layerId = m01;
shapes = (
{
closed = 1;
nodes = (
(558,0,ls),
(600,0,o),
(629,19,o),
(645,58,cs),
(1171,1343,ls),
(1186,1381,o),
(1170,1408,o),
(1128,1408,cs),
(1070,1408,ls),
(1039,1408,o),
(1018,1393,o),
(1006,1364,cs),
(535,214,l),
(256,895,ls),
(240,934,o),
(212,953,o),
(170,953,cs),
(143,953,ls),
(94,953,o),
(73,917,o),
(94,866,cs),
(425,58,ls),
(441,19,o),
(470,0,o),
(512,0,cs)
);
}
);
width = 1243;
},
{
layerId = m002;
shapes = (
{
closed = 1;
nodes = (
(652,0,ls),
(694,0,o),
(722,20,o),
(738,58,cs),
(1264,1322,ls),
(1285,1373,o),
(1262,1408,o),
(1206,1408,cs),
(971,1408,ls),
(930,1408,o),
(902,1390,o),
(886,1351,cs),
(582,626,l),
(472,895,ls),
(455,936,o),
(428,953,o),
(387,953,cs),
(143,953,ls),
(94,953,o),
(73,917,o),
(94,866,cs),
(425,58,ls),
(441,19,o),
(470,0,o),
(512,0,cs)
);
}
);
width = 1338;
}
);
unicode = 10003;
},
{
glyphname = at;
kernLeft = O;
kernRight = O;
lastChange = "2025-03-12 21:49:52 +0000";
layers = (
{
layerId = m01;
shapes = (
{
closed = 1;
nodes = (
(83,682,ls),
(83,187,o),
(305,-30,o),
(814,-30,cs),
(1152,-30,ls),
(1312,-30,o),
(1433,-5,o),
(1549,52,cs),
(1596,76,o),
(1598,118,o),
(1561,155,cs),
(1547,169,ls),
(1515,200,o),
(1484,202,o),
(1444,183,cs),
(1318,131,o),
(1240,114,o),
(1132,114,cs),
(834,114,ls),
(403,114,o),
(259,257,o),
(259,686,cs),
(259,722,ls),
(259,1151,o),
(403,1294,o),
(834,1294,cs),
(1132,1294,ls),
(1563,1294,o),
(1707,1151,o),
(1707,722,cs),
(1707,686,ls),
(1707,526,o),
(1663,465,o),
(1532,445,c),
(1532,1057,ls),
(1532,1101,o),
(1509,1125,o),
(1464,1125,cs),
(1442,1125,ls),
(1397,1125,o),
(1372,1101,o),
(1372,1057,cs),
(1372,990,l),
(1298,1097,o),
(1214,1144,o),
(1096,1144,cs),
(870,1144,ls),
(562,1144,o),
(428,1014,o),
(428,717,cs),
(428,690,ls),
(428,393,o),
(562,263,o),
(870,263,cs),
(1096,263,ls),
(1214,263,o),
(1297,310,o),
(1372,418,c),
(1372,351,ls),
(1372,307,o),
(1397,283,o),
(1442,283,cs),
(1469,283,l),
(1473,283,ls),
(1758,288,o),
(1883,409,o),
(1883,682,cs),
(1883,726,ls),
(1883,1221,o),
(1661,1438,o),
(1152,1438,cs),
(814,1438,ls),
(305,1438,o),
(83,1221,o),
(83,726,cs)
);
},
{
closed = 1;
nodes = (
(588,715,ls),
(588,941,o),
(660,1016,o),
(876,1016,cs),
(1089,1016,ls),
(1289,1016,o),
(1360,945,o),
(1372,731,c),
(1372,676,l),
(1360,462,o),
(1289,391,o),
(1089,391,cs),
(876,391,ls),
(660,391,o),
(588,467,o),
(588,693,cs)
);
}
);
width = 1966;
},
{
layerId = m002;
shapes = (
{
closed = 1;
nodes = (
(83,682,ls),
(83,187,o),
(348,-30,o),
(955,-30,cs),
(1057,-30,ls),
(1203,-30,o),
(1440,1,o),
(1553,55,cs),
(1599,78,o),
(1630,118,o),
(1593,153,cs),
(1448,289,ls),
(1417,318,o),
(1386,320,o),
(1346,303,cs),
(1265,269,o),
(1189,258,o),
(1040,258,cs),
(972,258,ls),
(575,258,o),
(443,365,o),
(443,687,cs),
(443,721,ls),
(443,1043,o),
(575,1150,o),
(972,1150,cs),
(1040,1150,ls),
(1459,1150,o),
(1599,1067,o),
(1599,816,cs),
(1599,804,ls),
(1599,705,o),
(1507,675,o),
(1455,677,c),
(1455,954,ls),
(1455,997,o),
(1432,1019,o),
(1387,1019,cs),
(1221,1019,ls),
(1207,1019,o),
(1194,1015,o),
(1194,1015,cs),
(1194,1015,l),
(1148,1031,o),
(1102,1038,o),
(1042,1038,cs),
(1000,1038,ls),
(713,1038,o),
(587,940,o),
(587,717,cs),
(587,691,ls),
(587,468,o),
(713,370,o),
(1000,370,cs),
(1042,370,ls),
(1058,370,o),
(1119,371,o),
(1182,392,c),
(1182,392,ls),
(1182,392,o),
(1195,389,o),
(1209,389,cs),
(1387,389,l),
(1455,389,ls),
(1872,389,o),
(1959,603,o),
(1959,784,cs),
(1959,826,ls),
(1959,1252,o),
(1685,1438,o),
(1057,1438,cs),
(955,1438,ls),
(348,1438,o),
(83,1221,o),
(83,725,cs)
);
},
{
closed = 1;
nodes = (
(875,714,ls),
(875,768,o),
(908,786,o),
(1008,786,cs),
(1034,786,ls),
(1134,786,o),
(1167,768,o),
(1167,714,c),
(1167,693,l),
(1167,640,o),
(1134,622,o),
(1034,622,cs),
(1008,622,ls),
(908,622,o),
(875,640,o),
(875,693,cs)
);
}
);
width = 2042;
}
);
unicode = 64;
},
{
glyphname = ampersand;
kernLeft = O;
kernRight = O;
lastChange = "2025-03-12 21:53:04 +0000";
layers = (
{
layerId = m01;
shapes = (
{
closed = 1;
nodes = (
(1068,-30,ls),
(1368,-30,o),
(1573,10,o),
(1687,105,c),
(1878,11,ls),
(1912,-5,o),
(1941,0,o),
(1961,33,cs),
(1980,66,ls),
(2000,99,o),
(1993,130,o),
(1958,147,cs),
(1782,233,l),
(1793,267,o),
(1798,314,o),
(1798,355,cs),
(1798,486,ls),
(1798,534,o),
(1774,560,o),
(1725,560,cs),
(1695,560,ls),
(1646,560,o),
(1622,534,o),
(1622,486,cs),
(1622,360,ls),
(1622,346,o),
(1622,324,o),
(1621,312,c),
(574,825,l),
(486,860,o),
(445,919,o),
(445,1013,cs),
(445,1049,ls),
(445,1238,o),
(573,1294,o),
(925,1294,cs),
(992,1294,ls),
(1345,1294,o),
(1472,1238,o),
(1472,1049,cs),
(1472,985,ls),
(1472,938,o),
(1497,912,o),
(1545,912,cs),
(1575,912,ls),
(1624,912,o),
(1648,938,o),
(1648,985,cs),
(1648,1052,ls),
(1648,1322,o),
(1412,1438,o),
(1012,1438,cs),
(906,1438,ls),
(505,1438,o),
(269,1322,o),
(269,1052,cs),
(269,1008,ls),
(269,887,o),
(320,794,o),
(408,731,c),
(216,674,o),
(120,569,o),
(120,399,cs),
(120,355,ls),
(120,86,o),
(355,-30,o),
(850,-30,cs)
);
},
{
closed = 1;
nodes = (
(423,114,o),
(296,171,o),
(296,360,cs),
(296,396,ls),
(296,534,o),
(377,601,o),
(633,621,c),
(1521,186,l),
(1437,145,o),
(1288,114,o),
(1048,114,cs),
(869,114,ls)
);
}
);
width = 2111;
},
{
layerId = m002;
shapes = (
{
closed = 1;
nodes = (
(1062,-30,ls),
(1408,-30,o),
(1597,0,o),
(1680,70,c),
(1804,8,ls),
(1848,-13,o),
(1883,-1,o),
(1905,41,cs),
(1988,204,ls),
(2009,247,o),
(1996,283,o),
(1955,303,cs),
(1817,371,l),
(1817,400,o),
(1817,488,o),
(1817,529,cs),
(1817,611,ls),
(1817,659,o),
(1791,684,o),
(1743,684,cs),
(1496,684,ls),
(1447,684,o),
(1421,659,o),
(1421,611,cs),
(1421,592,ls),
(1421,592,o),
(1421,566,o),
(1421,566,c),
(900,823,l),
(728,908,o),
(671,951,o),
(671,996,cs),
(671,1003,ls),
(671,1086,o),
(734,1114,o),
(921,1114,cs),
(1016,1114,ls),
(1208,1114,o),
(1272,1086,o),
(1272,1003,cs),
(1272,967,ls),
(1272,919,o),
(1299,893,o),
(1347,893,cs),
(1594,893,ls),
(1642,893,o),
(1668,919,o),
(1668,967,cs),
(1668,1052,ls),
(1668,1321,o),
(1476,1438,o),
(1036,1438,cs),
(902,1438,ls),
(462,1438,o),
(269,1321,o),
(269,1052,cs),
(269,1009,ls),
(269,882,o),
(297,808,o),
(362,766,c),
(194,659,o),
(120,547,o),
(120,399,cs),
(120,355,ls),
(120,87,o),
(341,-30,o),
(846,-30,cs)
);
},
{
closed = 1;
nodes = (
(645,294,o),
(516,354,o),
(516,418,cs),
(516,455,ls),
(516,537,o),
(554,565,o),
(669,568,c),
(1219,297,l),
(1212,295,o),
(1187,294,o),
(1024,294,cs),
(856,294,ls)
);
}
);
width = 2118;
}
);
unicode = 38;
},
{
glyphname = paragraph;
kernLeft = O;
kernRight = H;
lastChange = "2025-03-12 21:55:44 +0000";
layers = (
{
layerId = m01;
shapes = (
{
closed = 1;
nodes = (
(1048,0,o),
(1072,25,o),
(1072,73,cs),
(1072,1264,l),
(1288,1264,l),
(1288,73,ls),
(1288,25,o),
(1312,0,o),
(1361,0,cs),
(1391,0,ls),
(1440,0,o),
(1464,25,o),
(1464,73,cs),
(1464,1334,ls),
(1464,1382,o),
(1437,1408,o),
(1388,1408,cs),
(610,1408,ls),
(269,1408,o),
(120,1280,o),
(120,987,cs),
(120,957,ls),
(120,664,o),
(269,536,o),
(610,536,cs),
(896,536,l),
(896,73,ls),
(896,25,o),
(920,0,o),
(969,0,cs),
(999,0,ls)
);
},
{
closed = 1;
nodes = (
(624,680,ls),
(382,680,o),
(301,750,o),
(301,960,cs),
(301,984,ls),
(301,1194,o),
(382,1264,o),
(624,1264,cs),
(896,1264,l),
(896,680,l)
);
}
);
width = 1584;
},
{
layerId = m002;
shapes = (
{
closed = 1;
nodes = (
(1068,0,o),
(1094,25,o),
(1094,72,cs),
(1094,1084,l),
(1222,1084,l),
(1222,72,ls),
(1222,25,o),
(1248,0,o),
(1296,0,cs),
(1543,0,ls),
(1592,0,o),
(1618,25,o),
(1618,72,cs),
(1618,1335,ls),
(1618,1382,o),
(1592,1408,o),
(1543,1408,cs),
(601,1408,ls),
(266,1408,o),
(120,1262,o),
(120,928,cs),
(120,880,ls),
(120,546,o),
(266,400,o),
(601,400,cs),
(698,400,l),
(698,72,ls),
(698,25,o),
(724,0,o),
(772,0,cs),
(1019,0,ls)
);
},
{
closed = 1;
nodes = (
(633,724,ls),
(550,724,o),
(522,764,o),
(522,883,cs),
(522,925,ls),
(522,1044,o),
(550,1084,o),
(633,1084,cs),
(698,1084,l),
(698,724,l)
);
}
);
width = 1738;
}
);
unicode = 182;
},
{
glyphname = section;
kernLeft = O;
kernRight = O;
lastChange = "2025-03-12 22:01:59 +0000";
layers = (
{
layerId = m01;
shapes = (
{
closed = 1;
nodes = (
(855,-20,ls),
(1225,-20,o),
(1387,62,o),
(1387,249,cs),
(1387,281,ls),
(1387,377,o),
(1352,438,o),
(1273,482,c),
(1352,528,o),
(1387,590,o),
(1387,686,cs),
(1387,733,ls),
(1387,906,o),
(1234,984,o),
(883,987,cs),
(666,989,ls),
(377,992,o),
(281,1027,o),
(281,1129,cs),
(281,1155,ls),
(281,1264,o),
(377,1300,o),
(666,1300,cs),
(870,1300,ls),
(1114,1300,o),
(1203,1266,o),
(1227,1162,cs),
(1237,1115,o),
(1254,1091,o),
(1301,1091,cs),
(1317,1091,ls),
(1364,1091,o),
(1394,1119,o),
(1387,1168,cs),
(1359,1349,o),
(1206,1428,o),
(883,1428,cs),
(653,1428,ls),
(283,1428,o),
(121,1346,o),
(121,1158,cs),
(121,1126,ls),
(121,1029,o),
(156,968,o),
(235,925,c),
(156,881,o),
(121,819,o),
(121,722,cs),
(121,674,ls),
(121,490,o),
(308,422,o),
(625,419,cs),
(842,417,ls),
(1131,414,o),
(1227,379,o),
(1227,278,cs),
(1227,252,ls),
(1227,144,o),
(1131,108,o),
(842,108,cs),
(638,108,ls),
(394,108,o),
(305,142,o),
(281,245,cs),
(271,292,o),
(253,317,o),
(207,317,cs),
(191,317,ls),
(144,317,o),
(114,288,o),
(121,239,cs),
(148,59,o),
(302,-20,o),
(625,-20,cs)
);
},
{
closed = 1;
nodes = (
(666,549,ls),
(377,549,o),
(281,584,o),
(281,689,cs),
(281,719,ls),
(281,824,o),
(374,859,o),
(653,859,cs),
(842,859,ls),
(1131,859,o),
(1227,824,o),
(1227,718,cs),
(1227,688,ls),
(1227,584,o),
(1134,549,o),
(855,549,cs)
);
}
);
width = 1508;
},
{
layerId = m002;
shapes = (
{
closed = 1;
nodes = (
(852,-20,ls),
(1221,-20,o),
(1383,73,o),
(1383,285,cs),
(1383,315,ls),
(1383,418,o),
(1348,482,o),
(1269,525,c),
(1348,567,o),
(1383,630,o),
(1383,731,cs),
(1383,771,ls),
(1383,949,o),
(1221,1030,o),
(852,1036,cs),
(664,1039,ls),
(473,1043,o),
(409,1056,o),
(409,1094,cs),
(409,1121,ls),
(409,1162,o),
(484,1176,o),
(707,1176,cs),
(817,1176,ls),
(1011,1176,o),
(1080,1160,o),
(1090,1111,cs),
(1096,1082,o),
(1121,1077,o),
(1167,1077,cs),
(1311,1077,ls),
(1358,1077,o),
(1390,1105,o),
(1383,1153,cs),
(1353,1344,o),
(1200,1428,o),
(880,1428,cs),
(651,1428,ls),
(282,1428,o),
(121,1335,o),
(121,1122,cs),
(121,1092,ls),
(121,989,o),
(156,925,o),
(235,882,c),
(156,840,o),
(121,777,o),
(121,677,cs),
(121,637,ls),
(121,459,o),
(282,378,o),
(651,372,cs),
(839,369,ls),
(1031,365,o),
(1095,352,o),
(1095,314,cs),
(1095,287,ls),
(1095,246,o),
(1021,232,o),
(797,232,cs),
(687,232,ls),
(489,232,o),
(420,248,o),
(410,296,cs),
(404,325,o),
(379,330,o),
(333,330,cs),
(193,330,ls),
(146,330,o),
(114,302,o),
(121,254,cs),
(151,63,o),
(303,-20,o),
(623,-20,cs)
);
},
{
closed = 1;
nodes = (
(664,624,ls),
(473,624,o),
(409,641,o),
(409,691,cs),
(409,717,ls),
(409,767,o),
(472,784,o),
(659,784,cs),
(847,784,ls),
(1033,784,o),
(1095,767,o),
(1095,717,cs),
(1095,691,ls),
(1095,641,o),
(1034,624,o),
(852,624,cs)
);
}
);
width = 1504;
}
);
unicode = 167;
},
{
glyphname = copyright;
kernLeft = O;
kernRight = O;
lastChange = "2025-03-12 22:07:08 +0000";
layers = (
{
layerId = m01;
shapes = (
{
closed = 1;
nodes = (
(1069,-30,ls),
(1578,-30,o),
(1800,187,o),
(1800,682,cs),
(1800,726,ls),
(1800,1221,o),
(1578,1438,o),
(1069,1438,cs),
(851,1438,ls),
(342,1438,o),
(120,1221,o),
(120,726,cs),
(120,682,ls),
(120,187,o),
(342,-30,o),
(851,-30,cs)
);
},
{
closed = 1;
nodes = (
(440,114,o),
(296,257,o),
(296,686,cs),
(296,722,ls),
(296,1151,o),
(440,1294,o),
(871,1294,cs),
(1049,1294,ls),
(1480,1294,o),
(1624,1151,o),
(1624,722,cs),
(1624,686,ls),
(1624,257,o),
(1480,114,o),
(1049,114,cs),
(871,114,ls)
);
},
{
closed = 1;
nodes = (
(1059,259,ls),
(1304,259,o),
(1424,336,o),
(1451,513,cs),
(1459,561,o),
(1432,589,o),
(1382,589,cs),
(1366,589,ls),
(1319,589,o),
(1302,565,o),
(1291,519,cs),
(1268,420,o),
(1207,387,o),
(1046,387,cs),
(871,387,ls),
(684,387,o),
(621,463,o),
(621,691,cs),
(621,714,ls),
(621,944,o),
(684,1021,o),
(871,1021,cs),
(1046,1021,ls),
(1207,1021,o),
(1268,988,o),
(1291,889,cs),
(1302,843,o),
(1319,819,o),
(1366,819,cs),
(1382,819,ls),
(1432,819,o),
(1459,847,o),
(1451,895,cs),
(1424,1072,o),
(1304,1149,o),
(1059,1149,cs),
(858,1149,ls),
(582,1149,o),
(461,1017,o),
(461,716,cs),
(461,688,ls),
(461,390,o),
(582,259,o),
(858,259,cs)
);
}
);
width = 1920;
},
{
layerId = m002;
shapes = (
{
closed = 1;
nodes = (
(1062,-30,ls),
(1567,-30,o),
(1788,187,o),
(1788,682,cs),
(1788,726,ls),
(1788,1221,o),
(1567,1438,o),
(1062,1438,cs),
(846,1438,ls),
(341,1438,o),
(120,1221,o),
(120,726,cs),
(120,682,ls),
(120,187,o),
(341,-30,o),
(846,-30,cs)
);
},
{
closed = 1;
nodes = (
(521,222,o),
(408,338,o),
(408,686,cs),
(408,722,ls),
(408,1070,o),
(521,1186,o),
(861,1186,cs),
(1047,1186,ls),
(1387,1186,o),
(1500,1070,o),
(1500,722,cs),
(1500,686,ls),
(1500,338,o),
(1387,222,o),
(1047,222,cs),
(861,222,ls)
);
},
{
closed = 1;
nodes = (
(1022,347,ls),
(1214,347,o),
(1308,423,o),
(1331,598,cs),
(1334,629,o),
(1317,647,o),
(1285,647,cs),
(1128,647,ls),
(1098,647,o),
(1082,633,o),
(1078,618,cs),
(1066,577,o),
(1036,563,o),
(960,563,cs),
(948,563,ls),
(857,563,o),
(826,596,o),
(826,695,cs),
(826,711,ls),
(826,812,o),
(857,846,o),
(948,846,cs),
(960,846,ls),
(1036,846,o),
(1065,832,o),
(1078,790,cs),
(1082,775,o),
(1098,761,o),
(1128,761,cs),
(1285,761,ls),
(1317,761,o),
(1334,779,o),
(1331,811,cs),
(1307,986,o),
(1213,1062,o),
(1022,1062,cs),
(882,1062,ls),
(668,1062,o),
(574,956,o),
(574,713,cs),
(574,693,ls),
(574,452,o),
(668,347,o),
(882,347,cs)
);
}
);
width = 1908;
}
);
unicode = 169;
},
{
glyphname = registered;
kernLeft = O;
kernRight = O;
lastChange = "2025-03-12 22:10:14 +0000";
layers = (
{
layerId = m01;
shapes = (
{
closed = 1;
nodes = (
(120,682,ls),
(120,187,o),
(342,-30,o),
(851,-30,cs),
(1069,-30,ls),
(1578,-30,o),
(1800,187,o),
(1800,682,cs),
(1800,726,ls),
(1800,1221,o),
(1578,1438,o),
(1069,1438,cs),
(851,1438,ls),
(342,1438,o),
(120,1221,o),
(120,726,cs)
);
},
{
closed = 1;
nodes = (
(296,1151,o),
(440,1294,o),
(871,1294,cs),
(1049,1294,ls),
(1480,1294,o),
(1624,1151,o),
(1624,722,cs),
(1624,686,ls),
(1624,257,o),
(1480,114,o),
(1049,114,cs),
(871,114,ls),
(440,114,o),
(296,257,o),
(296,686,cs),
(296,722,ls)
);
},
{
closed = 1;
nodes = (
(646,259,ls),
(686,259,o),
(707,280,o),
(707,318,cs),
(707,579,l),
(926,579,l),
(1224,295,ls),
(1247,273,o),
(1266,259,o),
(1298,259,cs),
(1357,259,ls),
(1402,259,o),
(1421,297,o),
(1383,332,cs),
(1113,582,l),
(1327,595,o),
(1415,684,o),
(1415,861,cs),
(1415,867,ls),
(1415,1059,o),
(1287,1149,o),
(993,1149,cs),
(608,1149,ls),
(569,1149,o),
(547,1128,o),
(547,1089,cs),
(547,318,ls),
(547,280,o),
(569,259,o),
(608,259,cs)
);
},
{
closed = 1;
nodes = (
(707,1021,l),
(983,1021,ls),
(1187,1021,o),
(1255,979,o),
(1255,865,cs),
(1255,863,ls),
(1255,748,o),
(1187,707,o),
(983,707,cs),
(707,707,l)
);
}
);
width = 1920;
},
{
layerId = m002;
shapes = (
{
closed = 1;
nodes = (
(1062,-30,ls),
(1567,-30,o),
(1788,187,o),
(1788,682,cs),
(1788,726,ls),
(1788,1221,o),
(1567,1438,o),
(1062,1438,cs),
(846,1438,ls),
(341,1438,o),
(120,1221,o),
(120,726,cs),
(120,682,ls),
(120,187,o),
(341,-30,o),
(846,-30,cs)
);
},
{
closed = 1;
nodes = (
(533,222,o),
(408,338,o),
(408,686,cs),
(408,722,ls),
(408,1070,o),
(521,1186,o),
(861,1186,cs),
(1047,1186,ls),
(1387,1186,o),
(1500,1070,o),
(1500,722,cs),
(1500,686,ls),
(1500,338,o),
(1399,222,o),
(1059,222,cs),
(873,222,ls)
);
},
{
closed = 1;
nodes = (
(797,346,ls),
(834,346,o),
(853,366,o),
(853,402,cs),
(853,496,l),
(997,496,l),
(1081,384,ls),
(1097,363,o),
(1108,346,o),
(1136,346,cs),
(1302,346,ls),
(1339,346,o),
(1362,370,o),
(1339,402,cs),
(1237,543,l),
(1306,591,o),
(1336,658,o),
(1336,764,cs),
(1336,794,ls),
(1336,980,o),
(1239,1062,o),
(1016,1062,cs),
(652,1062,ls),
(616,1062,o),
(596,1049,o),
(596,1006,cs),
(596,402,ls),
(596,366,o),
(616,346,o),
(652,346,cs)
);
},
{
closed = 1;
nodes = (
(853,846,l),
(988,846,ls),
(1060,846,o),
(1084,831,o),
(1084,787,cs),
(1084,771,ls),
(1084,727,o),
(1060,712,o),
(988,712,cs),
(853,712,l)
);
}
);
width = 1908;
}
);
unicode = 174;
},
{
glyphname = trademark;
kernLeft = H;
kernRight = H;
lastChange = "2025-03-12 22:22:09 +0000";
layers = (
{
layerId = m01;
shapes = (
{
closed = 1;
nodes = (
(120,1328,ls),
(120,1288,o),
(146,1264,o),
(187,1264,cs),
(538,1264,l),
(538,609,ls),
(538,561,o),
(564,536,o),
(613,536,cs),
(639,536,ls),
(688,536,o),
(714,561,o),
(714,609,cs),
(714,1264,l),
(1065,1264,ls),
(1106,1264,o),
(1132,1288,o),
(1132,1328,cs),
(1132,1344,ls),
(1132,1384,o),
(1106,1408,o),
(1065,1408,cs),
(187,1408,ls),
(146,1408,o),
(120,1384,o),
(120,1344,cs)
);
},
{
closed = 1;
nodes = (
(1292,609,ls),
(1292,561,o),
(1318,536,o),
(1366,536,cs),
(1394,536,ls),
(1442,536,o),
(1468,561,o),
(1468,609,cs),
(1468,1264,l),
(1487,1264,l),
(1845,585,ls),
(1864,550,o),
(1894,536,o),
(1934,536,cs),
(2018,536,ls),
(2058,536,o),
(2088,550,o),
(2107,585,cs),
(2465,1264,l),
(2484,1264,l),
(2484,609,ls),
(2484,561,o),
(2510,536,o),
(2558,536,cs),
(2586,536,ls),
(2634,536,o),
(2660,561,o),
(2660,609,cs),
(2660,1336,ls),
(2660,1383,o),
(2634,1408,o),
(2586,1408,cs),
(2423,1408,ls),
(2383,1408,o),
(2353,1395,o),
(2334,1359,cs),
(1976,680,l),
(1618,1359,ls),
(1599,1395,o),
(1569,1408,o),
(1529,1408,cs),
(1366,1408,ls),
(1318,1408,o),
(1292,1383,o),
(1292,1336,cs)
);
}
);
width = 2780;
},
{
layerId = m002;
shapes = (
{
closed = 1;
nodes = (
(120,1221,ls),
(120,1181,o),
(146,1156,o),
(187,1156,cs),
(482,1156,l),
(482,608,ls),
(482,561,o),
(508,536,o),
(556,536,cs),
(695,536,ls),
(744,536,o),
(770,561,o),
(770,608,cs),
(770,1156,l),
(1065,1156,ls),
(1106,1156,o),
(1132,1181,o),
(1132,1221,cs),
(1132,1342,ls),
(1132,1382,o),
(1106,1408,o),
(1065,1408,cs),
(187,1408,ls),
(146,1408,o),
(120,1382,o),
(120,1342,cs)
);
},
{
closed = 1;
nodes = (
(1287,608,ls),
(1287,561,o),
(1313,536,o),
(1362,536,cs),
(1499,536,ls),
(1549,536,o),
(1575,561,o),
(1575,608,cs),
(1575,1156,l),
(1578,1156,l),
(1753,585,ls),
(1765,546,o),
(1803,536,o),
(1844,536,cs),
(2099,536,ls),
(2139,536,o),
(2177,546,o),
(2189,585,cs),
(2365,1156,l),
(2367,1156,l),
(2367,608,ls),
(2367,561,o),
(2393,536,o),
(2443,536,cs),
(2580,536,ls),
(2629,536,o),
(2655,561,o),
(2655,608,cs),
(2655,1335,ls),
(2655,1382,o),
(2629,1408,o),
(2580,1408,cs),
(2242,1408,ls),
(2202,1408,o),
(2163,1395,o),
(2152,1359,cs),
(1971,788,l),
(1790,1359,ls),
(1779,1395,o),
(1740,1408,o),
(1700,1408,cs),
(1362,1408,ls),
(1313,1408,o),
(1287,1382,o),
(1287,1335,cs)
);
}
);
width = 2775;
}
);
unicode = 8482;
},
{
glyphname = brokenbar;
kernLeft = l;
kernRight = l;
lastChange = "2025-03-04 01:35:12 +0000";
layers = (
{
layerId = m01;
shapes = (
{
closed = 1;
nodes = (
(240,0,ls),
(276,0,o),
(296,20,o),
(296,56,cs),
(296,560,ls),
(296,597,o),
(276,616,o),
(240,616,cs),
(176,616,ls),
(140,616,o),
(120,597,o),
(120,560,cs),
(120,56,ls),
(120,20,o),
(140,0,o),
(176,0,cs)
);
},
{
closed = 1;
nodes = (
(240,792,ls),
(276,792,o),
(296,811,o),
(296,848,cs),
(296,1352,ls),
(296,1389,o),
(276,1408,o),
(240,1408,cs),
(176,1408,ls),
(140,1408,o),
(120,1389,o),
(120,1352,cs),
(120,848,ls),
(120,811,o),
(140,792,o),
(176,792,cs)
);
}
);
width = 416;
},
{
layerId = m002;
shapes = (
{
closed = 1;
nodes = (
(432,0,ls),
(468,0,o),
(488,20,o),
(488,56,cs),
(488,569,ls),
(488,606,o),
(468,625,o),
(432,625,cs),
(175,625,ls),
(139,625,o),
(119,606,o),
(119,569,cs),
(119,56,ls),
(119,20,o),
(139,0,o),
(175,0,cs)
);
},
{
closed = 1;
nodes = (
(432,804,ls),
(468,804,o),
(488,823,o),
(488,860,cs),
(488,1373,ls),
(488,1410,o),
(468,1429,o),
(432,1429,cs),
(175,1429,ls),
(139,1429,o),
(119,1410,o),
(119,1373,cs),
(119,860,ls),
(119,823,o),
(139,804,o),
(175,804,cs)
);
}
);
width = 607;
}
);
unicode = 166;
},
{
glyphname = dagger;
kernLeft = l;
kernRight = l;
lastChange = "2025-03-15 20:49:54 +0000";
layers = (
{
layerId = m01;
shapes = (
{
closed = 1;
nodes = (
(447,336,ls),
(496,336,o),
(520,362,o),
(520,410,cs),
(520,1072,l),
(704,1072,ls),
(741,1072,o),
(760,1094,o),
(760,1128,cs),
(760,1144,ls),
(760,1177,o),
(741,1200,o),
(704,1200,cs),
(520,1200,l),
(520,1334,ls),
(520,1382,o),
(496,1408,o),
(447,1408,cs),
(432,1408,ls),
(384,1408,o),
(360,1382,o),
(360,1334,cs),
(360,1200,l),
(176,1200,ls),
(139,1200,o),
(120,1177,o),
(120,1144,cs),
(120,1128,ls),
(120,1094,o),
(139,1072,o),
(176,1072,cs),
(360,1072,l),
(360,410,ls),
(360,362,o),
(384,336,o),
(432,336,cs)
);
}
);
width = 880;
},
{
layerId = m002;
shapes = (
{
closed = 1;
nodes = (
(551,339,ls),
(599,339,o),
(625,365,o),
(625,413,cs),
(625,992,l),
(686,992,ls),
(734,992,o),
(760,1018,o),
(760,1052,cs),
(760,1221,ls),
(760,1254,o),
(734,1280,o),
(686,1280,cs),
(625,1280,l),
(625,1355,ls),
(625,1403,o),
(599,1429,o),
(551,1429,cs),
(330,1429,ls),
(281,1429,o),
(255,1403,o),
(255,1355,cs),
(255,1280,l),
(195,1280,ls),
(146,1280,o),
(120,1254,o),
(120,1221,cs),
(120,1052,ls),
(120,1018,o),
(146,992,o),
(195,992,cs),
(255,992,l),
(255,413,ls),
(255,365,o),
(281,339,o),
(330,339,cs)
);
}
);
width = 880;
}
);
unicode = 8224;
},
{
glyphname = daggerdbl;
kernLeft = l;
kernRight = l;
lastChange = "2025-03-15 20:51:49 +0000";
layers = (
{
layerId = m01;
shapes = (
{
closed = 1;
nodes = (
(447,336,ls),
(496,336,o),
(520,362,o),
(520,410,cs),
(520,816,l),
(710,816,ls),
(743,816,o),
(760,836,o),
(759,872,cs),
(760,888,ls),
(760,925,o),
(742,944,o),
(710,944,cs),
(520,944,l),
(520,1072,l),
(704,1072,ls),
(741,1072,o),
(760,1094,o),
(760,1128,cs),
(760,1144,ls),
(760,1177,o),
(741,1200,o),
(704,1200,cs),
(520,1200,l),
(520,1334,ls),
(520,1382,o),
(496,1408,o),
(447,1408,cs),
(432,1408,ls),
(384,1408,o),
(360,1382,o),
(360,1334,cs),
(360,1200,l),
(176,1200,ls),
(139,1200,o),
(120,1177,o),
(120,1144,cs),
(120,1128,ls),
(120,1094,o),
(139,1072,o),
(176,1072,cs),
(360,1072,l),
(360,944,l),
(170,944,ls),
(138,944,o),
(120,925,o),
(120,888,cs),
(120,872,ls),
(120,836,o),
(137,816,o),
(170,816,cs),
(360,816,l),
(360,410,ls),
(360,362,o),
(384,336,o),
(432,336,cs)
);
}
);
width = 863;
},
{
layerId = m002;
shapes = (
{
closed = 1;
nodes = (
(546,339,ls),
(594,339,o),
(620,365,o),
(620,413,cs),
(620,631,l),
(686,631,ls),
(734,631,o),
(760,657,o),
(760,690,cs),
(760,859,ls),
(760,893,o),
(734,919,o),
(686,919,cs),
(620,919,l),
(620,1015,l),
(686,1015,ls),
(734,1015,o),
(760,1041,o),
(760,1075,cs),
(760,1244,ls),
(760,1277,o),
(734,1303,o),
(686,1303,cs),
(620,1303,l),
(620,1355,ls),
(620,1403,o),
(594,1429,o),
(546,1429,cs),
(335,1429,ls),
(286,1429,o),
(260,1403,o),
(260,1355,cs),
(260,1303,l),
(195,1303,ls),
(146,1303,o),
(120,1277,o),
(120,1244,cs),
(120,1075,ls),
(120,1041,o),
(146,1015,o),
(195,1015,cs),
(260,1015,l),
(260,919,l),
(195,919,ls),
(146,919,o),
(120,893,o),
(120,859,cs),
(120,690,ls),
(120,657,o),
(147,631,o),
(195,631,cs),
(260,631,l),
(260,413,ls),
(260,365,o),
(286,339,o),
(335,339,cs)
);
}
);
width = 880;
}
);
unicode = 8225;
},
{
glyphname = numero;
lastChange = "2025-03-15 20:55:54 +0000";
layers = (
{
layerId = m01;
shapes = (
{
closed = 1;
nodes = (
(238,0,ls),
(287,0,o),
(310,26,o),
(310,74,cs),
(310,1248,l),
(342,1248,l),
(1311,38,ls),
(1336,7,o),
(1365,0,o),
(1403,0,cs),
(1516,0,ls),
(1564,0,o),
(1590,26,o),
(1590,74,cs),
(1590,1334,ls),
(1590,1382,o),
(1566,1408,o),
(1518,1408,cs),
(1502,1408,ls),
(1453,1408,o),
(1430,1382,o),
(1430,1334,cs),
(1430,160,l),
(1398,160,l),
(429,1370,ls),
(404,1401,o),
(375,1408,o),
(337,1408,cs),
(224,1408,ls),
(176,1408,o),
(150,1382,o),
(150,1334,cs),
(150,74,ls),
(150,26,o),
(174,0,o),
(222,0,cs)
);
},
{
alignment = -1;
pos = (1624,0);
ref = zerosuperior;
},
{
closed = 1;
nodes = (
(1734,320,ls),
(1734,284,o),
(1754,264,o),
(1790,264,cs),
(2624,264,ls),
(2660,264,o),
(2680,284,o),
(2680,320,cs),
(2680,336,ls),
(2680,372,o),
(2660,392,o),
(2624,392,cs),
(1790,392,ls),
(1754,392,o),
(1734,372,o),
(1734,336,cs)
);
}
);
width = 2790;
},
{
layerId = m002;
shapes = (
{
closed = 1;
nodes = (
(435,0,ls),
(483,0,o),
(509,26,o),
(509,74,cs),
(509,1048,l),
(548,1048,l),
(972,38,ls),
(986,4,o),
(1026,0,o),
(1064,0,cs),
(1504,0,ls),
(1552,0,o),
(1578,26,o),
(1578,74,cs),
(1578,1355,ls),
(1578,1403,o),
(1552,1429,o),
(1504,1429,cs),
(1292,1429,ls),
(1244,1429,o),
(1218,1403,o),
(1218,1355,cs),
(1218,381,l),
(1179,381,l),
(755,1391,ls),
(740,1426,o),
(701,1429,o),
(663,1429,cs),
(223,1429,ls),
(175,1429,o),
(149,1403,o),
(149,1355,cs),
(149,74,ls),
(149,26,o),
(175,0,o),
(223,0,cs)
);
},
{
alignment = -1;
pos = (1600,0);
ref = zerosuperior;
},
{
closed = 1;
nodes = (
(1707,232,ls),
(1707,196,o),
(1726,176,o),
(1762,176,cs),
(2604,176,ls),
(2640,176,o),
(2659,196,o),
(2659,232,cs),
(2659,336,ls),
(2659,372,o),
(2640,392,o),
(2604,392,cs),
(1762,392,ls),
(1726,392,o),
(1707,372,o),
(1707,336,cs)
);
}
);
width = 2765;
}
);
unicode = 8470;
},
{
glyphname = cent;
kernLeft = c;
kernRight = c;
lastChange = "2025-03-06 01:46:17 +0000";
layers = (
{
layerId = m01;
shapes = (
{
ref = c;
},
{
closed = 1;
nodes = (
(652,-104,ls),
(652,-153,o),
(676,-179,o),
(724,-179,cs),
(739,-179,ls),
(788,-179,o),
(812,-153,o),
(812,-104,cs),
(812,1176,ls),
(812,1225,o),
(788,1251,o),
(739,1251,cs),
(724,1251,ls),
(676,1251,o),
(652,1225,o),
(652,1176,cs)
);
}
);
width = 1452;
},
{
layerId = m002;
shapes = (
{
ref = c;
},
{
closed = 1;
nodes = (
(569,-104,ls),
(569,-153,o),
(596,-179,o),
(644,-179,cs),
(830,-179,ls),
(878,-179,o),
(904,-153,o),
(904,-104,cs),
(904,1176,ls),
(904,1225,o),
(878,1251,o),
(830,1251,cs),
(644,1251,ls),
(596,1251,o),
(569,1225,o),
(569,1176,cs)
);
}
);
width = 1455;
}
);
unicode = 162;
},
{
glyphname = currency;
kernLeft = z;
kernRight = z;
lastChange = "2025-03-15 15:54:00 +0000";
layers = (
{
layerId = m01;
shapes = (
{
closed = 1;
nodes = (
(129,70,o),
(164,72,o),
(199,105,cs),
(374,280,l),
(458,243,o),
(540,227,o),
(642,227,cs),
(750,227,ls),
(853,227,o),
(935,243,o),
(1019,280,c),
(1194,105,ls),
(1228,71,o),
(1264,70,o),
(1299,105,cs),
(1307,113,ls),
(1342,148,o),
(1339,186,o),
(1307,218,cs),
(1148,377,l),
(1214,465,o),
(1243,560,o),
(1243,689,cs),
(1243,719,ls),
(1243,848,o),
(1214,943,o),
(1147,1031,c),
(1306,1190,ls),
(1339,1223,o),
(1339,1262,o),
(1306,1295,cs),
(1298,1303,ls),
(1265,1336,o),
(1228,1338,o),
(1193,1303,cs),
(1018,1128,l),
(938,1165,o),
(857,1181,o),
(750,1181,cs),
(642,1181,ls),
(535,1181,o),
(454,1165,o),
(374,1128,c),
(199,1303,ls),
(164,1338,o),
(126,1335,o),
(94,1303,cs),
(86,1295,ls),
(54,1263,o),
(54,1222,o),
(86,1190,cs),
(245,1031,l),
(178,943,o),
(149,848,o),
(149,719,cs),
(149,689,ls),
(149,561,o),
(178,466,o),
(245,377,c),
(86,218,ls),
(53,185,o),
(50,149,o),
(86,113,cs),
(94,105,ls)
);
},
{
closed = 1;
nodes = (
(401,371,o),
(325,451,o),
(325,692,cs),
(325,716,ls),
(325,957,o),
(401,1037,o),
(627,1037,cs),
(765,1037,ls),
(992,1037,o),
(1067,957,o),
(1067,716,cs),
(1067,692,ls),
(1067,451,o),
(992,371,o),
(765,371,cs),
(627,371,ls)
);
}
);
width = 1392;
},
{
layerId = m002;
shapes = (
{
closed = 1;
nodes = (
(318,72,o),
(349,72,o),
(381,104,cs),
(524,247,l),
(554,233,o),
(607,227,o),
(700,227,cs),
(808,227,ls),
(901,227,o),
(954,233,o),
(984,247,c),
(1127,104,ls),
(1159,72,o),
(1190,72,o),
(1222,104,cs),
(1358,240,ls),
(1390,272,o),
(1390,303,o),
(1358,335,cs),
(1248,445,l),
(1284,503,o),
(1300,576,o),
(1300,686,cs),
(1300,716,ls),
(1300,828,o),
(1284,903,o),
(1248,963,c),
(1358,1073,ls),
(1390,1105,o),
(1390,1136,o),
(1358,1168,cs),
(1222,1304,ls),
(1190,1336,o),
(1159,1336,o),
(1127,1304,cs),
(984,1161,l),
(953,1175,o),
(899,1181,o),
(808,1181,cs),
(700,1181,ls),
(609,1181,o),
(555,1175,o),
(524,1161,c),
(381,1304,ls),
(349,1336,o),
(318,1336,o),
(286,1304,cs),
(150,1168,ls),
(118,1136,o),
(118,1105,o),
(150,1073,cs),
(260,963,l),
(224,906,o),
(208,831,o),
(208,716,cs),
(208,686,ls),
(208,573,o),
(224,499,o),
(260,445,c),
(150,335,ls),
(118,303,o),
(118,272,o),
(150,240,cs),
(286,104,ls)
);
},
{
closed = 1;
nodes = (
(606,515,o),
(568,561,o),
(568,698,cs),
(568,712,ls),
(568,848,o),
(606,893,o),
(719,893,cs),
(789,893,ls),
(902,893,o),
(940,848,o),
(940,712,cs),
(940,698,ls),
(940,561,o),
(902,515,o),
(789,515,cs),
(719,515,ls)
);
}
);
width = 1506;
}
);
unicode = 164;
},
{
glyphname = dollar;
kernLeft = O;
kernRight = O;
lastChange = "2025-03-15 16:03:45 +0000";
layers = (
{
layerId = m01;
shapes = (
{
ref = S;
},
{
closed = 1;
nodes = (
(751,-56,ls),
(751,-105,o),
(775,-128,o),
(823,-128,cs),
(839,-128,ls),
(887,-128,o),
(911,-105,o),
(911,-56,cs),
(911,1464,ls),
(911,1513,o),
(887,1536,o),
(839,1536,cs),
(823,1536,ls),
(775,1536,o),
(751,1513,o),
(751,1464,cs)
);
},
{
closed = 1;
nodes = (
(1071,-56,ls),
(1071,-105,o),
(1094,-128,o),
(1143,-128,cs),
(1159,-128,ls),
(1207,-128,o),
(1231,-105,o),
(1231,-56,cs),
(1231,1464,ls),
(1231,1513,o),
(1207,1536,o),
(1159,1536,cs),
(1143,1536,ls),
(1094,1536,o),
(1071,1513,o),
(1071,1464,cs)
);
}
);
width = 1982;
},
{
layerId = m002;
shapes = (
{
ref = S;
},
{
closed = 1;
nodes = (
(573,-53,ls),
(573,-102,o),
(599,-128,o),
(647,-128,cs),
(858,-128,ls),
(906,-128,o),
(933,-102,o),
(933,-53,cs),
(933,1461,ls),
(933,1510,o),
(906,1536,o),
(858,1536,cs),
(647,1536,ls),
(599,1536,o),
(573,1510,o),
(573,1461,cs)
);
},
{
closed = 1;
nodes = (
(1045,-53,ls),
(1045,-102,o),
(1071,-128,o),
(1119,-128,cs),
(1331,-128,ls),
(1379,-128,o),
(1405,-102,o),
(1405,-53,cs),
(1405,1461,ls),
(1405,1510,o),
(1379,1536,o),
(1331,1536,cs),
(1119,1536,ls),
(1071,1536,o),
(1045,1510,o),
(1045,1461,cs)
);
}
);
width = 1978;
}
);
unicode = 36;
},
{
glyphname = euro;
kernLeft = O;
kernRight = O;
lastChange = "2025-03-15 16:22:58 +0000";
layers = (
{
layerId = m01;
shapes = (
{
closed = 1;
nodes = (
(1182,-30,ls),
(1432,-30,o),
(1595,21,o),
(1716,139,cs),
(1750,173,o),
(1753,207,o),
(1713,239,cs),
(1703,247,ls),
(1665,277,o),
(1629,277,o),
(1594,242,cs),
(1494,146,o),
(1386,114,o),
(1163,114,cs),
(897,114,ls),
(537,114,o),
(417,258,o),
(417,689,cs),
(417,712,ls),
(417,1149,o),
(537,1294,o),
(897,1294,cs),
(1163,1294,ls),
(1386,1294,o),
(1494,1262,o),
(1595,1166,cs),
(1630,1131,o),
(1665,1131,o),
(1703,1161,cs),
(1713,1169,ls),
(1753,1201,o),
(1750,1235,o),
(1716,1270,cs),
(1595,1387,o),
(1432,1438,o),
(1182,1438,cs),
(877,1438,ls),
(435,1438,o),
(241,1218,o),
(241,716,cs),
(241,685,ls),
(241,188,o),
(435,-30,o),
(877,-30,cs)
);
},
{
closed = 1;
nodes = (
(1317,488,ls),
(1359,488,o),
(1387,496,o),
(1404,540,c),
(1413,564,ls),
(1430,608,o),
(1408,616,o),
(1352,616,cs),
(161,616,ls),
(119,616,o),
(92,608,o),
(75,564,cs),
(66,540,ls),
(49,496,o),
(70,488,o),
(126,488,cs)
);
},
{
closed = 1;
nodes = (
(1437,792,ls),
(1479,792,o),
(1513,800,o),
(1530,844,cs),
(1539,868,ls),
(1556,912,o),
(1528,920,o),
(1472,920,cs),
(170,920,ls),
(128,920,o),
(107,912,o),
(90,868,cs),
(81,844,ls),
(64,800,o),
(79,792,o),
(135,792,cs)
);
}
);
width = 1862;
},
{
layerId = m002;
shapes = (
{
closed = 1;
nodes = (
(1252,-30,ls),
(1552,-30,o),
(1586,66,o),
(1718,191,cs),
(1753,226,o),
(1749,262,o),
(1711,295,cs),
(1542,436,ls),
(1504,467,o),
(1472,461,o),
(1437,428,cs),
(1342,336,o),
(1283,294,o),
(1106,294,cs),
(994,294,ls),
(814,294,o),
(641,414,o),
(641,681,cs),
(641,727,ls),
(641,995,o),
(814,1114,o),
(994,1114,cs),
(1106,1114,ls),
(1283,1114,o),
(1342,1071,o),
(1438,980,cs),
(1473,946,o),
(1504,940,o),
(1542,971,cs),
(1711,1113,ls),
(1749,1145,o),
(1753,1181,o),
(1718,1216,cs),
(1589,1345,o),
(1459,1438,o),
(1159,1438,cs),
(881,1438,ls),
(561,1438,o),
(245,1238,o),
(245,731,cs),
(245,677,ls),
(245,169,o),
(561,-30,o),
(881,-30,cs)
);
},
{
closed = 1;
nodes = (
(1028,368,ls),
(1070,368,o),
(1098,385,o),
(1115,430,cs),
(1178,594,ls),
(1194,636,o),
(1173,656,o),
(1117,656,cs),
(214,656,ls),
(172,656,o),
(145,639,o),
(128,594,cs),
(65,430,ls),
(49,388,o),
(68,368,o),
(124,368,cs)
);
},
{
closed = 1;
nodes = (
(1119,752,ls),
(1161,752,o),
(1190,769,o),
(1207,814,cs),
(1270,978,ls),
(1287,1021,o),
(1265,1040,o),
(1209,1040,cs),
(248,1040,ls),
(206,1040,o),
(179,1023,o),
(162,978,cs),
(99,814,ls),
(83,772,o),
(102,752,o),
(158,752,cs)
);
}
);
width = 1862;
}
);
unicode = 8364;
},
{
glyphname = sterling;
kernLeft = f;
kernRight = H;
lastChange = "2025-03-15 16:27:25 +0000";
layers = (
{
layerId = m01;
shapes = (
{
closed = 1;
nodes = (
(1650,0,ls),
(1691,0,o),
(1710,23,o),
(1710,64,cs),
(1710,80,ls),
(1710,121,o),
(1691,144,o),
(1650,144,cs),
(469,144,l),
(498,219,o),
(510,346,o),
(510,560,c),
(1133,560,ls),
(1174,560,o),
(1200,584,o),
(1200,624,cs),
(1200,640,ls),
(1200,680,o),
(1174,704,o),
(1133,704,cs),
(510,704,l),
(510,1124,o),
(625,1264,o),
(969,1264,cs),
(985,1264,ls),
(1312,1264,o),
(1427,1179,o),
(1444,925,cs),
(1447,876,o),
(1472,850,o),
(1520,850,cs),
(1547,850,ls),
(1596,850,o),
(1624,877,o),
(1620,926,cs),
(1596,1261,o),
(1409,1408,o),
(1004,1408,cs),
(949,1408,ls),
(518,1408,o),
(330,1194,o),
(330,704,c),
(128,704,ls),
(87,704,o),
(60,680,o),
(60,640,cs),
(60,624,ls),
(60,584,o),
(87,560,o),
(128,560,cs),
(330,560,l),
(330,259,o),
(304,156,o),
(227,145,cs),
(224,145,o),
(221,144,o),
(218,144,c),
(169,144,o),
(150,121,o),
(150,80,cs),
(150,64,ls),
(150,23,o),
(169,0,o),
(218,0,cs)
);
}
);
width = 1834;
},
{
layerId = m002;
shapes = (
{
closed = 1;
nodes = (
(1651,0,ls),
(1691,0,o),
(1710,26,o),
(1710,67,cs),
(1710,257,ls),
(1710,298,o),
(1691,324,o),
(1651,324,cs),
(711,324,l),
(720,385,o),
(724,429,o),
(724,470,c),
(1125,470,ls),
(1166,470,o),
(1192,496,o),
(1192,537,cs),
(1192,727,ls),
(1192,768,o),
(1166,794,o),
(1125,794,cs),
(724,794,l),
(724,1012,o),
(784,1084,o),
(962,1084,cs),
(1034,1084,ls),
(1186,1084,o),
(1244,1048,o),
(1264,939,cs),
(1273,890,o),
(1291,863,o),
(1339,863,cs),
(1592,863,ls),
(1640,863,o),
(1668,890,o),
(1665,941,cs),
(1642,1266,o),
(1456,1408,o),
(1053,1408,cs),
(943,1408,ls),
(515,1408,o),
(328,1221,o),
(328,794,c),
(127,794,ls),
(86,794,o),
(60,768,o),
(60,727,cs),
(60,537,ls),
(60,496,o),
(86,470,o),
(127,470,cs),
(328,470,l),
(323,398,o),
(319,353,o),
(315,323,cs),
(315,323,o),
(217,324,o),
(217,324,c),
(168,324,o),
(150,298,o),
(150,257,cs),
(150,67,ls),
(150,26,o),
(168,0,o),
(217,0,cs)
);
}
);
width = 1834;
}
);
unicode = 163;
},
{
glyphname = won;
kernLeft = W;
kernRight = W;
lastChange = "2025-03-15 15:19:25 +0000";
layers = (
{
layerId = m01;
shapes = (
{
ref = W;
},
{
closed = 1;
nodes = (
(85,855,ls),
(85,819,o),
(105,792,o),
(134,792,cs),
(2917,792,ls),
(2955,792,o),
(2975,819,o),
(2975,856,cs),
(2975,872,ls),
(2975,908,o),
(2955,936,o),
(2917,936,cs),
(134,936,ls),
(105,936,o),
(85,909,o),
(85,872,cs)
);
},
{
closed = 1;
nodes = (
(85,536,ls),
(85,499,o),
(105,472,o),
(134,472,cs),
(2917,472,ls),
(2955,472,o),
(2975,500,o),
(2975,536,cs),
(2975,552,ls),
(2975,589,o),
(2955,616,o),
(2917,616,cs),
(134,616,ls),
(105,616,o),
(85,588,o),
(85,552,cs)
);
}
);
width = 3059;
},
{
layerId = m002;
shapes = (
{
ref = W;
},
{
closed = 1;
nodes = (
(101,848,ls),
(101,812,o),
(121,792,o),
(150,792,cs),
(2933,792,ls),
(2971,792,o),
(2991,812,o),
(2991,848,cs),
(2991,1025,ls),
(2991,1061,o),
(2971,1080,o),
(2933,1080,cs),
(150,1080,ls),
(121,1080,o),
(101,1061,o),
(101,1025,cs)
);
},
{
closed = 1;
nodes = (
(101,384,ls),
(101,348,o),
(121,328,o),
(150,328,cs),
(2933,328,ls),
(2971,328,o),
(2991,348,o),
(2991,384,cs),
(2991,560,ls),
(2991,596,o),
(2971,616,o),
(2933,616,cs),
(150,616,ls),
(121,616,o),
(101,596,o),
(101,560,cs)
);
}
);
width = 3065;
}
);
unicode = 8361;
},
{
glyphname = plus;
lastChange = "2025-03-15 19:59:07 +0000";
layers = (
{
layerId = m01;
shapes = (
{
closed = 1;
nodes = (
(652,235,ls),
(701,235,o),
(732,252,o),
(732,310,cs),
(732,632,l),
(1142,632,ls),
(1178,632,o),
(1198,660,o),
(1198,696,cs),
(1198,712,ls),
(1198,749,o),
(1178,776,o),
(1142,776,cs),
(732,776,l),
(732,1108,ls),
(732,1156,o),
(701,1173,o),
(652,1173,cs),
(636,1173,ls),
(588,1173,o),
(556,1156,o),
(556,1108,cs),
(556,776,l),
(146,776,ls),
(110,776,o),
(90,749,o),
(90,712,cs),
(90,696,ls),
(90,660,o),
(110,632,o),
(146,632,cs),
(556,632,l),
(556,310,ls),
(556,252,o),
(588,235,o),
(636,235,cs)
);
}
);
width = 1288;
},
{
layerId = m002;
shapes = (
{
closed = 1;
nodes = (
(762,235,ls),
(811,235,o),
(842,252,o),
(842,310,cs),
(842,542,l),
(1142,542,ls),
(1178,542,o),
(1198,570,o),
(1198,606,cs),
(1198,802,ls),
(1198,839,o),
(1178,866,o),
(1142,866,cs),
(842,866,l),
(842,1108,ls),
(842,1156,o),
(811,1173,o),
(762,1173,cs),
(526,1173,ls),
(478,1173,o),
(446,1156,o),
(446,1108,cs),
(446,866,l),
(146,866,ls),
(110,866,o),
(90,839,o),
(90,802,cs),
(90,606,ls),
(90,570,o),
(110,542,o),
(146,542,cs),
(446,542,l),
(446,310,ls),
(446,252,o),
(478,235,o),
(526,235,cs)
);
}
);
width = 1280;
}
);
unicode = 43;
},
{
glyphname = minus;
lastChange = "2025-03-15 20:00:11 +0000";
layers = (
{
layerId = m01;
shapes = (
{
closed = 1;
nodes = (
(104,696,ls),
(104,660,o),
(124,632,o),
(160,632,cs),
(1128,632,ls),
(1165,632,o),
(1184,660,o),
(1184,696,cs),
(1184,712,ls),
(1184,749,o),
(1165,776,o),
(1128,776,cs),
(160,776,ls),
(124,776,o),
(104,749,o),
(104,712,cs)
);
}
);
width = 1288;
},
{
layerId = m002;
shapes = (
{
closed = 1;
nodes = (
(104,598,ls),
(104,561,o),
(124,542,o),
(160,542,cs),
(1120,542,ls),
(1157,542,o),
(1176,561,o),
(1176,598,cs),
(1176,811,ls),
(1176,847,o),
(1157,866,o),
(1120,866,cs),
(160,866,ls),
(124,866,o),
(104,847,o),
(104,811,cs)
);
}
);
width = 1280;
}
);
unicode = 8722;
},
{
glyphname = multiply;
lastChange = "2025-03-15 20:00:47 +0000";
layers = (
{
layerId = m01;
shapes = (
{
closed = 1;
nodes = (
(233,1088,ls),
(208,1063,o),
(202,1029,o),
(228,1003,cs),
(527,704,l),
(228,405,ls),
(202,379,o),
(207,346,o),
(233,320,cs),
(256,297,ls),
(281,272,o),
(315,266,o),
(341,292,cs),
(640,591,l),
(939,292,ls),
(965,266,o),
(999,272,o),
(1024,297,cs),
(1047,320,ls),
(1073,346,o),
(1078,379,o),
(1052,405,cs),
(753,704,l),
(1052,1003,ls),
(1078,1029,o),
(1072,1063,o),
(1047,1088,cs),
(1024,1111,ls),
(998,1137,o),
(965,1142,o),
(939,1116,cs),
(640,817,l),
(341,1116,ls),
(315,1142,o),
(282,1137,o),
(256,1111,cs)
);
}
);
width = 1280;
},
{
layerId = m002;
shapes = (
{
closed = 1;
nodes = (
(154,1026,ls),
(128,1001,o),
(122,967,o),
(148,942,cs),
(385,704,l),
(148,466,ls),
(122,441,o),
(127,408,o),
(154,382,cs),
(318,218,ls),
(343,192,o),
(377,186,o),
(402,212,cs),
(640,449,l),
(878,212,ls),
(904,186,o),
(937,192,o),
(962,218,cs),
(1126,382,ls),
(1153,408,o),
(1158,440,o),
(1132,466,cs),
(895,704,l),
(1132,942,ls),
(1158,968,o),
(1152,1001,o),
(1126,1026,cs),
(962,1190,ls),
(936,1217,o),
(904,1222,o),
(878,1196,cs),
(640,959,l),
(402,1196,ls),
(377,1222,o),
(344,1217,o),
(318,1190,cs)
);
}
);
width = 1280;
}
);
unicode = 215;
},
{
glyphname = less;
lastChange = "2025-03-15 20:06:19 +0000";
layers = (
{
layerId = m01;
shapes = (
{
closed = 1;
nodes = (
(1165,14,o),
(1203,31,o),
(1203,89,cs),
(1203,120,ls),
(1203,161,o),
(1187,188,o),
(1152,208,cs),
(283,704,l),
(1152,1200,ls),
(1187,1220,o),
(1203,1248,o),
(1203,1289,cs),
(1203,1320,ls),
(1203,1374,o),
(1165,1394,o),
(1113,1364,cs),
(131,801,ls),
(99,783,o),
(85,757,o),
(85,721,cs),
(85,687,ls),
(85,651,o),
(99,625,o),
(131,607,cs),
(1113,44,ls)
);
}
);
width = 1288;
},
{
layerId = m002;
shapes = (
{
closed = 1;
nodes = (
(1157,-107,o),
(1195,-84,o),
(1195,-25,cs),
(1195,237,ls),
(1195,277,o),
(1179,306,o),
(1144,326,cs),
(488,704,l),
(1144,1082,ls),
(1179,1102,o),
(1195,1131,o),
(1195,1172,cs),
(1195,1442,ls),
(1195,1496,o),
(1157,1515,o),
(1105,1485,cs),
(131,924,ls),
(99,906,o),
(85,880,o),
(85,844,cs),
(85,564,ls),
(85,528,o),
(99,503,o),
(131,484,cs),
(1105,-77,ls)
);
}
);
width = 1280;
}
);
unicode = 60;
},
